<svg width="352" height="59" viewBox="0 0 352 63" fill="none" xmlns="http://www.w3.org/2000/svg">
<g filter="url(#filter0_dd_1_465)">
<rect x="3.84595" y="3.53711" width="345" height="54" rx="10" fill="black"/>
<rect x="54.8459" y="3.53711" width="244" height="54" rx="10" fill="black"/>
<g clip-path="url(#clip0_1_465)">
<rect width="24" height="24" transform="translate(69.8459 18.5371)" fill="black"/>
<path d="M91.1266 36.9611C90.7787 37.7646 90.367 38.5043 89.89 39.1843C89.2398 40.1114 88.7074 40.7531 88.2971 41.1095C87.6611 41.6944 86.9796 41.9939 86.2499 42.011C85.726 42.011 85.0942 41.8619 84.3588 41.5595C83.621 41.2585 82.9429 41.1095 82.3229 41.1095C81.6727 41.1095 80.9754 41.2585 80.2294 41.5595C79.4824 41.8619 78.8806 42.0195 78.4204 42.0351C77.7207 42.0649 77.0232 41.7569 76.3269 41.1095C75.8826 40.7219 75.3268 40.0575 74.6609 39.1162C73.9465 38.111 73.3592 36.9455 72.8991 35.6166C72.4063 34.1813 72.1592 32.7914 72.1592 31.4458C72.1592 29.9044 72.4923 28.575 73.1594 27.461C73.6837 26.5661 74.3812 25.8602 75.2542 25.342C76.1272 24.8238 77.0704 24.5598 78.0862 24.5429C78.6421 24.5429 79.3709 24.7148 80.2767 25.0527C81.1799 25.3917 81.7599 25.5637 82.0142 25.5637C82.2043 25.5637 82.8485 25.3626 83.9407 24.9618C84.9735 24.5902 85.8452 24.4363 86.5594 24.4969C88.4944 24.6531 89.9482 25.4159 90.915 26.7901C89.1844 27.8387 88.3283 29.3074 88.3454 31.1915C88.361 32.6591 88.8934 33.8803 89.9397 34.85C90.4139 35.3 90.9434 35.6478 91.5326 35.8949C91.4048 36.2654 91.27 36.6203 91.1266 36.9611ZM86.6886 19.4972C86.6886 20.6475 86.2683 21.7215 85.4307 22.7156C84.4199 23.8973 83.1972 24.5802 81.8713 24.4725C81.8544 24.3345 81.8446 24.1892 81.8446 24.0366C81.8446 22.9324 82.3254 21.7506 83.179 20.7843C83.6052 20.2951 84.1473 19.8883 84.8046 19.5638C85.4605 19.2442 86.0809 19.0674 86.6644 19.0371C86.6815 19.1909 86.6886 19.3447 86.6886 19.4972V19.4972Z" fill="white"/>
</g>
<path d="M116.092 37.7715C119.334 37.7715 121.541 36.0625 122.078 33.1523H119.901C119.461 34.8516 118.065 35.8574 116.102 35.8574C113.514 35.8574 111.873 33.7773 111.873 30.4863C111.873 27.2246 113.533 25.125 116.092 25.125C118.006 25.125 119.51 26.3066 119.901 28.1133H122.069C121.698 25.1738 119.285 23.2109 116.092 23.2109C112.156 23.2109 109.637 26.0234 109.637 30.4863C109.637 34.9785 112.137 37.7715 116.092 37.7715ZM128.211 37.7324C131.151 37.7324 133.084 35.7109 133.084 32.4004C133.084 29.0996 131.141 27.0781 128.211 27.0781C125.281 27.0781 123.338 29.0996 123.338 32.4004C123.338 35.7109 125.272 37.7324 128.211 37.7324ZM128.211 35.9941C126.561 35.9941 125.487 34.6855 125.487 32.4004C125.487 30.125 126.561 28.8164 128.211 28.8164C129.862 28.8164 130.936 30.125 130.936 32.4004C130.936 34.6855 129.871 35.9941 128.211 35.9941ZM134.715 37.5371H136.824V31.5508C136.824 29.959 137.781 28.9043 139.266 28.9043C140.731 28.9043 141.453 29.7539 141.453 31.2969V37.5371H143.573V30.8867C143.573 28.5332 142.274 27.0879 140.008 27.0879C138.426 27.0879 137.332 27.8105 136.776 28.9824H136.727V27.2637H134.715V37.5371ZM146.229 24.832V27.2637H144.735V28.9336H146.229V34.832C146.229 36.8145 147.039 37.6055 149.119 37.6055C149.588 37.6055 150.057 37.5664 150.291 37.5078V35.8379C150.155 35.8672 149.813 35.8867 149.598 35.8867C148.739 35.8867 148.348 35.4863 148.348 34.5977V28.9336H150.301V27.2637H148.348V24.832H146.229ZM153.162 25.6035C153.836 25.6035 154.373 25.0566 154.373 24.3926C154.373 23.7188 153.836 23.1816 153.162 23.1816C152.489 23.1816 151.942 23.7188 151.942 24.3926C151.942 25.0566 152.489 25.6035 153.162 25.6035ZM152.108 37.5371H154.217V27.2637H152.108V37.5371ZM156.375 37.5371H158.485V31.5508C158.485 29.959 159.442 28.9043 160.926 28.9043C162.391 28.9043 163.114 29.7539 163.114 31.2969V37.5371H165.233V30.8867C165.233 28.5332 163.934 27.0879 161.668 27.0879C160.086 27.0879 158.992 27.8105 158.436 28.9824H158.387V27.2637H156.375V37.5371ZM176.082 27.2637H173.973V33.25C173.973 34.8516 173.055 35.9062 171.531 35.9062C170.076 35.9062 169.334 35.0664 169.334 33.5039V27.2637H167.225V33.9141C167.225 36.2676 168.592 37.7227 170.828 37.7227C172.401 37.7227 173.446 37.0293 174.012 35.7988H174.061V37.5371H176.082V27.2637ZM184.979 34.5195C184.696 35.418 183.807 36.0234 182.606 36.0234C180.916 36.0234 179.842 34.8418 179.842 33.0547V32.9277H187.098V32.2051C187.098 29.0898 185.321 27.0781 182.469 27.0781C179.569 27.0781 177.713 29.2266 177.713 32.4492C177.713 35.6914 179.539 37.7324 182.557 37.7324C184.91 37.7324 186.688 36.3945 186.981 34.5195H184.979ZM182.469 28.7773C183.944 28.7773 184.94 29.8809 184.989 31.4531H179.852C179.959 29.9004 180.994 28.7773 182.469 28.7773ZM206.356 27.2637H204.266L202.391 35.3496H202.342L200.194 27.2637H198.162L196.024 35.3496H195.985L194.11 27.2637H192L194.823 37.5371H197L199.139 29.8418H199.188L201.346 37.5371H203.543L206.356 27.2637ZM208.768 25.6035C209.442 25.6035 209.979 25.0566 209.979 24.3926C209.979 23.7188 209.442 23.1816 208.768 23.1816C208.094 23.1816 207.547 23.7188 207.547 24.3926C207.547 25.0566 208.094 25.6035 208.768 25.6035ZM207.713 37.5371H209.823V27.2637H207.713V37.5371ZM212.596 24.832V27.2637H211.102V28.9336H212.596V34.832C212.596 36.8145 213.406 37.6055 215.487 37.6055C215.955 37.6055 216.424 37.5664 216.658 37.5078V35.8379C216.522 35.8672 216.18 35.8867 215.965 35.8867C215.106 35.8867 214.715 35.4863 214.715 34.5977V28.9336H216.668V27.2637H214.715V24.832H212.596ZM218.485 37.5371H220.594V31.5996C220.594 29.9785 221.551 28.9043 223.114 28.9043C224.598 28.9043 225.36 29.8125 225.36 31.3262V37.5371H227.479V30.916C227.479 28.5918 226.131 27.0879 223.875 27.0879C222.313 27.0879 221.19 27.7812 220.623 28.9824H220.574V23.4453H218.485V37.5371ZM243.016 37.5371H245.33L240.242 23.4453H237.879L232.791 37.5371H235.067L236.356 33.7285H241.727L243.016 37.5371ZM239.012 25.7891H239.071L241.17 31.9707H236.912L239.012 25.7891ZM251.981 27.0977C250.496 27.0977 249.315 27.8496 248.709 29.0312H248.67V27.2637H246.629V40.9355H248.739V35.8477H248.787C249.373 36.9902 250.545 37.7129 252.02 37.7129C254.598 37.7129 256.307 35.6523 256.307 32.4004C256.307 29.1484 254.588 27.0977 251.981 27.0977ZM251.424 35.9258C249.803 35.9258 248.729 34.5391 248.729 32.4004C248.729 30.2812 249.813 28.875 251.424 28.875C253.094 28.875 254.139 30.252 254.139 32.4004C254.139 34.5586 253.094 35.9258 251.424 35.9258ZM263.289 27.0977C261.805 27.0977 260.623 27.8496 260.018 29.0312H259.979V27.2637H257.938V40.9355H260.047V35.8477H260.096C260.682 36.9902 261.854 37.7129 263.328 37.7129C265.906 37.7129 267.615 35.6523 267.615 32.4004C267.615 29.1484 265.897 27.0977 263.289 27.0977ZM262.733 35.9258C261.112 35.9258 260.037 34.5391 260.037 32.4004C260.037 30.2812 261.121 28.875 262.733 28.875C264.403 28.875 265.448 30.252 265.448 32.4004C265.448 34.5586 264.403 35.9258 262.733 35.9258ZM269.324 37.5371H271.434V23.4453H269.324V37.5371ZM280.408 34.5195C280.125 35.418 279.237 36.0234 278.035 36.0234C276.346 36.0234 275.272 34.8418 275.272 33.0547V32.9277H282.528V32.2051C282.528 29.0898 280.75 27.0781 277.899 27.0781C274.998 27.0781 273.143 29.2266 273.143 32.4492C273.143 35.6914 274.969 37.7324 277.987 37.7324C280.34 37.7324 282.117 36.3945 282.41 34.5195H280.408ZM277.899 28.7773C279.373 28.7773 280.369 29.8809 280.418 31.4531H275.281C275.389 29.9004 276.424 28.7773 277.899 28.7773Z" fill="white"/>
</g>
<defs>
<filter id="filter0_dd_1_465" x="0.845947" y="0.537109" width="351" height="62" filterUnits="userSpaceOnUse" color-interpolation-filters="sRGB">
<feFlood flood-opacity="0" result="BackgroundImageFix"/>
<feColorMatrix in="SourceAlpha" type="matrix" values="0 0 0 0 0 0 0 0 0 0 0 0 0 0 0 0 0 0 127 0" result="hardAlpha"/>
<feOffset dy="2"/>
<feGaussianBlur stdDeviation="1.5"/>
<feColorMatrix type="matrix" values="0 0 0 0 0 0 0 0 0 0 0 0 0 0 0 0 0 0 0.168 0"/>
<feBlend mode="normal" in2="BackgroundImageFix" result="effect1_dropShadow_1_465"/>
<feColorMatrix in="SourceAlpha" type="matrix" values="0 0 0 0 0 0 0 0 0 0 0 0 0 0 0 0 0 0 127 0" result="hardAlpha"/>
<feOffset/>
<feGaussianBlur stdDeviation="1.5"/>
<feColorMatrix type="matrix" values="0 0 0 0 0 0 0 0 0 0 0 0 0 0 0 0 0 0 0.084 0"/>
<feBlend mode="normal" in2="effect1_dropShadow_1_465" result="effect2_dropShadow_1_465"/>
<feBlend mode="normal" in="SourceGraphic" in2="effect2_dropShadow_1_465" result="shape"/>
</filter>
<clipPath id="clip0_1_465">
<rect width="24" height="24" fill="white" transform="translate(69.8459 18.5371)"/>
</clipPath>
</defs>
</svg>
