<svg width="346" height="51" viewBox="0 0 346 55" fill="none" xmlns="http://www.w3.org/2000/svg">
<g filter="url(#filter0_dd_1_464)">
<rect x="0.845947" y="0.537109" width="345" height="50" rx="10" fill="white" stroke="#747775"/>
<rect width="24" height="24" transform="translate(57.8459 15.5371)" fill="white"/>
<path fill-rule="evenodd" clip-rule="evenodd" d="M80.8859 27.7985C80.8859 26.983 80.8128 26.199 80.6769 25.4462H69.8459V29.8946H76.035C75.7684 31.3321 74.9582 32.5501 73.7403 33.3655V36.251H77.4569C79.6314 34.249 80.8859 31.3008 80.8859 27.7985Z" fill="#4285F4"/>
<path fill-rule="evenodd" clip-rule="evenodd" d="M69.8458 39.0369C72.9508 39.0369 75.554 38.0072 77.4568 36.2508L73.7402 33.3653C72.7104 34.0553 71.3931 34.4631 69.8458 34.4631C66.8506 34.4631 64.3154 32.4401 63.4111 29.7219H59.569V32.7015C61.4613 36.4599 65.3504 39.0369 69.8458 39.0369Z" fill="#34A853"/>
<path fill-rule="evenodd" clip-rule="evenodd" d="M63.4112 29.7222C63.1812 29.0322 63.0505 28.2951 63.0505 27.5372C63.0505 26.7792 63.1812 26.0422 63.4112 25.3522V22.3726H59.5691C58.7903 23.9251 58.3459 25.6815 58.3459 27.5372C58.3459 29.3928 58.7903 31.1492 59.5691 32.7017L63.4112 29.7222Z" fill="#FBBC05"/>
<path fill-rule="evenodd" clip-rule="evenodd" d="M69.8458 20.611C71.5343 20.611 73.0502 21.1912 74.242 22.3307L77.5404 19.0323C75.5488 17.1767 72.9456 16.0371 69.8458 16.0371C65.3504 16.0371 61.4613 18.6142 59.569 22.3726L63.4111 25.3521C64.3154 22.6339 66.8506 20.611 69.8458 20.611Z" fill="#EA4335"/>
<path d="M109.141 28.9082C108.998 30.4251 108.438 31.61 107.461 32.4629C106.485 33.3092 105.186 33.7324 103.565 33.7324C102.432 33.7324 101.433 33.4655 100.567 32.9316C99.7073 32.3913 99.0432 31.6263 98.5745 30.6367C98.1057 29.6471 97.8616 28.498 97.842 27.1895V25.8613C97.842 24.5202 98.0797 23.3385 98.5549 22.3164C99.0302 21.2943 99.7105 20.5065 100.596 19.9531C101.488 19.3997 102.517 19.123 103.682 19.123C105.251 19.123 106.514 19.5495 107.471 20.4023C108.428 21.2552 108.985 22.4596 109.141 24.0156H106.68C106.563 22.9935 106.263 22.2578 105.781 21.8086C105.306 21.3529 104.606 21.125 103.682 21.125C102.608 21.125 101.781 21.5189 101.201 22.3066C100.628 23.0879 100.336 24.237 100.323 25.7539V27.0137C100.323 28.5501 100.596 29.722 101.143 30.5293C101.696 31.3366 102.503 31.7402 103.565 31.7402C104.535 31.7402 105.264 31.5221 105.752 31.0859C106.24 30.6497 106.55 29.9238 106.68 28.9082H109.141ZM110.684 28.1562C110.684 27.1211 110.889 26.1901 111.299 25.3633C111.709 24.5299 112.285 23.8919 113.028 23.4492C113.77 23 114.623 22.7754 115.586 22.7754C117.012 22.7754 118.168 23.2344 119.053 24.1523C119.945 25.0703 120.427 26.2878 120.498 27.8047L120.508 28.3613C120.508 29.403 120.306 30.334 119.903 31.1543C119.505 31.9746 118.933 32.6094 118.184 33.0586C117.442 33.5078 116.582 33.7324 115.606 33.7324C114.115 33.7324 112.92 33.2376 112.022 32.248C111.13 31.252 110.684 29.9271 110.684 28.2734V28.1562ZM113.057 28.3613C113.057 29.4486 113.281 30.3014 113.731 30.9199C114.18 31.5319 114.805 31.8379 115.606 31.8379C116.406 31.8379 117.028 31.5254 117.471 30.9004C117.92 30.2754 118.145 29.3607 118.145 28.1562C118.145 27.0885 117.914 26.2422 117.451 25.6172C116.996 24.9922 116.374 24.6797 115.586 24.6797C114.811 24.6797 114.196 24.9889 113.74 25.6074C113.285 26.2194 113.057 27.1374 113.057 28.3613ZM124.717 22.9707L124.785 24.1914C125.567 23.2474 126.592 22.7754 127.862 22.7754C130.062 22.7754 131.182 24.0352 131.221 26.5547V33.5371H128.848V26.6914C128.848 26.0208 128.701 25.526 128.408 25.207C128.122 24.8815 127.65 24.7188 126.992 24.7188C126.035 24.7188 125.323 25.1517 124.854 26.0176V33.5371H122.481V22.9707H124.717ZM136.621 20.4023V22.9707H138.487V24.7285H136.621V30.627C136.621 31.0306 136.699 31.3236 136.856 31.5059C137.018 31.6816 137.305 31.7695 137.715 31.7695C137.989 31.7695 138.265 31.737 138.545 31.6719V33.5078C138.005 33.6576 137.484 33.7324 136.983 33.7324C135.16 33.7324 134.248 32.7266 134.248 30.7148V24.7285H132.51V22.9707H134.248V20.4023H136.621ZM142.832 33.5371H140.459V22.9707H142.832V33.5371ZM140.313 20.2266C140.313 19.862 140.427 19.5592 140.655 19.3184C140.889 19.0775 141.221 18.957 141.651 18.957C142.08 18.957 142.412 19.0775 142.647 19.3184C142.881 19.5592 142.998 19.862 142.998 20.2266C142.998 20.5846 142.881 20.8841 142.647 21.125C142.412 21.3594 142.08 21.4766 141.651 21.4766C141.221 21.4766 140.889 21.3594 140.655 21.125C140.427 20.8841 140.313 20.5846 140.313 20.2266ZM147.627 22.9707L147.696 24.1914C148.477 23.2474 149.502 22.7754 150.772 22.7754C152.972 22.7754 154.092 24.0352 154.131 26.5547V33.5371H151.758V26.6914C151.758 26.0208 151.612 25.526 151.319 25.207C151.032 24.8815 150.56 24.7188 149.903 24.7188C148.946 24.7188 148.233 25.1517 147.764 26.0176V33.5371H145.391V22.9707H147.627ZM162.959 32.502C162.263 33.3223 161.273 33.7324 159.99 33.7324C158.845 33.7324 157.976 33.3971 157.383 32.7266C156.797 32.056 156.504 31.0859 156.504 29.8164V22.9707H158.877V29.7871C158.877 31.1283 159.434 31.7988 160.547 31.7988C161.699 31.7988 162.477 31.3854 162.881 30.5586V22.9707H165.254V33.5371H163.018L162.959 32.502ZM172.324 33.7324C170.821 33.7324 169.6 33.2604 168.662 32.3164C167.731 31.3659 167.266 30.1029 167.266 28.5273V28.2344C167.266 27.1797 167.468 26.2389 167.871 25.4121C168.281 24.5788 168.854 23.931 169.59 23.4688C170.326 23.0065 171.146 22.7754 172.051 22.7754C173.49 22.7754 174.6 23.2344 175.381 24.1523C176.169 25.0703 176.563 26.3691 176.563 28.0488V29.0059H169.658C169.73 29.8783 170.02 30.5684 170.528 31.0762C171.042 31.584 171.686 31.8379 172.461 31.8379C173.548 31.8379 174.434 31.3984 175.117 30.5195L176.397 31.7402C175.974 32.3717 175.407 32.8633 174.698 33.2148C173.994 33.5599 173.203 33.7324 172.324 33.7324ZM172.041 24.6797C171.39 24.6797 170.863 24.9076 170.459 25.3633C170.062 25.819 169.808 26.4538 169.698 27.2676H174.219V27.0918C174.167 26.2975 173.955 25.6986 173.584 25.2949C173.213 24.8848 172.699 24.6797 172.041 24.6797ZM192.676 30.2656L194.356 22.9707H196.67L193.789 33.5371H191.836L189.571 26.2812L187.344 33.5371H185.391L182.5 22.9707H184.815L186.524 30.1875L188.692 22.9707H190.479L192.676 30.2656ZM200.781 33.5371H198.408V22.9707H200.781V33.5371ZM198.262 20.2266C198.262 19.862 198.376 19.5592 198.604 19.3184C198.838 19.0775 199.17 18.957 199.6 18.957C200.03 18.957 200.362 19.0775 200.596 19.3184C200.83 19.5592 200.948 19.862 200.948 20.2266C200.948 20.5846 200.83 20.8841 200.596 21.125C200.362 21.3594 200.03 21.4766 199.6 21.4766C199.17 21.4766 198.838 21.3594 198.604 21.125C198.376 20.8841 198.262 20.5846 198.262 20.2266ZM206.348 20.4023V22.9707H208.213V24.7285H206.348V30.627C206.348 31.0306 206.426 31.3236 206.582 31.5059C206.745 31.6816 207.031 31.7695 207.442 31.7695C207.715 31.7695 207.992 31.737 208.272 31.6719V33.5078C207.731 33.6576 207.211 33.7324 206.709 33.7324C204.886 33.7324 203.975 32.7266 203.975 30.7148V24.7285H202.237V22.9707H203.975V20.4023H206.348ZM212.373 24.123C213.148 23.2246 214.128 22.7754 215.313 22.7754C217.565 22.7754 218.708 24.0612 218.74 26.6328V33.5371H216.367V26.7207C216.367 25.9915 216.208 25.4772 215.889 25.1777C215.576 24.8717 215.114 24.7188 214.502 24.7188C213.552 24.7188 212.842 25.1419 212.373 25.9883V33.5371H210V18.5371H212.373V24.123ZM237.256 31.6914C236.742 32.362 236.029 32.8698 235.117 33.2148C234.206 33.5599 233.171 33.7324 232.012 33.7324C230.821 33.7324 229.766 33.4622 228.848 32.9219C227.93 32.3815 227.22 31.61 226.719 30.6074C226.224 29.5983 225.967 28.4232 225.948 27.082V25.9688C225.948 23.8203 226.462 22.1439 227.49 20.9395C228.519 19.7285 229.955 19.123 231.797 19.123C233.379 19.123 234.636 19.5137 235.567 20.2949C236.498 21.0762 237.058 22.2025 237.246 23.6738H234.824C234.551 21.9616 233.558 21.1055 231.846 21.1055C230.739 21.1055 229.896 21.5059 229.317 22.3066C228.744 23.1009 228.448 24.2695 228.428 25.8125V26.9062C228.428 28.4427 228.75 29.6374 229.395 30.4902C230.046 31.3366 230.948 31.7598 232.1 31.7598C233.363 31.7598 234.261 31.4733 234.795 30.9004V28.1172H231.865V26.2422H237.256V31.6914ZM239.297 28.1562C239.297 27.1211 239.502 26.1901 239.912 25.3633C240.323 24.5299 240.899 23.8919 241.641 23.4492C242.383 23 243.236 22.7754 244.199 22.7754C245.625 22.7754 246.781 23.2344 247.666 24.1523C248.558 25.0703 249.04 26.2878 249.112 27.8047L249.121 28.3613C249.121 29.403 248.92 30.334 248.516 31.1543C248.119 31.9746 247.546 32.6094 246.797 33.0586C246.055 33.5078 245.196 33.7324 244.219 33.7324C242.728 33.7324 241.533 33.2376 240.635 32.248C239.743 31.252 239.297 29.9271 239.297 28.2734V28.1562ZM241.67 28.3613C241.67 29.4486 241.895 30.3014 242.344 30.9199C242.793 31.5319 243.418 31.8379 244.219 31.8379C245.02 31.8379 245.642 31.5254 246.084 30.9004C246.533 30.2754 246.758 29.3607 246.758 28.1562C246.758 27.0885 246.527 26.2422 246.065 25.6172C245.609 24.9922 244.987 24.6797 244.199 24.6797C243.425 24.6797 242.809 24.9889 242.354 25.6074C241.898 26.2194 241.67 27.1374 241.67 28.3613ZM250.684 28.1562C250.684 27.1211 250.889 26.1901 251.299 25.3633C251.709 24.5299 252.285 23.8919 253.028 23.4492C253.77 23 254.623 22.7754 255.586 22.7754C257.012 22.7754 258.168 23.2344 259.053 24.1523C259.945 25.0703 260.427 26.2878 260.498 27.8047L260.508 28.3613C260.508 29.403 260.306 30.334 259.903 31.1543C259.505 31.9746 258.933 32.6094 258.184 33.0586C257.442 33.5078 256.582 33.7324 255.606 33.7324C254.115 33.7324 252.92 33.2376 252.022 32.248C251.13 31.252 250.684 29.9271 250.684 28.2734V28.1562ZM253.057 28.3613C253.057 29.4486 253.281 30.3014 253.731 30.9199C254.18 31.5319 254.805 31.8379 255.606 31.8379C256.406 31.8379 257.028 31.5254 257.471 30.9004C257.92 30.2754 258.145 29.3607 258.145 28.1562C258.145 27.0885 257.914 26.2422 257.451 25.6172C256.996 24.9922 256.374 24.6797 255.586 24.6797C254.811 24.6797 254.196 24.9889 253.74 25.6074C253.285 26.2194 253.057 27.1374 253.057 28.3613ZM262.1 28.1758C262.1 26.5352 262.484 25.2266 263.252 24.25C264.027 23.2669 265.052 22.7754 266.328 22.7754C267.533 22.7754 268.48 23.1953 269.17 24.0352L269.278 22.9707H271.416V33.2148C271.416 34.6016 270.983 35.6953 270.117 36.4961C269.258 37.2969 268.096 37.6973 266.631 37.6973C265.856 37.6973 265.098 37.5345 264.356 37.209C263.62 36.89 263.06 36.4701 262.676 35.9492L263.799 34.5234C264.528 35.3893 265.427 35.8223 266.494 35.8223C267.282 35.8223 267.904 35.6074 268.36 35.1777C268.815 34.7546 269.043 34.1296 269.043 33.3027V32.5898C268.36 33.3516 267.448 33.7324 266.309 33.7324C265.072 33.7324 264.059 33.2409 263.272 32.2578C262.49 31.2747 262.1 29.9141 262.1 28.1758ZM264.463 28.3809C264.463 29.4421 264.678 30.2786 265.108 30.8906C265.544 31.4961 266.146 31.7988 266.914 31.7988C267.871 31.7988 268.581 31.3887 269.043 30.5684V25.9199C268.594 25.1191 267.891 24.7188 266.934 24.7188C266.153 24.7188 265.544 25.028 265.108 25.6465C264.678 26.265 264.463 27.1764 264.463 28.3809ZM276.387 33.5371H274.014V18.5371H276.387V33.5371ZM283.633 33.7324C282.129 33.7324 280.908 33.2604 279.971 32.3164C279.04 31.3659 278.574 30.1029 278.574 28.5273V28.2344C278.574 27.1797 278.776 26.2389 279.18 25.4121C279.59 24.5788 280.163 23.931 280.899 23.4688C281.634 23.0065 282.455 22.7754 283.36 22.7754C284.798 22.7754 285.908 23.2344 286.69 24.1523C287.477 25.0703 287.871 26.3691 287.871 28.0488V29.0059H280.967C281.039 29.8783 281.328 30.5684 281.836 31.0762C282.351 31.584 282.995 31.8379 283.77 31.8379C284.857 31.8379 285.742 31.3984 286.426 30.5195L287.705 31.7402C287.282 32.3717 286.716 32.8633 286.006 33.2148C285.303 33.5599 284.512 33.7324 283.633 33.7324ZM283.35 24.6797C282.699 24.6797 282.171 24.9076 281.768 25.3633C281.371 25.819 281.117 26.4538 281.006 27.2676H285.528V27.0918C285.476 26.2975 285.264 25.6986 284.893 25.2949C284.522 24.8848 284.007 24.6797 283.35 24.6797Z" fill="black" fill-opacity="0.54"/>
</g>
<defs>
<filter id="filter0_dd_1_464" x="-2.15405" y="-2.46289" width="351" height="62" filterUnits="userSpaceOnUse" color-interpolation-filters="sRGB">
<feFlood flood-opacity="0" result="BackgroundImageFix"/>
<feColorMatrix in="SourceAlpha" type="matrix" values="0 0 0 0 0 0 0 0 0 0 0 0 0 0 0 0 0 0 127 0" result="hardAlpha"/>
<feOffset dy="2"/>
<feGaussianBlur stdDeviation="1.5"/>
<feColorMatrix type="matrix" values="0 0 0 0 0 0 0 0 0 0 0 0 0 0 0 0 0 0 0.168 0"/>
<feBlend mode="normal" in2="BackgroundImageFix" result="effect1_dropShadow_1_464"/>
<feColorMatrix in="SourceAlpha" type="matrix" values="0 0 0 0 0 0 0 0 0 0 0 0 0 0 0 0 0 0 127 0" result="hardAlpha"/>
<feOffset/>
<feGaussianBlur stdDeviation="1.5"/>
<feColorMatrix type="matrix" values="0 0 0 0 0 0 0 0 0 0 0 0 0 0 0 0 0 0 0.084 0"/>
<feBlend mode="normal" in2="effect1_dropShadow_1_464" result="effect2_dropShadow_1_464"/>
<feBlend mode="normal" in="SourceGraphic" in2="effect2_dropShadow_1_464" result="shape"/>
</filter>
</defs>
</svg>
