<?xml version="1.0" encoding="utf-8"?>
<!-- Generator: Adobe Illustrator 27.2.0, SVG Export Plug-In . SVG Version: 6.00 Build 0)  -->
<svg version="1.1" id="Слой_1" xmlns="http://www.w3.org/2000/svg" xmlns:xlink="http://www.w3.org/1999/xlink" x="0px" y="0px"
	 viewBox="0 0 36.4 36.4" style="enable-background:new 0 0 36.4 36.4;" xml:space="preserve">
<style type="text/css">
	.st0{fill:#FCB831;stroke:#FCB831;stroke-width:0.3165;stroke-miterlimit:10;}
	.st1{display:none;fill:#697A21;stroke:#697A21;stroke-width:0.5104;stroke-miterlimit:10;}
	.st2{display:none;fill:#697A21;stroke:#697A21;stroke-width:0.4889;stroke-miterlimit:10;}
	.st3{fill:#697A21;stroke:#697A21;stroke-width:0.5372;stroke-miterlimit:10;}
	.st4{fill:#697A21;stroke:#697A21;stroke-width:0.5539;stroke-miterlimit:10;}
</style>
<g>
	<path class="st0" d="M2.6,3.5h6.6c0.2,0,0.4,0.1,0.4,0.3c0,0.2-0.2,0.4-0.4,0.4H2.6C1.7,4.2,0.9,5,0.9,5.9v27.9
		c0,0.9,0.7,1.7,1.7,1.7h28.3c0.9,0,1.7-0.7,1.7-1.7v-0.4c0-0.2,0.1-0.4,0.3-0.4c0.2,0,0.4,0.2,0.4,0.4v0.4c0,1.3-1.1,2.4-2.4,2.4
		H2.6c-1.3,0-2.4-1.1-2.4-2.4V5.9C0.2,4.6,1.3,3.5,2.6,3.5z"/>
	<path class="st1" d="M17.3,1.3c-3.1,0-5.6,3.2-5.6,7.1c0,3.9,2.5,7.1,5.6,7.1s5.6-3.2,5.6-7.1C22.9,4.5,20.4,1.3,17.3,1.3z
		 M17.3,16.5c-3.6,0-6.6-3.6-6.6-8.1s3-8.1,6.6-8.1s6.6,3.6,6.6,8.1S21,16.5,17.3,16.5"/>
	<path class="st1" d="M17,27.3c-8.9,0-13.2-0.6-13.2-3.9c0-2.3,2.8-5.9,7.4-7.8c0.3-0.1,0.6,0,0.7,0.3c0.1,0.3,0,0.6-0.3,0.7
		c-4,1.6-6.8,4.9-6.8,6.9c0,2.1,3.1,2.9,12.2,2.9c0.5,0,1,0,1.5,0h0c0.3,0,0.5,0.2,0.5,0.5c0,0.3-0.2,0.5-0.5,0.5
		C18.1,27.3,17.6,27.3,17,27.3"/>
	<path class="st2" d="M26.8,18.4c-0.1,0-0.2,0-0.3-0.1c-1-0.8-2.1-1.4-3.3-1.9c-0.2-0.1-0.4-0.4-0.3-0.6c0.1-0.2,0.4-0.4,0.6-0.3
		c1.3,0.5,2.5,1.2,3.5,2.1c0.2,0.2,0.2,0.5,0.1,0.7C27.1,18.3,26.9,18.4,26.8,18.4"/>
	<path class="st1" d="M25.5,30L25.5,30L25.5,30z M22.3,26.7l-1.6,4.5l4.5-1.6l9.7-9.7L32.1,17L22.3,26.7z M19.9,32.5
		c-0.1,0-0.3,0-0.4-0.2c-0.1-0.1-0.2-0.3-0.1-0.5l2-5.6c0-0.1,0.1-0.1,0.1-0.2l10.1-10.1c0.2-0.2,0.5-0.2,0.7,0l3.6,3.6
		c0.2,0.2,0.2,0.5,0,0.7L25.8,30.3c-0.1,0.1-0.1,0.1-0.2,0.1l-5.6,2C20,32.5,19.9,32.5,19.9,32.5"/>
</g>
<path class="st3" d="M23.9,28.1h-5.6v-9.8c0-0.6-0.5-1-1-1h-5.2c-0.6,0-1,0.5-1,1v9.8H9.5V12.8l9.8-7.8l9.8,7.8v2.9
	c0,0.3,0.2,0.5,0.5,0.5s0.5-0.2,0.5-0.5v-2.1l1.2,1c0.2,0.2,0.5,0.1,0.7,0l2.1-2.1c0.1-0.1,0.2-0.2,0.2-0.4s-0.1-0.3-0.2-0.4
	L19.6,0.4c-0.2-0.1-0.4-0.2-0.6,0L4.6,11.2c-0.1,0.1-0.2,0.2-0.2,0.3c0,0.1,0,0.3,0.1,0.4l2.1,2.6c0.1,0.1,0.3,0.2,0.4,0.2
	c0.1,0,0.2,0,0.3-0.1l1.2-1v9.4c-0.8,0.1-1.5,0.6-2,1.2C6.2,24.1,5.8,24,5.4,24c-1.4,0-2.6,1.2-2.6,2.6v2.1c0,0.3,0.2,0.5,0.5,0.5
	h20.5c0.3,0,0.5-0.2,0.5-0.5C24.4,28.4,24.2,28.1,23.9,28.1z M7,13.5l-1.4-1.8L19.3,1.5L33,12.2l-1.3,1.3L19.6,4
	c-0.1-0.1-0.2-0.1-0.3-0.1S19.1,4,19,4L7,13.5z M3.9,26.6c0-0.9,0.7-1.5,1.5-1.5c0.4,0,0.7,0.1,1,0.3c0.1,0.1,0.3,0.1,0.4,0.1
	s0.3-0.1,0.3-0.3c0.3-0.5,0.8-0.9,1.3-1.1v4H3.9L3.9,26.6L3.9,26.6z M12.1,28.1v-9.8h5.2V23h-1c-0.3,0-0.5,0.2-0.5,0.5
	S16,24,16.2,24h1v4.1H12.1L12.1,28.1z"/>
<path class="st3" d="M24.5,18.6c0.3,0,0.5-0.2,0.5-0.5c0-0.3-0.2-0.5-0.5-0.5h-4c-0.6,0-1,0.5-1,1v6.7c0,0.6,0.5,1,1,1h1.8
	c0.3,0,0.5-0.2,0.5-0.5c0-0.3-0.2-0.5-0.5-0.5h-1.8v-6.7L24.5,18.6L24.5,18.6z"/>
<g>
	<g>
		<path class="st3" d="M36.1,23.1c-0.3-2.8-2.6-5.1-5.5-5.4c-1.8-0.2-3.5,0.4-4.8,1.5c-1.3,1.2-2,2.8-2,4.6c0,1.7,0.7,3.4,2,4.6
			c0.8,0.8,1.7,1.6,2.4,2.4l1.4,1.6c0.1,0.1,0.2,0.2,0.4,0.2s0.3-0.1,0.4-0.2l1.4-1.6c0.7-0.8,1.5-1.6,2.3-2.4l0.2-0.2
			C35.7,26.9,36.3,25,36.1,23.1z M33.5,27.5l-0.2,0.2c-0.8,0.8-1.6,1.6-2.4,2.4l-1,1.1l-1-1.1c-0.8-0.9-1.6-1.7-2.5-2.5
			c-1.1-1-1.7-2.4-1.7-3.8c0-1.5,0.6-2.9,1.7-3.8c1-0.9,2.2-1.3,3.4-1.3c0.2,0,0.4,0,0.6,0c2.4,0.3,4.3,2.2,4.5,4.5
			C35.3,24.8,34.7,26.4,33.5,27.5z"/>
	</g>
</g>
<path class="st3" d="M30,20.7c-1.7,0-3.1,1.4-3.1,3.1c0,1.7,1.4,3.1,3.1,3.1c1.7,0,3.1-1.4,3.1-3.1C33.1,22.1,31.7,20.7,30,20.7z
	 M30,25.8c-1.1,0-2.1-0.9-2.1-2.1c0-1.1,0.9-2.1,2.1-2.1s2.1,0.9,2.1,2.1C32,24.9,31.1,25.8,30,25.8z"/>
<path class="st4" d="M22.5,14.2v-2.7c0-1.8-1.4-3.2-3.2-3.2s-3.2,1.4-3.2,3.2v2.7c0,0.3,0.2,0.5,0.5,0.5H22
	C22.3,14.7,22.5,14.5,22.5,14.2z M21.5,13.7h-4.2v-2.1c0-1.2,0.9-2.1,2.1-2.1c1.2,0,2.1,0.9,2.1,2.1L21.5,13.7L21.5,13.7z"/>
</svg>
