<?xml version="1.0" encoding="utf-8"?>
<!-- Generator: Adobe Illustrator 27.2.0, SVG Export Plug-In . SVG Version: 6.00 Build 0)  -->
<svg version="1.1" id="Слой_1" xmlns="http://www.w3.org/2000/svg" xmlns:xlink="http://www.w3.org/1999/xlink" x="0px" y="0px"
	 viewBox="0 0 36.2 36.2" style="enable-background:new 0 0 36.2 36.2;" xml:space="preserve">
<style type="text/css">
	.st0{fill:#FCB831;stroke:#FCB831;stroke-width:0.3146;stroke-miterlimit:10;}
	.st1{display:none;fill:#697A21;stroke:#697A21;stroke-width:0.5074;stroke-miterlimit:10;}
	.st2{display:none;fill:#697A21;stroke:#697A21;stroke-width:0.486;stroke-miterlimit:10;}
	.st3{fill:#697A21;}
	.st4{clip-path:url(#SVGID_00000150082489347023549210000003454486919171943602_);}
</style>
<g>
	<path class="st0" d="M2.6,3.5h2.4c0.2,0,0.4,0.1,0.4,0.3c0,0.2-0.2,0.4-0.4,0.4H2.6C1.7,4.3,0.9,5,0.9,5.9v27.7
		c0,0.9,0.7,1.7,1.7,1.7h28.1c0.9,0,1.7-0.7,1.7-1.7l0-2.7c0-0.2,0.1-0.4,0.3-0.4c0.2,0,0.4,0.2,0.4,0.4l0,2.8
		c0,1.3-1.1,2.4-2.4,2.4H2.6c-1.3,0-2.4-1.1-2.4-2.4V5.9C0.2,4.6,1.2,3.5,2.6,3.5z"/>
	<path class="st1" d="M17.2,1.3c-3.1,0-5.5,3.2-5.5,7.1c0,3.9,2.5,7.1,5.5,7.1s5.5-3.2,5.5-7.1C22.8,4.5,20.3,1.3,17.2,1.3z
		 M17.2,16.5c-3.6,0-6.6-3.6-6.6-8.1s2.9-8.1,6.6-8.1s6.6,3.6,6.6,8.1S20.8,16.5,17.2,16.5"/>
	<path class="st1" d="M16.9,27.2c-8.9,0-13.1-0.6-13.1-3.9c0-2.3,2.8-5.9,7.4-7.7c0.3-0.1,0.6,0,0.7,0.3c0.1,0.3,0,0.6-0.3,0.7
		c-4,1.6-6.7,4.9-6.7,6.8c0,2.1,3.1,2.9,12.1,2.9c0.5,0,1,0,1.5,0h0c0.3,0,0.5,0.2,0.5,0.5c0,0.3-0.2,0.5-0.5,0.5
		C18,27.2,17.5,27.2,16.9,27.2"/>
	<path class="st2" d="M26.6,18.3c-0.1,0-0.2,0-0.3-0.1c-1-0.8-2.1-1.4-3.3-1.9c-0.2-0.1-0.4-0.4-0.3-0.6c0.1-0.2,0.4-0.4,0.6-0.3
		c1.3,0.5,2.5,1.2,3.5,2.1c0.2,0.2,0.2,0.5,0.1,0.7C26.9,18.3,26.8,18.3,26.6,18.3"/>
	<path class="st1" d="M25.3,29.8L25.3,29.8L25.3,29.8z M22.2,26.6L20.6,31l4.4-1.6l9.7-9.7l-2.8-2.8L22.2,26.6z M19.8,32.4
		c-0.1,0-0.3,0-0.4-0.1c-0.1-0.1-0.2-0.3-0.1-0.5l2-5.5c0-0.1,0.1-0.1,0.1-0.2l10.1-10.1c0.2-0.2,0.5-0.2,0.7,0l3.5,3.5
		c0.2,0.2,0.2,0.5,0,0.7L25.7,30.2c-0.1,0.1-0.1,0.1-0.2,0.1l-5.5,2C19.9,32.4,19.8,32.4,19.8,32.4"/>
</g>
<path class="st3" d="M29.3,4.4c0,0.1,0,0.1,0,0.2c0,1.5,0,3,0,4.5c0,0.3-0.2,0.5-0.5,0.5c-0.1,0-0.3,0-0.4,0c0,0.8,0,1.6,0,2.4
	c0.1,0,0.1,0,0.2,0c1,0,2.1,0,3.1,0c0.2,0,0.4,0.1,0.5,0.2c0.5,0.5,0.9,0.9,1.4,1.4c0,0,0.1,0.1,0.1,0.1c0-0.4,0-0.7,0-1.1
	c0-0.5,0.2-0.7,0.7-0.7c0.3,0,0.5,0,0.8,0c0-2.6,0-5.1,0-7.7C33.2,4.4,31.2,4.4,29.3,4.4z M21.7,1.1c0,2.6,0,5.1,0,7.7c0,0,0,0,0,0
	c0.3,0,0.6,0,0.9,0c0.3,0,0.5,0.2,0.5,0.5c0,0.4,0,0.7,0,1.1c0,0,0,0.1,0,0.1c0.1-0.1,0.1-0.1,0.1-0.1c0.5-0.5,0.9-0.9,1.4-1.4
	c0.1-0.1,0.3-0.2,0.5-0.2c1,0,2.1,0,3.1,0c0.1,0,0.1,0,0.2,0c0-2.6,0-5.1,0-7.7C26.1,1.1,23.9,1.1,21.7,1.1z M29,0.2
	c0.3,0.1,0.3,0.3,0.3,0.6c0,0.9,0,1.7,0,2.6c0,0.1,0,0.1,0,0.2c0.1,0,0.1,0,0.2,0c2,0,4,0,6,0c0.2,0,0.3,0,0.4,0.2
	C35.9,3.8,36,3.9,36,4c0,2.9,0,5.7,0,8.6c0,0.3-0.2,0.5-0.5,0.5c-0.3,0-0.6,0-1,0c0,0.1,0,0.1,0,0.2c0,0.6,0,1.1,0,1.7
	c0,0.2-0.1,0.4-0.3,0.5c-0.2,0.1-0.4,0-0.5-0.1c-0.7-0.7-1.4-1.4-2.1-2.1C31.6,13,31.5,13,31.4,13c-1.1,0-2.3,0-3.4,0
	c-0.4,0-0.5-0.2-0.5-0.5c0-0.9,0-1.8,0-2.6c0-0.1,0-0.1,0-0.2c-0.1,0-0.1,0-0.1,0c-0.6,0-1.3,0-1.9,0c-0.1,0-0.2,0-0.2,0.1
	c-0.7,0.7-1.4,1.4-2.1,2.1c-0.1,0.1-0.3,0.2-0.4,0.2c-0.2,0-0.4-0.2-0.4-0.5c0-0.6,0-1.2,0-1.7c0-0.1,0-0.1,0-0.2
	c-0.2,0-0.4,0-0.6,0c-0.1,0-0.2,0-0.3,0c-0.3,0-0.5-0.1-0.6-0.3c0-2.9,0-5.9,0-8.8c0.1-0.1,0.2-0.3,0.3-0.3
	C23.7,0.2,26.3,0.2,29,0.2"/>
<path class="st3" d="M24.6,3c0-0.2,0-0.3,0-0.4c0-0.3,0.2-0.5,0.5-0.5c0.3,0,0.4,0.2,0.5,0.5c0,0.1,0,0.3,0,0.4c0.1,0,0.2,0,0.3,0
	c0.4,0,0.7,0,1.1,0c0.3,0,0.5,0.2,0.5,0.4s-0.2,0.4-0.5,0.5c0,0-0.1,0-0.1,0.1c-0.2,0.8-0.6,1.5-1.1,2.1c0.3,0.2,0.6,0.4,0.9,0.5
	c0.2,0.1,0.3,0.1,0.5,0.2c0.3,0.1,0.4,0.3,0.3,0.6c-0.1,0.3-0.3,0.4-0.6,0.3c-0.6-0.2-1.1-0.4-1.6-0.8c-0.1,0-0.1-0.1-0.1-0.1
	c-0.4,0.2-0.8,0.5-1.2,0.7c-0.2,0.1-0.4,0.2-0.7,0.3c-0.2,0.1-0.5,0-0.5-0.3c-0.1-0.2,0-0.5,0.3-0.6c0.3-0.1,0.6-0.3,0.9-0.4
	c0.2-0.1,0.3-0.2,0.5-0.3c-0.2-0.3-0.4-0.6-0.7-1c-0.1-0.1-0.1-0.2-0.1-0.3c0-0.2,0.1-0.3,0.3-0.4c0.2,0,0.4,0,0.5,0.2
	c0.1,0.2,0.3,0.4,0.4,0.6C24.9,5.4,25,5.4,25,5.5c0.4-0.5,0.7-1,0.9-1.6c-0.1,0-0.1,0-0.2,0c-0.8,0-1.6,0-2.5,0c-0.1,0-0.2,0-0.3,0
	c-0.2-0.1-0.3-0.3-0.3-0.5c0-0.2,0.2-0.4,0.5-0.4c0.4,0,0.8,0,1.3,0C24.4,3,24.5,3,24.6,3"/>
<path class="st3" d="M31.1,8.8c0.4,0,0.8,0,1.2,0C32.2,8.1,32,7.6,31.9,7c0-0.1-0.1-0.1-0.2-0.1c0,0-0.1,0.1-0.1,0.1
	C31.4,7.5,31.2,8.1,31.1,8.8z M32.6,9.7c-0.6,0-1.1,0-1.7,0c0,0.2-0.1,0.4-0.1,0.6c-0.1,0.3-0.2,0.4-0.4,0.4c-0.3,0-0.5-0.3-0.5-0.5
	c0.3-1.1,0.6-2.3,0.8-3.4c0.1-0.5,0.5-0.8,1-0.8s0.9,0.3,1,0.8c0.3,1.1,0.6,2.2,0.8,3.4c0.1,0.2-0.1,0.5-0.3,0.5
	c-0.2,0.1-0.5-0.1-0.6-0.3C32.7,10.1,32.6,9.9,32.6,9.7"/>
<g>
	<g>
		<defs>
			<rect id="SVGID_1_" x="2.6" width="33.6" height="33.5"/>
		</defs>
		<clipPath id="SVGID_00000162347495318543292890000007469554446779290297_">
			<use xlink:href="#SVGID_1_"  style="overflow:visible;"/>
		</clipPath>
		<g style="clip-path:url(#SVGID_00000162347495318543292890000007469554446779290297_);">
			<path class="st3" d="M31.8,25.6c-1.3-0.5-2.6-0.9-3.9-1.3c0.9-2.2,1.4-4.4,1.5-6.8h5.2C34.5,20.5,33.5,23.2,31.8,25.6z
				 M22.5,31.7c0.1-0.1,0.2-0.2,0.3-0.3c1.7-1.5,3.1-3.2,4.2-5.2c0.2-0.3,0.3-0.4,0.7-0.3c1,0.3,2,0.7,3.1,1
				C28.5,29.4,25.8,30.9,22.5,31.7z M20.2,24.7c1.9,0.2,3.7,0.4,5.6,0.6c-1.4,2.6-3.3,4.6-5.6,6.2L20.2,24.7L20.2,24.7z M20.2,17.5
				h7.7c0,1.6-0.3,3.2-0.8,4.7c-0.2,0.5-0.4,1-0.6,1.5c0,0.1-0.3,0.2-0.4,0.2c-2-0.3-3.9-0.5-6-0.8V17.5z M18.6,8.7
				c-1.8-0.2-3.6-0.4-5.5-0.6c1.4-2.5,3.2-4.5,5.5-6V8.7z M18.6,16h-7.7c0.1-1.7,0.4-3.3,0.9-4.8c0.2-0.5,0.4-1,0.6-1.4
				c0-0.1,0.2-0.2,0.3-0.2c2,0.2,3.9,0.5,5.9,0.8L18.6,16L18.6,16z M18.6,23.2c-2,0.2-4.1,0.5-6.2,0.7c-0.9-2-1.4-4.1-1.6-6.4h7.7
				V23.2z M18.6,31.3c-2.2-1.6-4-3.5-5.5-6c1.9-0.2,3.7-0.4,5.5-0.6V31.3z M8,26.9c0.4-0.1,0.7-0.3,1-0.4c0.8-0.2,1.5-0.5,2.3-0.7
				c0.1,0,0.4,0,0.5,0.1c1.2,2.2,2.8,4.1,4.8,5.7c0,0,0,0.1,0.1,0.1C13.2,31.1,10.4,29.5,8,26.9z M7,25.6c-1.7-2.4-2.7-5.1-2.9-8.2
				h5.2c0.2,1.2,0.3,2.3,0.6,3.5c0.3,1.1,0.7,2.2,1,3.4C9.7,24.7,8.4,25.2,7,25.6z M7,7.8c1.3,0.5,2.6,0.9,4,1.4
				C10,11.3,9.5,13.6,9.4,16H4.2C4.3,12.9,5.3,10.2,7,7.8z M16.6,1.7c-0.1,0.1-0.2,0.2-0.3,0.3c-1.8,1.5-3.3,3.3-4.4,5.3
				c-0.2,0.3-0.3,0.4-0.7,0.3c-1-0.3-2.1-0.7-3.2-1C10.4,4,13.2,2.4,16.6,1.7z M36.1,16.1l-1,0c-0.1,0.1-0.3,0.2-0.5,0.3
				c-0.2,0.1-0.4,0.1-0.6,0.1c-0.3,0-0.7-0.1-1.1-0.4L20.2,16c0,0,0-2.5-0.1-5.6c-0.2-0.2-0.3-0.3-0.4-0.6l-0.1-0.2V0.3l0.1-0.2
				C11.9-0.1,4.5,5.2,2.9,13.6c-0.8,4.1-0.1,8,2,11.6c3.1,5.1,7.7,7.8,13.6,8.3l1.6,0c9-0.4,16-7.9,16-16.8
				C36.1,16.5,36.1,16.3,36.1,16.1"/>
		</g>
	</g>
</g>
</svg>
