<?xml version="1.0" encoding="utf-8"?>
<!-- Generator: Adobe Illustrator 27.2.0, SVG Export Plug-In . SVG Version: 6.00 Build 0)  -->
<svg version="1.1" id="Слой_1" xmlns="http://www.w3.org/2000/svg" xmlns:xlink="http://www.w3.org/1999/xlink" x="0px" y="0px"
	 viewBox="0 0 36.5 36.5" style="enable-background:new 0 0 36.5 36.5;" xml:space="preserve">
<style type="text/css">
	.st0{fill:#FCB831;stroke:#FCB831;stroke-width:0.3175;stroke-miterlimit:10;}
	.st1{fill:#697A21;stroke:#697A21;stroke-width:0.616;stroke-miterlimit:10;}
</style>
<g>
	<path class="st0" d="M2.6,3.5h0.8c0.2,0,0.4,0.1,0.4,0.3c0,0.2-0.2,0.4-0.4,0.4H2.6C1.7,4.2,0.9,5,0.9,5.9v28
		c0,0.9,0.7,1.7,1.7,1.7H31c0.9,0,1.7-0.7,1.7-1.7v-9.2c0-0.2,0.1-0.4,0.3-0.4c0.2,0,0.4,0.2,0.4,0.4v9.2c0,1.3-1.1,2.4-2.4,2.4H2.6
		c-1.3,0-2.4-1.1-2.4-2.4v-28C0.2,4.6,1.3,3.5,2.6,3.5z"/>
</g>
<g>
	<g>
		<path class="st1" d="M27.7,19.3c-0.3,0-0.6,0.3-0.6,0.6v8h-8.2v-22h8.2v8c0,0.3,0.3,0.6,0.6,0.6s0.6-0.3,0.6-0.6V5.2
			c0-0.3-0.3-0.6-0.6-0.6h-8.7V0.9c0-0.2-0.1-0.4-0.2-0.5c-0.2-0.1-0.4-0.1-0.5-0.1L6.7,4.7C6.5,4.8,6.4,5,6.4,5.2v23.2
			c0,0.2,0.2,0.5,0.4,0.5l11.4,4.4c0.1,0,0.1,0,0.2,0c0.1,0,0.2,0,0.3-0.1c0.2-0.1,0.2-0.3,0.2-0.5V29h8.7c0.3,0,0.6-0.3,0.6-0.6
			v-8.6C28.2,19.5,28,19.3,27.7,19.3z M17.8,5.2v26.7L7.5,28V5.6l10.2-3.9L17.8,5.2L17.8,5.2z M36,16.4l-4.2-4.2
			c-0.2-0.2-0.6-0.2-0.8,0c-0.2,0.2-0.2,0.6,0,0.8l3.2,3.2H23c-0.3,0-0.6,0.3-0.6,0.6s0.3,0.6,0.6,0.6h11.2L31,20.6
			c-0.2,0.2-0.2,0.6,0,0.8c0.1,0.1,0.3,0.2,0.4,0.2c0.1,0,0.3-0.1,0.4-0.2l4.2-4.2C36.2,17,36.2,16.7,36,16.4z M15.8,18.9
			c0.3,0,0.6-0.3,0.6-0.6v-3c0-0.3-0.3-0.6-0.6-0.6s-0.6,0.3-0.6,0.6v3C15.3,18.7,15.5,18.9,15.8,18.9z"/>
	</g>
</g>
</svg>
