<?xml version="1.0" encoding="utf-8"?>
<!-- Generator: Adobe Illustrator 27.2.0, SVG Export Plug-In . SVG Version: 6.00 Build 0)  -->
<svg version="1.1" id="Слой_1" xmlns="http://www.w3.org/2000/svg" xmlns:xlink="http://www.w3.org/1999/xlink" x="0px" y="0px"
	 viewBox="0 0 36.4 36.4" style="enable-background:new 0 0 36.4 36.4;" xml:space="preserve">
<style type="text/css">
	.st0{fill:#FCB831;stroke:#FCB831;stroke-width:0.3168;stroke-miterlimit:10;}
	.st1{display:none;fill:#697A21;stroke:#697A21;stroke-width:0.511;stroke-miterlimit:10;}
	.st2{display:none;fill:#697A21;stroke:#697A21;stroke-width:0.4894;stroke-miterlimit:10;}
	.st3{fill:#697A21;stroke:#697A21;stroke-width:0.6248;stroke-miterlimit:10;}
</style>
<g>
	<path class="st0" d="M2.6,3.5h4.1C6.9,3.5,7,3.6,7,3.8c0,0.2-0.2,0.4-0.4,0.4H2.6C1.7,4.2,0.9,5,0.9,5.9v27.9
		c0,0.9,0.7,1.7,1.7,1.7h28.3c0.9,0,1.7-0.7,1.7-1.7V31c0-0.2,0.1-0.4,0.3-0.4c0.2,0,0.4,0.2,0.4,0.4v2.8c0,1.3-1.1,2.4-2.4,2.4H2.6
		c-1.3,0-2.4-1.1-2.4-2.4V5.9C0.2,4.6,1.3,3.5,2.6,3.5z"/>
	<path class="st1" d="M17.3,1.3c-3.1,0-5.6,3.2-5.6,7.1c0,3.9,2.5,7.1,5.6,7.1s5.6-3.2,5.6-7.1C22.9,4.5,20.4,1.3,17.3,1.3z
		 M17.3,16.5c-3.6,0-6.6-3.6-6.6-8.1s3-8.1,6.6-8.1s6.6,3.6,6.6,8.1S21,16.5,17.3,16.5"/>
	<path class="st1" d="M17.1,27.3c-8.9,0-13.2-0.6-13.2-3.9c0-2.3,2.8-5.9,7.4-7.8c0.3-0.1,0.6,0,0.7,0.3c0.1,0.3,0,0.6-0.3,0.7
		c-4,1.6-6.8,4.9-6.8,6.9c0,2.1,3.1,2.9,12.2,2.9c0.5,0,1,0,1.5,0h0c0.3,0,0.5,0.2,0.5,0.5c0,0.3-0.2,0.5-0.5,0.5
		C18.1,27.3,17.6,27.3,17.1,27.3"/>
	<path class="st2" d="M26.8,18.4c-0.1,0-0.2,0-0.3-0.1c-1-0.8-2.1-1.4-3.3-1.9c-0.2-0.1-0.4-0.4-0.3-0.6c0.1-0.2,0.4-0.4,0.6-0.3
		c1.3,0.5,2.5,1.2,3.5,2.1c0.2,0.2,0.2,0.5,0.1,0.7C27.1,18.3,27,18.4,26.8,18.4"/>
	<path class="st1" d="M25.5,30L25.5,30L25.5,30z M22.4,26.7l-1.6,4.5l4.5-1.6l9.7-9.7L32.1,17L22.4,26.7z M19.9,32.5
		c-0.1,0-0.3,0-0.4-0.2c-0.1-0.1-0.2-0.3-0.1-0.5l2-5.6c0-0.1,0.1-0.1,0.1-0.2l10.2-10.2c0.2-0.2,0.5-0.2,0.7,0l3.6,3.6
		c0.2,0.2,0.2,0.5,0,0.7L25.8,30.3c-0.1,0.1-0.1,0.1-0.2,0.1l-5.6,2C20,32.5,20,32.5,19.9,32.5"/>
</g>
<g>
	<g>
		<path class="st3" d="M19.2,18.4C19.2,18.4,19.2,18.4,19.2,18.4L19.2,18.4c0-0.1,0-0.1,0-0.2c0,0,0,0,0,0c0,0,0,0,0,0c0,0,0,0,0,0
			c0,0,0-0.1-0.1-0.1c0,0,0,0,0,0c0,0,0,0,0,0l0,0c0,0,0,0-0.1-0.1l0,0c0,0,0,0,0,0c-0.9-0.5-2-0.8-3.1-0.8c-1,0-2.1,0.2-3.1,0.8
			c-0.1,0-0.1,0.1-0.2,0.1c0,0-0.1,0-0.1,0.1c-0.8,0.5-1.5,1.2-1.9,1.9c-0.5,0.8-0.8,1.7-0.9,2.7l-1,0.6c-0.3,0.1-0.4,0.5-0.2,0.7
			c0.2,0.3,0.5,0.3,0.7,0.2l1-0.6c0.9,0.4,1.8,0.6,2.8,0.6c0.9,0,1.8-0.2,2.7-0.6c0,0,0.1,0,0.1-0.1c0.1,0,0.2-0.1,0.2-0.1
			c1-0.5,1.7-1.3,2.3-2.1C18.9,20.5,19.2,19.5,19.2,18.4C19.2,18.4,19.2,18.4,19.2,18.4L19.2,18.4z M17.5,20.7l-1-0.5l1.5-0.8
			C17.9,19.9,17.7,20.3,17.5,20.7z M13.4,18.9c0.5-0.3,1-0.5,1.6-0.6l-0.1,1.6l-1.6,0.9L13.4,18.9z M16.1,18.2c0.5,0,1,0.1,1.4,0.2
			L16,19.3L16.1,18.2z M11.5,20.6c0.2-0.3,0.4-0.6,0.7-0.9l-0.1,1.7l-1.2,0.7C11,21.5,11.2,21.1,11.5,20.6z M13,23.2
			c-0.5,0-1.1-0.1-1.6-0.3l1.2-0.7l1.5,0.8C13.8,23.2,13.4,23.2,13,23.2z M15.6,22.6l-1.7-0.9l1.6-0.9l1.4,0.8
			C16.5,22,16.1,22.3,15.6,22.6z M36,9L36,9C36,9,36,9,36,9C36,9,36,8.9,36,9C36,8.9,36,8.9,36,9c0-0.1,0-0.1,0-0.1c0,0,0,0,0,0
			c0,0,0,0,0,0c0,0,0,0,0,0c0,0,0,0,0,0c0,0,0,0,0,0c0,0,0,0,0,0l0,0c0,0,0,0,0,0c0,0,0,0,0,0c0,0,0,0,0,0c0,0,0,0,0,0c0,0,0,0,0,0
			c0,0,0,0,0,0c0,0,0,0,0,0c0,0,0,0,0,0c0,0,0,0,0,0l-14.4-8c-0.2-0.1-0.4-0.1-0.6,0l-14.4,8C6.3,8.6,6.2,8.8,6.2,9v16
			c0,0.2,0.1,0.4,0.3,0.5l14.3,8c0,0,0,0,0,0c0,0,0,0,0.1,0c0,0,0,0,0,0c0,0,0,0,0.1,0c0,0,0,0,0,0c0,0,0,0,0.1,0c0,0,0,0,0,0
			c0,0,0,0,0.1,0l0,0c0,0,0,0,0.1,0c0,0,0,0,0,0c0,0,0,0,0.1,0h0c0,0,0,0,0.1,0c0,0,0,0,0,0c0,0,0,0,0.1,0l0,0l14.3-8
			c0.2-0.1,0.3-0.3,0.3-0.5L36,9z M7.8,9l4-2.2l13.3,7.4l-2.7,1.5l-1.2,0.7L20,15.8L7.8,9z M16.3,4.3l13.3,7.4l-3.4,1.9L12.9,6.2
			L16.3,4.3z M26.8,14.5c1.1-0.6,2.2-1.2,3.3-1.9v2.2l-3.3,1.8V14.5z M21.1,1.6L34.4,9l-3.7,2.1L17.4,3.6L21.1,1.6z M7.3,9.9L20,17
			l0.5,0.3v14.8L7.3,24.7V9.9z M21.7,32.1V17.3c1.3-0.7,2.7-1.5,4.1-2.2v2.5c0,0.3,0.2,0.5,0.6,0.5c0.1,0,0.2,0,0.3-0.1l4.4-2.4
			c0.2-0.1,0.3-0.3,0.3-0.5l0,0V12c1.2-0.7,2.5-1.4,3.7-2.1v14.8L21.7,32.1z M28,20.9c-0.1,0-0.2,0-0.3,0.1l-4.2,2.3
			c-0.2,0.1-0.3,0.3-0.3,0.5l0,0v4.7c0,0.3,0.2,0.5,0.5,0.5c0.1,0,0.2,0,0.3-0.1l4.2-2.3c0.2-0.1,0.3-0.3,0.3-0.5v-4.7
			C28.5,21.2,28.3,20.9,28,20.9z M24.3,27.6v-3.5l3.1-1.7v3.5L24.3,27.6z"/>
	</g>
</g>
</svg>
