<?xml version="1.0" encoding="utf-8"?>
<!-- Generator: Adobe Illustrator 27.2.0, SVG Export Plug-In . SVG Version: 6.00 Build 0)  -->
<svg version="1.1" id="Слой_1" xmlns="http://www.w3.org/2000/svg" xmlns:xlink="http://www.w3.org/1999/xlink" x="0px" y="0px"
	 viewBox="0 0 36.5 36.5" style="enable-background:new 0 0 36.5 36.5;" xml:space="preserve">
<style type="text/css">
	.st0{fill:#FCB831;stroke:#FCB831;stroke-width:0.3182;stroke-miterlimit:10;}
	.st1{fill:#697A21;stroke:#697A21;stroke-width:0.7478;stroke-miterlimit:10;}
	.st2{fill:#697A21;stroke:#697A21;stroke-width:0.703;stroke-miterlimit:10;}
</style>
<g>
	<path class="st0" d="M2.6,3.4h4.9c0.2,0,0.4,0.1,0.4,0.3c0,0.2-0.2,0.4-0.4,0.4H2.6c-0.9,0-1.7,0.7-1.7,1.7v28
		c0,0.9,0.7,1.7,1.7,1.7h28.5c0.9,0,1.7-0.7,1.7-1.7v-1.7c0-0.2,0.1-0.4,0.3-0.4c0.2,0,0.4,0.2,0.4,0.4v1.7c0,1.3-1.1,2.4-2.4,2.4
		H2.6c-1.3,0-2.4-1.1-2.4-2.4v-28C0.2,4.5,1.3,3.4,2.6,3.4z"/>
</g>
<g>
	<g>
		<g>
			<path class="st1" d="M33.8,0.4H23c-1.3,0-2.4,1.1-2.4,2.4l0,4.5c0,0.2,0.2,0.4,0.4,0.4c0.2,0,0.4-0.2,0.4-0.4l0-4.5
				c0-0.9,0.7-1.6,1.6-1.6h10.7c0.9,0,1.6,0.7,1.6,1.6v23.6c0,0.9-0.7,1.6-1.6,1.6H23c-0.9,0-1.6-0.7-1.6-1.6v-3.5
				c0-0.2-0.2-0.4-0.4-0.4c-0.2,0-0.4,0.2-0.4,0.4v3.5c0,1.3,1.1,2.4,2.4,2.4h10.7c1.3,0,2.4-1.1,2.4-2.4V2.7
				C36.2,1.4,35.1,0.4,33.8,0.4z"/>
		</g>
	</g>
	<path class="st1" d="M17.6,4.2c-4.2-1.7-9,1.3-9.3,5.9c0,0.2,0.1,0.4,0.4,0.4c0.2,0,0.4-0.1,0.4-0.4c0.2-4,4.5-6.8,8.3-5.3
		c0.2,0.1,0.4,0,0.5-0.2S17.8,4.3,17.6,4.2z"/>
	<path class="st1" d="M16.3,6.8c0-0.2-0.1-0.4-0.3-0.4c-2.5-0.5-5,1.3-5.2,3.9c0,0.2,0.2,0.4,0.4,0.4c0.2,0,0.4-0.2,0.4-0.4
		c0.1-2.1,2.2-3.7,4.3-3.2C16.1,7.2,16.3,7,16.3,6.8z"/>
	<path class="st1" d="M16,9.1c-1.1-0.5-2.4,0.2-2.5,1.5c0,0.2,0.1,0.4,0.3,0.4c0.2,0,0.4-0.1,0.4-0.3c0.1-0.7,0.8-1.1,1.5-0.9
		c0.2,0.1,0.4,0,0.5-0.2C16.2,9.4,16.2,9.2,16,9.1z"/>
	<path class="st1" d="M31,3.4V3.2c0-0.6-0.5-1.1-1.1-1.1h-3.5c-0.6,0-1.1,0.5-1.1,1.1v0.2c0,0.6,0.5,1.1,1.1,1.1h3.5
		C30.5,4.5,31,4,31,3.4z M26,3.4V3.2c0-0.2,0.2-0.3,0.3-0.3h3.5c0.2,0,0.3,0.2,0.3,0.3v0.2c0,0.2-0.2,0.3-0.3,0.3h-3.5
		C26.2,3.8,26,3.6,26,3.4z"/>
	<path class="st1" d="M26.1,26.5c0,0.2,0.2,0.4,0.4,0.4c0,0,3.3,0,3.3,0c0.2,0,0.4-0.2,0.4-0.4c0-0.2-0.2-0.4-0.4-0.4l0,0l-3.3,0
		C26.3,26.1,26.1,26.3,26.1,26.5z"/>
	<path class="st2" d="M29.9,10.5c0.1,0.1,0.3,0.2,0.5,0l2.2-1.7c0.2-0.1,0.2-0.3,0.1-0.5c-0.1-0.2-0.3-0.2-0.5-0.1l-1.9,1.5L29.7,9
		c-0.1-0.2-0.3-0.2-0.5,0c-0.2,0.1-0.2,0.3,0,0.5L29.9,10.5z"/>
	<path class="st1" d="M30.9,12.6c1.9,0,3.5-1.6,3.5-3.5s-1.6-3.5-3.5-3.5c-1.9,0-3.5,1.6-3.5,3.5C27.4,11.1,29,12.6,30.9,12.6z
		 M30.9,6.4c1.5,0,2.8,1.2,2.8,2.8s-1.2,2.8-2.8,2.8c-1.5,0-2.8-1.2-2.8-2.8S29.4,6.4,30.9,6.4z"/>
	<path class="st1" d="M27.3,19.6c0,0.2,0.2,0.4,0.4,0.4h4.6c0.2,0,0.4-0.2,0.4-0.4c0-0.2-0.2-0.4-0.4-0.4h-4.6
		C27.4,19.3,27.3,19.4,27.3,19.6z"/>
	<path class="st1" d="M26.5,21.8h-1.7c-0.2,0-0.4,0.2-0.4,0.4c0,0.2,0.2,0.4,0.4,0.4h1.7c0.2,0,0.4-0.2,0.4-0.4
		C26.9,22,26.7,21.8,26.5,21.8z"/>
	<path class="st1" d="M32.2,21.8h-3.9c-0.2,0-0.4,0.2-0.4,0.4c0,0.2,0.2,0.4,0.4,0.4h3.9c0.2,0,0.4-0.2,0.4-0.4
		C32.6,22,32.5,21.8,32.2,21.8z"/>
	<path class="st1" d="M11.6,25.3c-0.3,0.7-0.7,1.3-1.3,1.8l-1.6,1.3C8.4,28.6,8.6,29,8.9,29c0.2,0,0.2-0.1,1.8-1.4
		c0.7-0.6,1.2-1.3,1.5-2.1c0.3-0.7,0.8-1.7,1.7-2.1c0.5-0.3,1.8-1,2.2-1.4c0.5-0.4,0.8-0.8,0.8-1.3c0-0.1-0.2-0.7-0.7-1.1
		c-0.4-0.3-0.8-0.2-1.3,0l-3.8,1.2c0.1,0,0,0,1-0.6c0.2-0.1,0.2-0.3,0.1-0.5c-0.1-0.2-0.3-0.2-0.5-0.1l-0.9,0.5
		c-0.4,0.2-0.5,0.6-0.4,1c0.2,0.4,0.5,0.5,0.9,0.4l2.5-0.8c0,0.4,0.3,1.1,0.7,1.4c-0.3,0.2-0.6,0.4-1.1,0.6
		C12.5,23.3,11.9,24.4,11.6,25.3z M14.6,20.7c0.1-0.3,0.8-0.5,1-0.5c0.1,0,0.1,0,0.2,0c0.2,0.1,0.3,0.5,0.3,0.6
		c0,0.2-0.3,0.5-0.8,0.8c-0.1,0.1-0.3,0-0.4,0l0,0c-0.2-0.2-0.4-0.5-0.4-0.7C14.6,20.8,14.6,20.7,14.6,20.7z"/>
	<path class="st1" d="M7.6,19.8c0.8-1.9,2.6-1.9,2.7-1.9l0.9,0c0.2,0,0.4-0.2,0.4-0.4c0-0.2-0.2-0.4-0.4-0.4l-0.9,0
		c-0.1,0-2.3,0-3.4,2.3L4.2,24c-0.1,0.2,0,0.4,0.1,0.5c0.2,0.1,0.4,0,0.5-0.1L7.6,19.8z"/>
	<path class="st1" d="M12,16.3l1,1.7c0.1,0.2,0.3,0.2,0.5,0.1c0.2-0.1,0.2-0.3,0.1-0.5l-1-1.7c-0.1-0.2-0.1-0.5,0.2-0.7l10.6-6.4
		c0.2-0.1,0.5-0.1,0.7,0.2l2.6,4.3l-7.9,4.8c-0.3,0.2-0.2,0.7,0.2,0.7c0.2,0-0.3,0.2,8.1-4.8l0.6,1c0.1,0.2,0.1,0.5-0.2,0.7l-10,6
		c-0.3,0.2-0.2,0.7,0.2,0.7c0.2,0-0.4,0.3,10.2-6c0.6-0.4,0.8-1.1,0.4-1.7l-3.6-5.9c-0.4-0.6-1.1-0.8-1.7-0.4l-10.6,6.4
		C11.8,15,11.6,15.8,12,16.3z"/>
	<path class="st1" d="M16.5,18.1l1.9-1.2c0.4-0.2,0.5-0.8,0.3-1.2l-0.9-1.4c-0.2-0.4-0.8-0.5-1.2-0.3l-1.9,1.2
		c-0.4,0.2-0.5,0.8-0.3,1.2l0.9,1.4C15.6,18.2,16.1,18.4,16.5,18.1z M15.1,15.9c2-1.2,1.9-1.2,2-1.2c0.1,0,0.1,0.1,0.9,1.5
		c0,0.1,0,0.1,0,0.2l0,0l-1.9,1.2c-0.1,0-0.1,0-0.2,0L15.1,16C15,16,15.1,15.9,15.1,15.9z"/>
	<path class="st1" d="M21.8,13.2l-1.4,0.9c-0.2,0.1-0.2,0.3-0.1,0.5c0.1,0.2,0.3,0.2,0.5,0.1l1.4-0.9c0.2-0.1,0.2-0.3,0.1-0.5
		C22.2,13.2,21.9,13.1,21.8,13.2z"/>
	<path class="st1" d="M22.9,12.9c0.1,0.2,0.3,0.2,0.5,0.1l0.6-0.4c0.2-0.1,0.2-0.3,0.1-0.5C24,12,23.8,12,23.6,12.1l-0.6,0.4
		C22.9,12.5,22.8,12.7,22.9,12.9z"/>
	<path class="st1" d="M22.7,10.7l-3,1.9c-0.2,0.1-0.2,0.3-0.1,0.5c0.1,0.2,0.3,0.2,0.5,0.1l3-1.9c0.2-0.1,0.2-0.3,0.1-0.5
		C23.1,10.6,22.8,10.5,22.7,10.7z"/>
</g>
</svg>
