<?xml version="1.0" encoding="utf-8"?>
<!-- Generator: Adobe Illustrator 27.2.0, SVG Export Plug-In . SVG Version: 6.00 Build 0)  -->
<svg version="1.1" id="Слой_1" xmlns="http://www.w3.org/2000/svg" xmlns:xlink="http://www.w3.org/1999/xlink" x="0px" y="0px"
	 viewBox="0 0 36.4 36.4" style="enable-background:new 0 0 36.4 36.4;" xml:space="preserve">
<style type="text/css">
	.st0{fill:#FCB831;stroke:#FCB831;stroke-width:0.3168;stroke-miterlimit:10;}
	.st1{fill:#697A21;stroke:#697A21;stroke-width:0.511;stroke-miterlimit:10;}
	.st2{fill:#697A21;stroke:#697A21;stroke-width:0.4894;stroke-miterlimit:10;}
</style>
<g>
	<path class="st0" d="M2.6,3.5h5.5c0.2,0,0.4,0.1,0.4,0.3c0,0.2-0.2,0.4-0.4,0.4H2.6C1.7,4.2,0.9,5,0.9,5.9v27.9
		c0,0.9,0.7,1.7,1.7,1.7h28.3c0.9,0,1.7-0.7,1.7-1.7v-5.7c0-0.2,0.1-0.4,0.3-0.4c0.2,0,0.4,0.2,0.4,0.4v5.7c0,1.3-1.1,2.4-2.4,2.4
		H2.6c-1.3,0-2.4-1.1-2.4-2.4V5.9C0.2,4.6,1.3,3.5,2.6,3.5z"/>
	<path class="st1" d="M17.3,1.3c-3.1,0-5.6,3.2-5.6,7.1c0,3.9,2.5,7.1,5.6,7.1s5.6-3.2,5.6-7.1C22.9,4.5,20.4,1.3,17.3,1.3z
		 M17.3,16.5c-3.6,0-6.6-3.6-6.6-8.1s3-8.1,6.6-8.1s6.6,3.6,6.6,8.1S21,16.5,17.3,16.5"/>
	<path class="st1" d="M17.1,27.3c-8.9,0-13.2-0.6-13.2-3.9c0-2.3,2.8-5.9,7.4-7.8c0.3-0.1,0.6,0,0.7,0.3c0.1,0.3,0,0.6-0.3,0.7
		c-4,1.6-6.8,4.9-6.8,6.9c0,2.1,3.1,2.9,12.2,2.9c0.5,0,1,0,1.5,0h0c0.3,0,0.5,0.2,0.5,0.5c0,0.3-0.2,0.5-0.5,0.5
		C18.1,27.3,17.6,27.3,17.1,27.3"/>
	<path class="st2" d="M26.8,18.4c-0.1,0-0.2,0-0.3-0.1c-1-0.8-2.1-1.4-3.3-1.9c-0.2-0.1-0.4-0.4-0.3-0.6c0.1-0.2,0.4-0.4,0.6-0.3
		c1.3,0.5,2.5,1.2,3.5,2.1c0.2,0.2,0.2,0.5,0.1,0.7C27.1,18.3,27,18.4,26.8,18.4"/>
	<path class="st1" d="M25.5,30L25.5,30L25.5,30z M22.4,26.7l-1.6,4.5l4.5-1.6l9.7-9.7L32.1,17L22.4,26.7z M19.9,32.5
		c-0.1,0-0.3,0-0.4-0.2c-0.1-0.1-0.2-0.3-0.1-0.5l2-5.6c0-0.1,0.1-0.1,0.1-0.2l10.2-10.2c0.2-0.2,0.5-0.2,0.7,0l3.6,3.6
		c0.2,0.2,0.2,0.5,0,0.7L25.8,30.3c-0.1,0.1-0.1,0.1-0.2,0.1l-5.6,2C20,32.5,20,32.5,19.9,32.5"/>
</g>
</svg>
