<?xml version="1.0" encoding="utf-8"?>
<!-- Generator: Adobe Illustrator 27.2.0, SVG Export Plug-In . SVG Version: 6.00 Build 0)  -->
<svg version="1.1" id="Слой_1" xmlns="http://www.w3.org/2000/svg" xmlns:xlink="http://www.w3.org/1999/xlink" x="0px" y="0px"
	 viewBox="0 0 36.4 36.8" style="enable-background:new 0 0 36.4 36.8;" xml:space="preserve">
<style type="text/css">
	.st0{fill:#FCB831;stroke:#FCB831;stroke-width:0.3202;stroke-miterlimit:10;}
	.st1{fill-rule:evenodd;clip-rule:evenodd;fill:#697A21;stroke:#697A21;stroke-width:0.6154;stroke-miterlimit:10;}
	.st2{fill-rule:evenodd;clip-rule:evenodd;fill:#697A21;stroke:#697A21;stroke-width:0.5769;stroke-miterlimit:10;}
	.st3{fill:#556B2F;stroke:#697A21;stroke-width:0.5769;stroke-miterlimit:10;}
</style>
<g>
	<path class="st0" d="M2.6,3.5h2.8c0.2,0,0.4,0.1,0.4,0.3c0,0.2-0.2,0.4-0.4,0.4H2.6C1.7,4.3,0.9,5,0.9,6v28.2
		c0,0.9,0.8,1.7,1.7,1.7h28.6c0.9,0,1.7-0.8,1.7-1.7l0,0c0-0.2,0.1-0.4,0.3-0.4c0.2,0,0.4,0.2,0.4,0.4v0c0,1.4-1.1,2.5-2.5,2.5H2.6
		c-1.4,0-2.5-1.1-2.5-2.5V6C0.2,4.6,1.3,3.5,2.6,3.5z"/>
</g>
<g>
	<g>
		<g>
			<path class="st1" d="M20.3,1.2c1.3,0,2.5,0.9,2.9,2.2c0.1,0.2,0.2,0.3,0.4,0.3H26c0.4,0,0.6,0.3,0.6,0.6v2.5
				c0,0.3-0.3,0.6-0.6,0.6H14.6c-0.4,0-0.6-0.3-0.6-0.6V4.3c0-0.3,0.3-0.6,0.6-0.6h2.4c0.2,0,0.4-0.1,0.4-0.3
				C17.8,2.1,19,1.2,20.3,1.2z M20.3,0.3c-1.6,0-2.9,1-3.6,2.5h-6.1c-1.3,0-2.4,1-2.4,2.2v25.9c0,1.3,1.1,2.2,2.4,2.2H30
				c1.3,0,2.4-1,2.4-2.2v-2.1c0-0.6-1-0.6-0.9,0v2.1c0,0.7-0.6,1.3-1.5,1.3H10.6c-0.9,0-1.5-0.6-1.5-1.3V5c0-0.7,0.6-1.3,1.5-1.3
				h2.6C13.1,3.9,13,4.1,13,4.3v2.5c0,0.8,0.7,1.5,1.5,1.5H26c0.8,0,1.5-0.7,1.5-1.5V4.3c0-0.2,0-0.4-0.1-0.6H30
				c0.9,0,1.5,0.6,1.5,1.3v3.9c0,0.7,1,0.7,0.9,0V5c0-1.3-1.1-2.2-2.4-2.2h-6.1C23.2,1.3,21.9,0.3,20.3,0.3z"/>
		</g>
	</g>
	<path class="st2" d="M20.3,3.5c0.4,0,0.8,0.4,0.8,0.8s-0.4,0.8-0.8,0.8s-0.8-0.4-0.8-0.8S19.9,3.5,20.3,3.5z M20.3,2.6
		c-0.9,0-1.7,0.8-1.7,1.7s0.8,1.7,1.7,1.7c0.9,0,1.7-0.8,1.7-1.7C22,3.4,21.2,2.6,20.3,2.6z"/>
	<path class="st2" d="M28,16.2c0.8,0,1.5,0.7,1.5,1.6c0,0.5-0.2,1-0.6,1.3c-0.1,0.1-0.2,0.3-0.2,0.5l0.6,2.4h-2.4l0.6-2.4
		c0-0.2,0-0.4-0.2-0.5c-0.4-0.3-0.6-0.8-0.7-1.3C26.5,16.9,27.2,16.2,28,16.2z M28,15.3c-1.3,0-2.4,1.1-2.4,2.4
		c0,0.6,0.4,1.2,0.8,1.6l-0.6,2.4c-0.1,0.5,0.2,1,0.8,1h2.6c0.5,0,0.9-0.5,0.8-1l-0.6-2.4c0.4-0.5,0.8-1,0.8-1.6
		C30.3,16.4,29.3,15.3,28,15.3z"/>
	<g>
		<g>
			<path class="st3" d="M28,11.4l7.3,2.5v2.6c0,5.7-2.9,9.1-7.3,11.5c-4.4-2.4-7.3-5.8-7.3-11.5v-2.6L28,11.4z M27.8,10.5l-7.8,2.7
				c-0.2,0.1-0.3,0.2-0.3,0.4v2.9c0,6.1,3.3,9.9,8,12.4c0.1,0.1,0.3,0.1,0.4,0c4.7-2.5,8-6.3,8-12.4v-2.9c0-0.2-0.1-0.4-0.3-0.4
				l-7.8-2.7C28,10.5,27.9,10.5,27.8,10.5z"/>
		</g>
	</g>
	<path class="st3" d="M11.9,13.3c-0.6,0-0.6,0.9,0,0.9h4.7c0.6,0,0.6-0.9,0-0.9H11.9z"/>
	<path class="st3" d="M11.9,15.9c-0.6,0-0.5,0.9,0,0.9h4.7c0.6,0,0.6-0.9,0-0.9C15,15.9,13.4,15.9,11.9,15.9z"/>
	<path class="st3" d="M11.9,18.5c-0.6,0-0.6,0.9,0,0.9h4.7c0.6,0,0.6-0.9,0-0.9H11.9z"/>
	<path class="st3" d="M11.9,21.2c-0.6,0-0.5,0.9,0,0.9c1.6,0,3.1,0,4.7,0c0.6,0,0.6-0.9,0-0.9C15,21.2,13.4,21.2,11.9,21.2z"/>
	<path class="st3" d="M11.9,23.8c-0.6,0-0.6,0.9,0,0.9c2.2,0,4.4,0,6.6,0c0.6,0,0.6-0.9,0-0.9C16.3,23.8,14.1,23.8,11.9,23.8z"/>
	<path class="st3" d="M11.9,26.5c-0.6,0-0.6,0.9,0,0.9c2.6,0,5.3,0,7.9,0c0.6,0,0.6-0.9,0-0.9C17.2,26.5,14.6,26.5,11.9,26.5z"/>
</g>
</svg>
