<?xml version="1.0" encoding="utf-8"?>
<!-- Generator: Adobe Illustrator 27.2.0, SVG Export Plug-In . SVG Version: 6.00 Build 0)  -->
<svg version="1.1" id="Слой_1" xmlns="http://www.w3.org/2000/svg" xmlns:xlink="http://www.w3.org/1999/xlink" x="0px" y="0px"
	 viewBox="0 0 200 200" style="enable-background:new 0 0 200 200;" xml:space="preserve">
<style type="text/css">
	.st0{fill:none;stroke:;stroke-width:13.4048;stroke-linecap:round;stroke-linejoin:round;stroke-miterlimit:1.5625;}
</style>
<path class="st0" d="M17.3,125h14.4c2,0,3.6,1.4,3.6,3.1v56.2c0,1.7-1.6,3.1-3.6,3.1H17.3c-2,0-3.6-1.4-3.6-3.1v-56.2
	C13.8,126.4,15.4,125,17.3,125z"/>
<path class="st0" d="M118,87.5h14.4c2,0,3.6,1.4,3.6,3.1v93.8c0,1.7-1.6,3.1-3.6,3.1H118c-2,0-3.6-1.4-3.6-3.1V90.6
	C114.4,88.9,116,87.5,118,87.5z"/>
<path class="st0" d="M168.3,43.8h14.4c2,0,3.6,1.4,3.6,3.1v137.5c0,1.7-1.6,3.1-3.6,3.1h-14.4c-2,0-3.6-1.4-3.6-3.1V46.9
	C164.7,45.1,166.3,43.8,168.3,43.8z"/>
<path class="st0" d="M67.7,12.5H82c2,0,3.6,1.4,3.6,3.1v168.8c0,1.7-1.6,3.1-3.6,3.1H67.7c-2,0-3.6-1.4-3.6-3.1V15.6
	C64.1,13.9,65.7,12.5,67.7,12.5z"/>
</svg>
