<?xml version="1.0" encoding="utf-8"?>
<!-- Generator: Adobe Illustrator 27.2.0, SVG Export Plug-In . SVG Version: 6.00 Build 0)  -->
<svg version="1.1" id="Слой_1" xmlns="http://www.w3.org/2000/svg" xmlns:xlink="http://www.w3.org/1999/xlink" x="0px" y="0px"
	 viewBox="0 0 222 200" style="enable-background:new 0 0 222 200;" xml:space="preserve">
<style type="text/css">
	.st0{fill:none;stroke:;stroke-width:14.375;stroke-linecap:round;stroke-linejoin:round;stroke-miterlimit:1.5625;}
</style>
<path class="st0" d="M15.9,125h16.5c2.3,0,4.1,1.4,4.1,3.1v56.2c0,1.7-1.9,3.1-4.1,3.1H15.9c-2.3,0-4.1-1.4-4.1-3.1v-56.2
	C11.8,126.4,13.7,125,15.9,125z"/>
<path class="st0" d="M131.7,87.5h16.5c2.3,0,4.1,1.4,4.1,3.1v93.8c0,1.7-1.9,3.1-4.1,3.1h-16.5c-2.3,0-4.1-1.4-4.1-3.1V90.6
	C127.5,88.9,129.4,87.5,131.7,87.5z"/>
<path class="st0" d="M189.5,43.8h16.5c2.3,0,4.1,1.4,4.1,3.1v137.5c0,1.7-1.9,3.1-4.1,3.1h-16.5c-2.3,0-4.1-1.4-4.1-3.1V46.9
	C185.4,45.1,187.2,43.8,189.5,43.8z"/>
<path class="st0" d="M73.8,12.5h16.5c2.3,0,4.1,1.4,4.1,3.1v168.8c0,1.7-1.9,3.1-4.1,3.1H73.8c-2.3,0-4.1-1.4-4.1-3.1V15.6
	C69.7,13.9,71.5,12.5,73.8,12.5z"/>
</svg>
