<?xml version="1.0" encoding="utf-8"?>
<!-- Generator: Adobe Illustrator 27.2.0, SVG Export Plug-In . SVG Version: 6.00 Build 0)  -->
<svg version="1.1" id="Слой_1" xmlns="http://www.w3.org/2000/svg" xmlns:xlink="http://www.w3.org/1999/xlink" x="0px" y="0px"
	 viewBox="0 0 225 200" style="enable-background:new 0 0 225 200;" xml:space="preserve">
<path d="M33.5,193.8H16.9c-6.9,0-12.4-4.2-12.4-9.4v-56.2c0-5.2,5.5-9.4,12.4-9.4h16.6c6.9,0,12.4,4.2,12.4,9.4v56.2
	C45.9,189.6,40.4,193.8,33.5,193.8z M149.1,193.8h-16.4c-6.9,0-12.4-4.2-12.4-9.4V90.6c0-5.2,5.5-9.4,12.4-9.4h16.6
	c6.9,0,12.4,4.2,12.4,9.4v93.8C161.6,189.6,156,193.8,149.1,193.8z M207.1,193.8h-16.6c-6.9,0-12.4-4.2-12.4-9.4V46.9
	c0-5.2,5.5-9.4,12.4-9.4h16.6c6.9,0,12.4,4.2,12.4,9.4v137.5C219.4,189.6,213.9,193.8,207.1,193.8z M91.3,193.8H74.9
	c-6.9,0-12.4-4.2-12.4-9.4V15.6c0-5.2,5.5-9.4,12.4-9.4h16.4c6.9,0,12.4,4.2,12.4,9.4v168.8C103.7,189.6,98.2,193.8,91.3,193.8z"/>
</svg>
