<?xml version="1.0" encoding="utf-8"?>
<!-- Generator: Adobe Illustrator 27.2.0, SVG Export Plug-In . SVG Version: 6.00 Build 0)  -->
<svg version="1.1" id="Слой_1" xmlns="http://www.w3.org/2000/svg" xmlns:xlink="http://www.w3.org/1999/xlink" x="0px" y="0px"
	 viewBox="0 0 19.6 24" style="enable-background:new 0 0 19.6 24;" xml:space="preserve" stroke="#556B2F" fill="#556B2F">
<g>
	<g>
		<path d="M11.3,11.8c-0.3,0.3-0.2,0.8,0.1,1.1l4.9,3.8c0,0,0,0.1,0,0.1l-19,0c-0.4,0-0.8,0.3-0.8,0.8l0,0
			c0,0.4,0.4,0.8,0.8,0.8l19,0c0,0,0,0,0,0.1l-4.9,3.8c-0.3,0.3-0.4,0.8-0.1,1.1c0.3,0.3,0.8,0.4,1.1,0.1l6.8-5.2
			c0.2-0.1,0.3-0.4,0.3-0.6c0-0.2-0.1-0.5-0.3-0.6l-6.8-5.2c-0.1-0.1-0.3-0.2-0.5-0.2C11.7,11.5,11.5,11.6,11.3,11.8z"/>
	</g>
</g>
</svg>
