<?xml version="1.0" encoding="utf-8"?>
<!-- Generator: Adobe Illustrator 27.2.0, SVG Export Plug-In . SVG Version: 6.00 Build 0)  -->
<svg version="1.1" id="Слой_1" xmlns="http://www.w3.org/2000/svg" xmlns:xlink="http://www.w3.org/1999/xlink" x="0px" y="0px"
	 viewBox="0 0 24.2 24.5" style="enable-background:new 0 0 24.2 24.5;" xml:space="preserve"
	 stroke-width="0.5" stroke="#556B2F" fill="#556B2F">
<g>
	<g>
		<path d="M23.3,10.3c-0.3-1-1.3-1.8-2.4-1.9c0.2-1.1-0.1-2.2-0.7-2.9c-0.6-0.8-1.4-1.1-2-1.3c-0.2,0-0.3-0.1-0.4-0.1
			l0,0c0,0-0.1-0.1-0.1-0.2c-0.1-0.1-0.1-0.2-0.2-0.3C17.1,3,16.2,2.1,14.9,2c-0.6-0.1-1.2,0-1.8,0.2c-1.8-0.7-3.6-0.5-4.9,0.6
			C7.7,3.3,7.3,3.9,7.1,4.6C6.4,4.7,4,5.1,3,7.3C2.8,7.7,2.7,8.1,2.6,8.5c-1,0.2-1.8,0.9-2.1,1.9c-0.5,1.5,0.8,2.8,0.9,2.9
			c0.3,0.3,0.7,0.5,1.2,0.7c0.3,1,0.6,2.1,1,3.2c0.5,1.6,1,3.3,1.5,4.8c0.2,0.5,0.5,0.9,1,1c0.5,0.2,1,0.3,1.6,0.5
			c0.2,0,0.4,0.1,0.6,0.1c0.2,0.1,0.5,0.1,0.7,0.1c0.5,0.1,1,0.2,1.4,0.2c0.1,0,0.2,0,0.3,0c0.2,0,0.4,0,0.5,0c0.2,0,0.3,0,0.5,0
			s0.4,0,0.7,0c0.2,0,0.3,0,0.5,0s0.4,0,0.5,0s0.2,0,0.3,0c0.5-0.1,1-0.1,1.4-0.2c0.2,0,0.5-0.1,0.7-0.1s0.4-0.1,0.6-0.1
			c0.5-0.1,1-0.3,1.6-0.5c0.5-0.2,0.9-0.5,1-1c0.4-1.4,1-3.1,1.5-4.8c0.3-1.1,0.7-2.2,1-3.2c0.4-0.1,0.8-0.4,1.2-0.7
			C22.6,13.1,23.8,11.9,23.3,10.3z M6.2,22.4c-0.3-0.1-0.6-0.4-0.7-0.7c-0.4-1.4-1-3.1-1.5-4.8c-0.3-1-0.6-2-0.9-2.9
			c0.6,0.1,1.3,0,1.9-0.2l2.3,8.9C7,22.7,6.6,22.5,6.2,22.4z M8,22.9l-2.4-9.2c0.2-0.1,0.4-0.2,0.6-0.3C7,13.8,7.8,14,8.6,14.2
			c0.4,0.1,0.9,0.2,1.3,0.3l0.6,8.9c-0.5-0.1-1-0.2-1.5-0.3C8.7,23.1,8.3,23,8,22.9z M11.1,23.4l-0.6-8.8h0.1c0.1,0,0.2,0,0.3,0
			c0.7,0.1,1.4,0.1,2.1,0c0.1,0,0.2,0,0.3,0h0.1l-0.6,8.8c-0.3,0-0.6,0-0.9,0C11.7,23.4,11.4,23.4,11.1,23.4z M14.9,23.1
			c-0.5,0.1-1.1,0.2-1.6,0.2l0.6-8.9c0.4-0.1,0.9-0.2,1.3-0.3c0.8-0.2,1.7-0.5,2.4-0.8c0.2,0.1,0.4,0.2,0.6,0.3l-2.4,9.2
			C15.5,23,15.2,23.1,14.9,23.1z M19.8,17c-0.5,1.6-1,3.3-1.5,4.8c-0.1,0.3-0.3,0.6-0.7,0.7c-0.4,0.1-0.8,0.3-1.2,0.4l2.3-8.9
			c0.7,0.2,1.3,0.3,1.9,0.2C20.4,15,20.1,16,19.8,17z M22.1,12.8c-0.2,0.2-0.4,0.3-0.6,0.4c-0.2,0.1-0.4,0.2-0.6,0.2
			c-0.6,0.1-1.3,0.1-2-0.1c-0.2-0.1-0.3-0.1-0.5-0.2c-0.2-0.1-0.4-0.2-0.5-0.3c-0.1,0-0.2,0-0.2,0c-0.8,0.3-1.6,0.6-2.5,0.8
			c-0.4,0.1-0.8,0.2-1.2,0.2c-0.2,0-0.4,0.1-0.5,0.1s-0.2,0-0.3,0c-0.8,0.1-1.6,0.1-2.4,0c-0.1,0-0.2,0-0.3,0c-0.2,0-0.4,0-0.5-0.1
			c-0.4-0.1-0.8-0.1-1.2-0.2c-0.8-0.2-1.7-0.5-2.5-0.8c-0.1,0-0.2,0-0.2,0c-0.2,0.1-0.4,0.2-0.5,0.3c-0.2,0.1-0.3,0.1-0.5,0.2
			c-0.7,0.2-1.4,0.2-2,0.1c-0.2,0-0.4-0.1-0.6-0.2C2.2,13.1,2,13,1.8,12.8c-0.1-0.1-1.1-1.1-0.8-2.4C1.3,9.8,1.8,9.2,2.6,9
			c0.2,0,0.3-0.1,0.5-0.1c0-0.2,0-0.3,0.1-0.5c0.1-0.3,0.1-0.6,0.3-0.9c1-2.1,3.7-2.4,3.8-2.4S7.5,5,7.5,4.9
			c0.1-0.5,0.4-1.2,1.1-1.7c1.1-1,2.8-1.1,4.4-0.4c0.1,0,0.1,0,0.2,0c0.5-0.2,1.1-0.3,1.6-0.3c1.2,0.1,1.9,1,2.3,1.5
			c0.1,0.1,0.1,0.2,0.2,0.3c-0.3,0.2-0.5,0.4-0.8,0.5c-0.6,0.3-1,0.3-1.7,0.3c-0.4,0-1,0-1.7,0.1c-1.7,0.2-3.3,0.3-4.7,1.2
			c-0.8,0.5-1.5,1.1-2.1,2c-0.2,0-0.1,0.2,0,0.3c0,0,0.1,0,0.2,0s0.2,0,0.2-0.1c0.5-0.8,1.2-1.4,1.9-1.8c1.4-0.8,2.8-1,4.5-1.1
			c0.7-0.1,1.3-0.1,1.7-0.1c0.7,0,1.2,0,1.9-0.3c0.4-0.2,0.7-0.4,1-0.6c0.5,0.1,1.4,0.3,2.1,1.2c0.5,0.7,0.8,1.8,0.5,2.7
			C20.2,8.8,20.1,9,20,9.2c-0.8,1.1-2.5,1.5-3.8,0.8c-0.1-0.1-0.2,0-0.3,0c-0.1,0.1-0.1,0.3,0.1,0.4c0.6,0.3,1.2,0.4,1.7,0.4
			c1.1,0,2.1-0.5,2.7-1.4c0.1-0.2,0.2-0.4,0.3-0.6l0,0c1,0.1,1.8,0.7,2.1,1.6C23.2,11.7,22.2,12.7,22.1,12.8z"/>
	</g>
</g>
</svg>
