<?xml version="1.0" encoding="utf-8"?>
<!-- Generator: Adobe Illustrator 27.2.0, SVG Export Plug-In . SVG Version: 6.00 Build 0)  -->
<svg version="1.1" id="Слой_1" xmlns="http://www.w3.org/2000/svg" xmlns:xlink="http://www.w3.org/1999/xlink" x="0px" y="0px"
	 viewBox="0 0 24.2 24.5" style="enable-background:new 0 0 24.2 24.5;" xml:space="preserve"
	 stroke-width="0.5" stroke="#556B2F" fill="#556B2F">
<path d="M9.8,20.2l-1.6-1.1l1.1-1.6l1.6,1.1L9.8,20.2z M9.5,16.6c-0.2-0.1-0.4-0.1-0.5,0.1l-1.6,2.2
	c-0.1,0.2-0.1,0.4,0.1,0.5L9.6,21c0.1,0,0.1,0.1,0.2,0.1c0,0,0,0,0.1,0c0.1,0,0.2-0.1,0.3-0.2l1.6-2.2c0.1-0.2,0.1-0.4-0.1-0.5
	L9.5,16.6"/>
<path d="M16.1,13.2l0.6,1.8L15,15.6l-0.7-1.8L16.1,13.2z M14.7,16.5c0,0,0.1,0,0.1,0l2.6-0.9c0.2-0.1,0.3-0.3,0.2-0.5
	l-0.9-2.6c-0.1-0.2-0.3-0.3-0.5-0.2l-2.6,0.9c-0.1,0-0.2,0.1-0.2,0.2c0,0.1,0,0.2,0,0.3l0.9,2.6C14.4,16.4,14.6,16.5,14.7,16.5"/>
<path d="M9.8,14.8l-1-1.7l1.7-1l1,1.7L9.8,14.8z M11,11.4c-0.1-0.2-0.3-0.3-0.5-0.1l-2.4,1.4C7.9,12.8,7.9,13,8,13.2
	l1.4,2.4c0.1,0.1,0.2,0.2,0.3,0.2c0.1,0,0.1,0,0.2-0.1l2.4-1.4c0.2-0.1,0.2-0.3,0.1-0.5L11,11.4"/>
<g>
	<g>
		<path d="M22.5,21.3L22,21.4c-0.1,0-0.2,0.1-0.3,0.2c-0.4,0.9-1.6,1.6-2.9,1.6c-1.3,0-2.4-0.6-2.9-1.5
			c-0.1-0.1-0.2-0.2-0.3-0.2l-0.7-0.1c-0.2,0-0.4-0.2-0.4-0.5c0-0.2,0.2-0.4,0.4-0.5l0.7-0.1c0.1,0,0.2-0.1,0.3-0.2
			c0.5-0.9,1.6-1.5,2.9-1.5c1.3,0,2.5,0.6,2.9,1.6c0.1,0.1,0.2,0.2,0.3,0.2l0.5,0.1c0.2,0,0.4,0.2,0.4,0.5
			C22.9,21.1,22.7,21.3,22.5,21.3z M7.9,23.2v-0.7h7.6c0.2,0.3,0.5,0.5,0.8,0.7H7.9z M6.1,19.6c-1.1-1.4-1.2-3.3-0.4-4.9L6,14.2
			c0.1-0.2,0.3-0.5,0.4-0.7c0-0.1,0.1-0.2,0.1-0.3c0.1-0.1,0.1-0.3,0.2-0.4c0.1-0.1,0.1-0.3,0.2-0.4c0-0.1,0.1-0.2,0.1-0.3
			C7.4,11,7.7,9.9,7.9,8.8h1.3c0,0.1,0.1,0.1,0.1,0.2l2.2,1.6c0.1,0,0.1,0.1,0.2,0.1c0,0,0,0,0.1,0c0.1,0,0.2-0.1,0.3-0.2l1.2-1.7
			h3.9c0.2,1.1,0.5,2.2,0.9,3.3c0,0.1,0.1,0.2,0.1,0.2c0.1,0.1,0.1,0.3,0.2,0.4c0.1,0.1,0.1,0.3,0.2,0.4c0,0.1,0.1,0.2,0.1,0.3
			c0.1,0.3,0.2,0.5,0.4,0.7l0.3,0.5c0.5,0.9,0.6,2,0.4,3c-0.3-0.1-0.6-0.1-0.9-0.1c-1.5,0-2.8,0.7-3.5,1.8l-0.6,0.1
			c-0.6,0.1-1.1,0.6-1.1,1.3c0,0.3,0.1,0.6,0.3,0.8H7.6L6.1,19.6z M4.9,14.7l-1.4-1.4c-0.3-0.3-0.4-0.8-0.3-1.2L4,9.9
			c0.2-0.4,0.6-0.7,1.1-0.7H7c-0.2,0.9-0.4,1.8-0.7,2.6c0,0.1-0.1,0.2-0.1,0.2c-0.1,0.1-0.1,0.3-0.2,0.4c-0.1,0.1-0.1,0.3-0.2,0.4
			c0,0.1-0.1,0.2-0.1,0.3c-0.1,0.2-0.2,0.5-0.4,0.7l-0.3,0.5C5,14.5,4.9,14.6,4.9,14.7z M4.5,16.4l-2.8-2.8
			c-0.3-0.3-0.4-0.8-0.3-1.2l1.5-3.8c0.2-0.6,0.8-1,1.5-1h2.9c0,0.3-0.1,0.5-0.1,0.8c0,0,0,0,0,0c0,0,0,0,0,0h-2
			c-0.8,0-1.5,0.5-1.8,1.2l-0.8,2.1c-0.3,0.7-0.1,1.5,0.4,2.1l1.7,1.7C4.5,15.8,4.5,16.1,4.5,16.4z M5.7,3.3c0-1.1,0.9-1.9,1.9-1.9
			c0.7,0,1.3,0.4,1.7,1L8,2.5C7.6,2.5,7.3,2.7,7.1,3C6.9,3.3,6.9,3.7,7.1,4L7.4,5l0,0.3C6.5,5.1,5.7,4.3,5.7,3.3z M9.6,3.1
			c0,0.1,0,0.1,0,0.2C9.6,4.2,9,5,8.2,5.2l0-0.3c0-0.1,0-0.1,0-0.2l-0.4-1c0-0.1,0-0.2,0-0.3C7.9,3.3,8,3.2,8.1,3.2L9.6,3.1z
			 M12.3,8.8l-0.6,0.9l-1.2-0.9H12.3z M10.4,8L11.2,7L12.7,8H10.4z M10.4,3l3.1-0.3c1.8-0.2,3.7-0.2,5.5-0.2
			c-0.1,0.7-0.5,1.2-1.1,1.5c-0.7,0.4-1.1,1.1-1.1,1.9L16.9,7c0,0.3,0.1,0.7,0.1,1h-3.3c0-0.1,0-0.3-0.2-0.3l-2.2-1.6
			C11.1,6,10.9,6,10.8,6.2L9.5,8H8C8,7.7,8,7.4,8.1,7l0.1-1c1.3-0.2,2.3-1.3,2.3-2.7C10.4,3.2,10.4,3.1,10.4,3z M22.6,19.6l-0.3,0
			c-0.4-0.7-1.1-1.2-1.9-1.5c0.3-1.2,0.1-2.5-0.5-3.6l-0.3-0.5c-0.1-0.2-0.2-0.5-0.4-0.7c0-0.1-0.1-0.2-0.1-0.3
			c-0.1-0.1-0.1-0.3-0.2-0.4c-0.1-0.1-0.1-0.3-0.2-0.4c0-0.1-0.1-0.2-0.1-0.2c-0.4-1.1-0.7-2.2-0.9-3.4c0,0,0,0,0,0
			c-0.1-0.4-0.1-0.9-0.1-1.4l-0.1-1.1c0-0.5,0.2-0.9,0.7-1.1c1-0.5,1.6-1.5,1.6-2.6c0-0.2-0.2-0.4-0.4-0.4l-0.2,0
			c-1.9,0-3.9,0-5.8,0.2l-3.3,0.3c-0.4-1-1.4-1.7-2.5-1.7C6.2,0.6,5,1.8,5,3.3C5,4.7,6,5.8,7.3,6L7.3,6.8h-3c-1,0-1.8,0.6-2.2,1.5
			l-1.5,3.8c-0.3,0.7-0.1,1.5,0.4,2.1l3.4,3.4c0.1,0.9,0.5,1.8,1,2.5l1.6,2.1c0,0,0,0,0.1,0v1.2c0,0.2,0.2,0.4,0.4,0.4h11.1v0
			c0.1,0,0.1,0,0.2,0c1.5,0,2.9-0.7,3.5-1.8l0.3,0c0.6-0.1,1.1-0.6,1.1-1.2C23.7,20.2,23.2,19.7,22.6,19.6"/>
	</g>
</g>
<path d="M20.2,21.2h0.8v-0.8h-0.8V21.2"/>
<path d="M18.6,22.4h0.8v-0.8h-0.8V22.4"/>
<path d="M18.6,20h0.8v-0.8h-0.8V20"/>
</svg>
