<?xml version="1.0" encoding="utf-8"?>
<!-- Generator: Adobe Illustrator 27.2.0, SVG Export Plug-In . SVG Version: 6.00 Build 0)  -->
<svg version="1.1" id="Слой_1" xmlns="http://www.w3.org/2000/svg" xmlns:xlink="http://www.w3.org/1999/xlink" x="0px" y="0px"
	 viewBox="0 0 24.2 24.5" style="enable-background:new 0 0 24.2 24.5;" xml:space="preserve"
	 stroke-width="0.5" stroke="#556B2F" fill="#556B2F">
<g>
	<g>
		<path d="M23.2,7.9c-0.4-0.9-1.1-1.7-2-2.1c0-1-0.5-1.9-1.2-2.6s-1.7-1-2.7-0.9C16.8,1.4,16,0.8,15,0.6S13,0.5,12.2,1
			c-0.8-0.5-1.9-0.7-2.8-0.4C8.3,0.9,7.5,1.5,7,2.4C6,2.3,5,2.6,4.3,3.3C3.5,3.9,3.1,4.9,3.1,5.9c-1,0.4-1.7,1.1-2,2
			c-0.4,0.9-0.3,2,0.1,2.9c-0.6,0.8-0.9,1.8-0.8,2.8s0.6,1.9,1.4,2.5c-0.2,1,0,2,0.6,2.8s1.4,1.4,2.4,1.5c0.3,1,0.9,1.8,1.8,2.2
			c0.9,0.5,1.9,0.5,2.8,0.2c0.7,0.7,1.6,1.1,2.6,1.1s1.9-0.4,2.6-1.1c0.9,0.3,2,0.2,2.8-0.2c0.9-0.5,1.5-1.3,1.8-2.2
			c1-0.2,1.8-0.7,2.4-1.5s0.8-1.8,0.6-2.8c0.8-0.6,1.3-1.5,1.4-2.5s-0.2-2-0.8-2.8C23.5,9.9,23.5,8.9,23.2,7.9z M23.2,13.5
			c-0.1,0.9-0.6,1.7-1.3,2.2c-0.1,0.1-0.2,0.2-0.1,0.3c0.2,0.9,0.1,1.8-0.4,2.5s-1.3,1.2-2.2,1.3c-0.1,0-0.2,0.1-0.3,0.2
			c-0.2,0.9-0.8,1.6-1.6,2c-0.8,0.4-1.7,0.5-2.5,0.1c-0.1,0-0.3,0-0.3,0.1c-0.6,0.7-1.4,1.1-2.3,1.1s-1.7-0.4-2.3-1.1
			c-0.1-0.1-0.1-0.1-0.2-0.1H9.6c-0.8,0.3-1.8,0.3-2.5-0.1c-0.8-0.4-1.4-1.1-1.6-2c0-0.1-0.1-0.2-0.3-0.2c-0.9-0.1-1.7-0.6-2.2-1.3
			c-0.5-0.7-0.7-1.6-0.4-2.5c0-0.1,0-0.3-0.1-0.3c-0.7-0.5-1.2-1.3-1.3-2.2c-0.1-0.9,0.2-1.8,0.8-2.4c0.1-0.1,0.1-0.2,0-0.4
			C1.4,9.9,1.3,9,1.7,8.2c0.3-0.8,1-1.5,1.8-1.8c0.1,0,0.2-0.2,0.2-0.3c0-0.9,0.4-1.7,1-2.3C5.4,3.2,6.2,2.9,7.1,3
			c0.1,0,0.3,0,0.3-0.2c0.4-0.8,1.1-1.4,2-1.6s1.8,0,2.5,0.5c0.1,0.1,0.2,0.1,0.4,0C13,1.2,13.9,1,14.8,1.2c0.9,0.2,1.6,0.8,2,1.6
			C16.8,2.9,17,3,17.1,3c0.9-0.1,1.8,0.2,2.4,0.7c0.7,0.6,1,1.4,1,2.3c0,0.1,0.1,0.2,0.2,0.3c0.8,0.3,1.5,1,1.8,1.8s0.3,1.8-0.2,2.5
			c-0.1,0.1,0,0.3,0,0.4C23,11.7,23.3,12.6,23.2,13.5z"/>
	</g>
</g>
<path d="M16.3,10.1L16.3,10.1c0.1-0.3,0.2-0.6,0.1-0.9c0.1-0.3,0.1-0.6,0-0.8c-0.2-0.4-0.5-0.6-0.9-0.8
	c-0.1-0.4-0.3-0.7-0.7-0.9c-0.4-0.2-0.9-0.3-1.3-0.2c-0.3-0.3-0.8-0.4-1.2-0.4c-0.5,0-0.9,0.1-1.2,0.4c-0.5-0.1-0.9,0-1.3,0.2
	C9.2,6.9,8.9,7.3,8.9,7.6C8.4,7.8,8.1,8,7.9,8.4C7.8,8.7,7.8,9,7.9,9.3c-0.1,0.3-0.1,0.6,0,0.9c-1,0.4-2.7,1.3-3.3,3.7
	c0,0.1,0,0.3,0.2,0.4c0,0,0.7,0.3,1.6,0.3c0.5,0,1.2-0.1,1.8-0.4c0.7,2.1,2.2,4.2,4,4.2s3.3-2.1,4-4.2c0.7,0.3,1.3,0.4,1.8,0.4
	c0.9,0,1.6-0.3,1.6-0.3c0.1-0.1,0.2-0.2,0.2-0.4C19,11.5,17.2,10.5,16.3,10.1z M8.5,9.1c0-0.1-0.1-0.3,0-0.4
	c0.1-0.2,0.4-0.4,0.7-0.5c0.1,0,0.3-0.2,0.2-0.3c0-0.2,0.1-0.4,0.4-0.6c0.3-0.2,0.7-0.2,1.1-0.1c0.1,0,0.2,0,0.3-0.1
	c0.2-0.2,0.5-0.3,0.9-0.3l0,0c0.4,0,0.7,0.1,0.9,0.3c0.1,0.1,0.2,0.1,0.3,0.1c0.4-0.1,0.8,0,1.1,0.1s0.4,0.3,0.4,0.6
	c0,0.2,0.1,0.3,0.2,0.3c0.3,0.1,0.6,0.3,0.7,0.5c0.1,0.1,0.1,0.3,0,0.4c-0.1,0.1-0.1,0.2,0,0.3s0.1,0.3,0,0.4c0,0.1-0.1,0.2-0.2,0.2
	l0,0c0,0,0,0-0.1,0l0,0c-0.2,0.1-0.4,0.2-0.6,0.2c-0.1,0-0.2,0-0.2,0.1c-0.1,0.1-0.2,0.2-0.3,0.2c-0.3,0.2-0.7,0.2-1.1,0.1
	c-0.1,0-0.2,0-0.3,0.1C12.7,10.9,12.4,11,12,11s-0.7-0.1-0.9-0.3c-0.1-0.1-0.1-0.1-0.2-0.1h-0.1c-0.4,0.1-0.8,0-1.1-0.1
	c-0.1,0-0.1-0.1-0.2-0.1c-0.1,0-0.1-0.1-0.2-0.1c-0.5,0-0.9-0.2-1-0.5c-0.1-0.2,0-0.4,0.1-0.5C8.6,9.4,8.6,9.2,8.5,9.1z M5.2,13.8
	c0.6-1.9,2-2.7,2.8-3c-0.2,0.5-0.2,0.9-0.2,1.4c0,0.4,0.1,0.9,0.2,1.3C6.8,14.2,5.7,14,5.2,13.8z M12.1,17.7c-1.5,0-2.9-2.1-3.5-4.1
	c-0.1-0.5-0.2-1-0.2-1.4s0.1-0.9,0.2-1.3C8.8,11,9,11,9.3,11.1c0.1,0,0.1,0.1,0.2,0.1c0.4,0.2,0.9,0.3,1.3,0.2
	c0.3,0.3,0.8,0.4,1.2,0.4l0,0c0.5,0,0.9-0.1,1.2-0.4c0.5,0.1,0.9,0,1.3-0.2c0.1-0.1,0.3-0.2,0.4-0.3c0.2,0,0.3-0.1,0.5-0.1
	c0.2,0.4,0.3,0.9,0.3,1.4c0,0.4-0.1,0.9-0.2,1.4C15.1,15.6,13.6,17.7,12.1,17.7z M16.3,13.5c0.1-0.5,0.2-0.9,0.2-1.3
	c0-0.5-0.1-1-0.2-1.4c0.8,0.3,2.2,1.1,2.8,3C18.5,14,17.4,14.2,16.3,13.5z"/>
</svg>
