<?xml version="1.0" encoding="utf-8"?>
<!-- Generator: Adobe Illustrator 27.2.0, SVG Export Plug-In . SVG Version: 6.00 Build 0)  -->
<svg version="1.1" id="Слой_1" xmlns="http://www.w3.org/2000/svg" xmlns:xlink="http://www.w3.org/1999/xlink" x="0px" y="0px"
	 viewBox="0 0 24.2 24.5" style="enable-background:new 0 0 24.2 24.5;" xml:space="preserve"
	 stroke-width="0.5" stroke="#556B2F" fill="#556B2F"
>
<style type="text/css">
</style>
<path d="M8.5,10.7c-1.1,0-1.7-0.3-2.2-0.5s-1-0.5-2-0.5s-1.5,0.2-2,0.5c-0.3,0.1-0.6,0.3-1,0.4c-0.1,0-0.3-0.1-0.3-0.2
	c0-0.1,0.1-0.2,0.2-0.2C1.5,10,1.7,9.9,2,9.8c0.5-0.3,1.1-0.5,2.2-0.5s1.7,0.3,2.2,0.5s1,0.5,2,0.5c0.9,0,1.4-0.2,1.9-0.4
	c0.1-0.1,0.3,0,0.3,0.1c0.1,0.1,0,0.3-0.1,0.3C10.1,10.5,9.5,10.7,8.5,10.7"/>
<g>
	<g>
		<path d="M9.1,19h14.2v-1.5H9.1V19z M23.5,19.5H8.8c-0.1,0-0.2-0.1-0.2-0.2v-2c0-0.1,0.1-0.2,0.2-0.2h14.7
			c0.1,0,0.2,0.1,0.2,0.2v2C23.7,19.4,23.6,19.5,23.5,19.5"/>
	</g>
</g>
<g>
	<g>
		<path d="M21.2,23.5H18c-0.6,0-1.1-0.5-1.2-1.1v-0.2c0-0.4-0.4-0.6-0.7-0.6c-0.2,0-0.4,0.2-0.4,0.4l-0.1,0.5
			c-0.1,0.6-0.6,1.1-1.2,1.1h-3.2c-0.6,0-1.1-0.5-1.2-1.1l-0.4-3.1c0-0.1,0.1-0.3,0.2-0.3c0.1,0,0.3,0.1,0.3,0.2l0.4,3.1
			c0,0.4,0.4,0.6,0.7,0.6h3.2c0.4,0,0.7-0.3,0.7-0.6l0.1-0.5c0.1-0.5,0.5-0.8,0.9-0.8c0.6,0,1.1,0.5,1.2,1.1v0.2
			c0,0.4,0.4,0.6,0.7,0.6h3.2c0.4,0,0.7-0.3,0.7-0.6l0.4-3.1c0-0.1,0.1-0.2,0.3-0.2c0.1,0,0.2,0.1,0.2,0.3l-0.4,3.1
			C22.3,23,21.8,23.5,21.2,23.5"/>
	</g>
</g>
<path d="M22,17.6c-0.1,0-0.2-0.1-0.2-0.2c0-1.5-0.6-3.7-2.2-3.7s-2.2,2.2-2.2,3.7c0,0.1-0.1,0.2-0.2,0.2
	S17,17.5,17,17.4c0-1.4,0.6-4.2,2.7-4.2s2.7,2.7,2.7,4.2C22.3,17.5,22.2,17.6,22,17.6"/>
<path d="M15.2,17.6c-0.1,0-0.2-0.1-0.2-0.2c0-1.5-0.6-3.7-2.2-3.7s-2.2,2.2-2.2,3.7c0,0.1-0.1,0.2-0.2,0.2
	c-0.1,0-0.2-0.1-0.2-0.2c0-1.4,0.6-4.2,2.7-4.2s2.7,2.7,2.7,4.2C15.4,17.5,15.3,17.6,15.2,17.6"/>
<g>
	<g>
		<path d="M2.9,0.9c-0.4,0-0.7,0.3-0.7,0.7v1.5c0,0.1,0.1,0.2,0.2,0.2h6.9c0.1,0,0.2-0.1,0.2-0.2V1.7
			C9.5,1.3,9.2,1,8.8,1H2.9V0.9z M9.3,3.9H2.4C2,3.9,1.7,3.5,1.7,3.1V1.7c0-0.7,0.6-1.2,1.2-1.2h5.9C9.5,0.5,10,1,10,1.7v1.5
			C10,3.5,9.7,3.9,9.3,3.9"/>
	</g>
</g>
<g>
	<g>
		<path d="M8.8,23.5H2.9c-1.2,0-2.2-1-2.2-2.2v-9.1c0-1.8,0.6-3.2,1.2-4.3C2.3,7,2.7,6.2,2.7,5.3V3.6
			c0-0.1,0.1-0.2,0.2-0.2c0.1,0,0.2,0.1,0.2,0.2v1.6c0,1-0.4,1.9-0.8,2.8c-0.5,1.1-1.1,2.4-1.1,4.1v9.1c0,1,0.8,1.8,1.7,1.8h5.9
			c0.5,0,0.9-0.2,1.3-0.6c0.1-0.1,0.2-0.1,0.3,0s0.1,0.2,0,0.3C10,23.2,9.4,23.5,8.8,23.5"/>
	</g>
</g>
<path d="M10.8,15.2c-0.1,0-0.2-0.1-0.2-0.2v-2.7c0-1.7-0.6-3-1.1-4.1s-0.9-2-0.9-3V3.6c0-0.1,0.1-0.2,0.2-0.2
	C8.9,3.4,9,3.5,9,3.6v1.6c0,0.9,0.4,1.7,0.8,2.6C10.4,9,11,10.3,11,12.2v2.7C11,15,10.9,15.2,10.8,15.2"/>
</svg>
