<?xml version="1.0" encoding="utf-8"?>
<!-- Generator: Adobe Illustrator 27.2.0, SVG Export Plug-In . SVG Version: 6.00 Build 0)  -->
<svg version="1.1" id="Слой_1" xmlns="http://www.w3.org/2000/svg" xmlns:xlink="http://www.w3.org/1999/xlink" x="0px" y="0px"
	 viewBox="0 0 24.2 24.5" style="enable-background:new 0 0 24.2 24.5;" xml:space="preserve"
	 stroke="#556B2F" fill="#556B2F">
<g>
	<g>
		<path class="st0" d="M12.3,7.1c-2.1,0-4-0.2-5.5-0.5C5.2,6.2,4.4,5.7,4.4,5.1c0-0.5,0.6-0.6,0.7-0.7C5.5,4.3,6,4.3,6.7,4.2
			C7.1,4.1,7.5,4.1,8,4C8,4,8,3.9,8,3.8C8.1,3,8.4,2.1,8.9,1.5c0.3-0.4,0.6-0.7,0.9-0.9c0.4-0.2,0.8-0.4,1.2-0.3c0,0,0.1,0,0.3,0
			c1.7,0,2.4,0,2.5,0c0.8,0.1,1.5,0.6,2,1.3c0.5,0.7,0.7,1.5,0.7,2.1V4c0.4,0.1,0.8,0.1,1.2,0.1c0.7,0.1,1.3,0.1,1.7,0.2
			c0.2,0.1,0.4,0.1,0.5,0.2c0.2,0.2,0.2,0.3,0.2,0.5c0,0.6-0.8,1.1-2.4,1.4C16.3,6.9,14.4,7.1,12.3,7.1z M11,0.7
			c-0.8,0-1.4,0.6-1.7,1C8.8,2.3,8.5,3.1,8.5,3.9c0,0.2-0.1,0.4-0.1,0.4c0,0.1-0.1,0.1-0.2,0.1c-0.5,0.1-1,0.1-1.4,0.2
			c-1,0.1-1.9,0.2-1.9,0.5c0,0.1,0.2,0.3,0.5,0.5C5.7,5.8,6.2,6,6.9,6.1c1.4,0.3,3.4,0.5,5.4,0.5s4-0.2,5.4-0.5
			C18.4,6,19,5.8,19.3,5.6c0.3-0.2,0.5-0.3,0.5-0.5c0-0.1-0.1-0.2-0.4-0.3c-0.4-0.1-0.9-0.2-1.6-0.2c-0.4,0-0.9-0.1-1.4-0.2
			c-0.1,0-0.2-0.1-0.2-0.2V3.7c0-0.6-0.3-1.3-0.7-1.9c-0.5-0.7-1.1-1.1-1.7-1.1c-0.1,0-1.9,0-2.5,0C11.1,0.7,11,0.7,11,0.7
			C11,0.7,11,0.7,11,0.7z"/>
	</g>
</g>
<path class="st0" d="M8,13.6c-0.1,0-0.2-0.1-0.2-0.2c0-0.1,0.1-0.2,0.2-0.2h0c0,0,0,0,0,0c0.6-0.1,1-0.4,1.1-0.9l0.2-1.1
	c0-0.1,0.1-0.2,0.3-0.2c0.1,0,0.2,0.1,0.2,0.3l-0.2,1.1C9.4,13,8.8,13.5,8,13.6C8,13.6,8,13.6,8,13.6L8,13.6C8,13.6,8,13.6,8,13.6
	C8,13.6,8,13.6,8,13.6z"/>
<g>
	<g>
		<path class="st0" d="M2.4,24.2c-0.1,0-0.2-0.1-0.2-0.2v-6c0-1.5,0.9-3,2.4-3.8c0,0,0,0,0,0C5,13.9,5.5,13.7,6,13.6c0,0,0,0,0,0
			l1.9-0.5c0.1,0,0.1,0,0.2,0c0.1,0,0.1,0.1,0.1,0.2c0.1,0.7,0.5,1.4,1.3,2c0.8,0.5,1.8,0.8,2.8,0.8c0,0,0.1,0,0.1,0
			c0.1,0,0.2,0.1,0.2,0.2c0,0.1-0.1,0.2-0.2,0.2c0,0-0.1,0-0.1,0c0,0,0,0,0,0c-1.2,0-2.3-0.3-3.1-0.9c-0.8-0.5-1.3-1.2-1.4-2L6.1,14
			c-0.5,0.1-0.9,0.3-1.3,0.5c-1.4,0.8-2.2,2.1-2.2,3.5v6C2.6,24.1,2.5,24.2,2.4,24.2z"/>
	</g>
</g>
<path class="st0" d="M6.8,22.5c-0.1,0-0.2-0.1-0.2-0.2v-3l-2-4.8c0-0.1,0-0.2,0.1-0.3C5,13.9,5.5,13.7,6,13.6c0.1,0,0.1,0,0.2,0
	c0,0,0.1,0.1,0.1,0.1c0,0.1,1.2,2.8,1.8,4.3h6.4c0.1,0,0.2,0.1,0.2,0.2c0,0.1-0.1,0.2-0.2,0.2H8c-0.1,0-0.2-0.1-0.2-0.1
	c0,0-0.5-1.1-1-2.2c-0.2-0.6-0.5-1.1-0.7-1.5c-0.1-0.2-0.2-0.4-0.2-0.5c0,0,0,0,0,0c-0.3,0.1-0.6,0.2-0.9,0.4l2,4.6c0,0,0,0.1,0,0.1
	v3.1C7,22.4,6.9,22.5,6.8,22.5z M6.3,13.8L6.3,13.8L6.3,13.8z M6.3,13.8L6.3,13.8L6.3,13.8z M6.3,13.8C6.3,13.8,6.3,13.8,6.3,13.8
	S6.3,13.8,6.3,13.8z M6.3,13.8C6.3,13.8,6.3,13.8,6.3,13.8S6.3,13.8,6.3,13.8z M6.3,13.8C6.3,13.8,6.3,13.8,6.3,13.8
	C6.3,13.8,6.3,13.8,6.3,13.8z M6.3,13.8C6.3,13.8,6.3,13.8,6.3,13.8C6.3,13.8,6.3,13.8,6.3,13.8z M6.3,13.8
	C6.3,13.8,6.3,13.8,6.3,13.8C6.3,13.8,6.3,13.8,6.3,13.8z M6.3,13.7C6.3,13.7,6.3,13.8,6.3,13.7C6.3,13.8,6.3,13.7,6.3,13.7z"/>
<path class="st0" d="M11.7,12.6C11.7,12.6,11.7,12.6,11.7,12.6c-0.8-0.1-1.5-0.5-2.2-1.1c0,0,0,0,0,0l-0.2-0.2
	c-0.5-0.5-0.8-1.1-0.9-1.8c0,0-0.1,0-0.1,0C8.1,9.4,7.9,9.2,7.9,9C7.8,8.4,7.7,8.1,7.6,7.8C7.5,7.5,7.5,7.4,7.5,7.1
	c0-0.3,0.1-0.5,0.2-0.7c0.1-0.1,0.2-0.1,0.3,0c0.1,0.1,0.1,0.2,0,0.3C8,6.7,8,6.8,8,7.1c0,0.3,0,0.4,0.1,0.7C8.1,8,8.2,8.3,8.3,8.9
	c0,0.1,0.1,0.1,0.1,0.2c0.1,0,0.2,0,0.2,0c0.1,0,0.2,0.1,0.2,0.2c0.1,0.6,0.4,1.2,0.8,1.7l0.2,0.2c0.6,0.5,1.3,0.8,1.9,0.9
	c0.1,0,0.2,0.1,0.2,0.3C11.9,12.5,11.8,12.6,11.7,12.6z"/>
<path class="st0" d="M16.8,8C16.8,8,16.8,8,16.8,8c-0.2,0-0.3-0.2-0.2-0.3c0.1-0.2,0.1-0.4,0.1-0.6c0-0.3-0.1-0.4-0.1-0.4
	c-0.1-0.1-0.1-0.2,0-0.3c0.1-0.1,0.2-0.1,0.3,0c0.1,0.1,0.2,0.4,0.2,0.7c0,0.3,0,0.5-0.1,0.7C17,7.9,16.9,8,16.8,8z"/>
<path class="st0" d="M17.3,24.1c-1,0-1.8-0.8-1.8-1.8v-3.5c0-0.1,0.1-0.2,0.2-0.2c0.1,0,0.2,0.1,0.2,0.2v3.5c0,0.7,0.6,1.3,1.3,1.3
	c0.7,0,1.3-0.6,1.3-1.3v-3.5c0-0.1,0.1-0.2,0.2-0.2c0.1,0,0.2,0.1,0.2,0.2v3.5C19.1,23.3,18.3,24.1,17.3,24.1z"/>
<g>
	<g>
		<path class="st0" d="M17.3,19.3c-0.8,0-1.6-0.2-2.3-0.5c-0.7-0.3-1.3-0.7-1.9-1.3c-0.5-0.5-1-1.2-1.3-1.9
			c-0.3-0.7-0.5-1.5-0.5-2.3c0-0.8,0.2-1.6,0.5-2.3c0.3-0.7,0.7-1.3,1.3-1.9c0.5-0.5,1.2-1,1.9-1.3c0.7-0.3,1.5-0.5,2.3-0.5
			c0.8,0,1.6,0.2,2.3,0.5c0.7,0.3,1.3,0.7,1.9,1.3c0.5,0.5,1,1.2,1.3,1.9c0.3,0.7,0.5,1.5,0.5,2.3c0,0.8-0.2,1.6-0.5,2.3
			c-0.3,0.7-0.7,1.3-1.3,1.9c-0.5,0.5-1.2,1-1.9,1.3C18.9,19.1,18.1,19.3,17.3,19.3z M17.3,7.9c-3,0-5.4,2.4-5.4,5.4
			c0,3,2.4,5.4,5.4,5.4s5.4-2.4,5.4-5.4C22.7,10.4,20.3,7.9,17.3,7.9z"/>
	</g>
</g>
<path class="st0" d="M17.3,16.1c-1,0-1.9-0.3-2.7-0.7c-0.8-0.5-1.4-1.1-1.9-1.9c0-0.1,0-0.2,0-0.2c0.4-0.8,1.1-1.4,1.9-1.9
	c0.8-0.5,1.7-0.7,2.7-0.7c1,0,1.9,0.3,2.7,0.7c0.8,0.5,1.4,1.1,1.9,1.9c0,0.1,0,0.2,0,0.2c-0.4,0.8-1.1,1.4-1.9,1.9
	C19.2,15.9,18.2,16.1,17.3,16.1z M13.2,13.4c0.8,1.4,2.4,2.3,4.1,2.3c1.7,0,3.3-0.9,4.1-2.3c-0.8-1.4-2.4-2.3-4.1-2.3
	C15.6,11.1,14,11.9,13.2,13.4z"/>
<path class="st0" d="M17.3,14.9c-0.9,0-1.6-0.7-1.6-1.6c0-0.9,0.7-1.6,1.6-1.6c0.9,0,1.6,0.7,1.6,1.6C18.8,14.2,18.1,14.9,17.3,14.9
	z M17.3,12.3c-0.6,0-1.1,0.5-1.1,1.1c0,0.6,0.5,1.1,1.1,1.1c0.6,0,1.1-0.5,1.1-1.1C18.4,12.8,17.9,12.3,17.3,12.3z"/>
</svg>
