<?xml version="1.0" encoding="utf-8"?>
<!-- Generator: Adobe Illustrator 27.2.0, SVG Export Plug-In . SVG Version: 6.00 Build 0)  -->
<svg version="1.1" id="Слой_1" xmlns="http://www.w3.org/2000/svg" xmlns:xlink="http://www.w3.org/1999/xlink" x="0px" y="0px"
	 viewBox="0 0 24.2 24.5" style="enable-background:new 0 0 24.2 24.5;" xml:space="preserve"
	 stroke-width="0.2
" stroke="#556B2F" fill="#556B2F">
<g>
	<g>
		<g>

			<g>
				<path d="M16,2.6c-1.5,0-3,0.9-4.4,2.5C10.4,3.6,9,2.6,7.4,2.6C3.8,2.6,0.9,8,0.3,12c0,0.1,0,0.2,0,0.2c0,0.1,0.1,0.1,0.2,0.2
					l2.6,1.4c0.1,0,0.1,0,0.2,0c0.1,0,0.1,0,0.2-0.1l2.7-1.6L8,13.3c-0.1,0.4-0.1,0.9-0.1,1.3l-1.5-0.9c-0.1,0-0.1-0.1-0.2-0.1
					S6,13.7,6,13.7l-2.7,1.6L0.9,14H0.8H0.7H0.6H0.5c0,0-0.1,0-0.1,0.1c0,0,0,0-0.1,0.1v0.1v0.1c-0.1,0.5-0.1,1.1-0.2,1.7
					c0,0.3,0,0.7,0.1,1c0,0.3,0.1,0.7,0.2,1s0.2,0.6,0.3,0.9s0.3,0.6,0.5,0.9s0.4,0.6,0.6,0.8C2,21,2.2,21.2,2.5,21.4
					C2.7,21.6,3,21.8,3.3,22s0.6,0.4,0.8,0.5c0.3,0.2,0.6,0.3,0.9,0.4s0.6,0.2,1,0.3c0.3,0.1,0.7,0.1,1,0.1s0.7,0,1,0s0.7-0.1,1-0.1
					c0.3-0.1,0.6-0.2,1-0.3c0.3-0.1,0.6-0.2,0.9-0.4c0.3-0.2,0.6-0.3,0.8-0.5c0.3,0.2,0.6,0.4,1,0.5c0.3,0.2,0.7,0.3,1,0.4
					s0.7,0.2,1.1,0.3s0.7,0.1,1.1,0.1s0.7,0,1.1,0s0.7-0.1,1.1-0.2s0.7-0.2,1-0.3c0.3-0.1,0.7-0.3,1-0.5s0.6-0.4,0.9-0.6
					s0.6-0.4,0.8-0.7c0.3-0.3,0.5-0.5,0.7-0.8s0.4-0.6,0.6-0.9s0.3-0.6,0.5-1c0.1-0.3,0.3-0.7,0.4-1c0.1-0.4,0.2-0.7,0.2-1.1
					s0.1-0.7,0.1-1.1C24.1,10.8,20.7,2.6,16,2.6z M6,11.4L3.2,13l-2.1-1.2c0.7-3.6,3.2-8.5,6.3-8.5c2.8,0,5.4,4.4,6.2,8.1l0,0
					c0.1,0.4,0.1,0.7,0.2,1.1l-2.1-0.9c-0.1,0-0.1,0-0.2,0c-0.1,0-0.1,0-0.2,0.1L9.1,13l-0.4-0.2l0,0l-2.3-1.4
					c-0.1,0-0.1-0.1-0.2-0.1C6.1,11.3,6,11.4,6,11.4L6,11.4z M14.6,15.5c0-0.1,0-0.1-0.1-0.2c0-0.1-0.1-0.1-0.2-0.1l-2.2-0.9
					c0.1-0.4,0.3-0.8,0.6-1.2l1.3,0.6h0.1h0.1h0.1h0.1c0,0,0.1,0,0.1-0.1c0,0,0-0.1,0.1-0.1v-0.1v-0.1c0-0.5-0.1-1-0.2-1.5
					c0.5-0.2,1-0.3,1.6-0.3c0.1,0,0.3,0,0.4,0s0.3,0,0.4,0.1c0.1,0,0.3,0.1,0.4,0.1s0.2,0.1,0.4,0.1s0.2,0.1,0.4,0.2
					c0.1,0.1,0.2,0.1,0.3,0.2c0.1,0.1,0.2,0.2,0.3,0.2c0.1,0.1,0.2,0.2,0.3,0.3c0.1,0.1,0.2,0.2,0.3,0.3s0.2,0.2,0.2,0.3
					c0.1,0.1,0.1,0.2,0.2,0.3s0.1,0.2,0.2,0.4c0,0.1,0.1,0.2,0.1,0.4c0,0.1,0.1,0.3,0.1,0.4c0,0.1,0,0.3,0.1,0.4c0,0.1,0,0.3,0,0.4
					c0,0.1,0,0.3,0,0.4c0,0.1,0,0.3-0.1,0.4c0,0.1-0.1,0.3-0.1,0.4s-0.1,0.2-0.1,0.4c-0.1,0.1-0.1,0.2-0.2,0.4
					c-0.1,0.1-0.1,0.2-0.2,0.3c-0.1,0.1-0.2,0.2-0.2,0.3s-0.2,0.2-0.3,0.3c-0.1,0.1-0.2,0.2-0.3,0.3c-0.1,0.1-0.2,0.2-0.3,0.2
					c-0.1,0.1-0.2,0.1-0.3,0.2c-0.1,0.1-0.2,0.1-0.4,0.2c-0.1,0.1-0.2,0.1-0.4,0.1c-0.1,0-0.3,0.1-0.4,0.1s-0.3,0-0.4,0.1
					c-0.1,0-0.3,0-0.4,0c-0.7,0-1.3-0.2-1.9-0.5c0.4-0.9,0.6-1.9,0.6-2.9C14.6,15.8,14.6,15.7,14.6,15.5z M8.6,15.1
					c0-0.4,0-0.9,0.1-1.3l0.1,0.1C8.9,13.9,8.9,14,9,14s0.1,0,0.2-0.1l2.3-1.3l0.4,0.2c-0.3,0.4-0.5,0.8-0.6,1.3c0,0,0,0-0.1,0
					l-2.3,1.3L8.6,15.1L8.6,15.1z M0.9,16c0-0.3,0-0.6,0.1-1l2.1,1.1c0.1,0,0.1,0,0.2,0s0.1,0,0.2-0.1l2.7-1.6L8.9,16
					C9,16,9,16.1,9.1,16.1s0.1,0,0.2-0.1l2.3-1.3l2.3,1c0,0.1,0,0.1,0,0.2c0,0.2,0,0.4,0,0.6s-0.1,0.4-0.1,0.6s-0.1,0.4-0.2,0.6
					c-0.1,0.2-0.1,0.4-0.2,0.6c-0.1,0.2-0.2,0.4-0.3,0.6s-0.2,0.4-0.3,0.5c-0.1,0.2-0.2,0.3-0.4,0.5c-0.1,0.2-0.3,0.3-0.4,0.5
					c-0.1,0.1-0.3,0.3-0.5,0.4s-0.3,0.3-0.5,0.4s-0.4,0.2-0.5,0.3c-0.2,0.1-0.4,0.2-0.6,0.3S9.4,22,9.2,22c-0.2,0.1-0.4,0.1-0.6,0.2
					c-0.2,0-0.4,0.1-0.6,0.1c-0.2,0-0.4,0-0.6,0s-0.4,0-0.6,0s-0.4-0.1-0.6-0.1S5.8,22.1,5.6,22S5.2,21.9,5,21.8s-0.4-0.2-0.6-0.3
					S4,21.4,3.8,21.3s-0.3-0.2-0.5-0.4c-0.2-0.1-0.3-0.3-0.5-0.4c-0.1-0.1-0.3-0.3-0.4-0.5c-0.1-0.2-0.3-0.3-0.4-0.5
					S1.8,19.1,1.7,19c-0.1-0.2-0.2-0.4-0.3-0.6c-0.1-0.2-0.2-0.4-0.2-0.6c-0.1-0.2-0.1-0.4-0.2-0.6c0-0.2,0-0.4,0-0.6
					C0.9,16.4,0.9,16.2,0.9,16z M16,22.4c-0.7,0-1.3-0.1-1.9-0.3c-0.6-0.2-1.2-0.4-1.8-0.8c0.6-0.5,1.1-1.1,1.5-1.8
					c0.1,0,0.2,0.1,0.3,0.1s0.2,0.1,0.3,0.1s0.2,0.1,0.3,0.1s0.2,0.1,0.3,0.1s0.2,0,0.3,0.1c0.1,0,0.2,0,0.3,0s0.2,0,0.3,0
					s0.2,0,0.3,0c0.1,0,0.2,0,0.3,0c0.1,0,0.2,0,0.3,0c0.1,0,0.2,0,0.3,0c0.1,0,0.2,0,0.3-0.1c0.1,0,0.2-0.1,0.3-0.1
					c0.1,0,0.2-0.1,0.3-0.1c0.1,0,0.2-0.1,0.3-0.1c0.1,0,0.2-0.1,0.3-0.1c0.1,0,0.2-0.1,0.3-0.2c0.1-0.1,0.2-0.1,0.2-0.2
					c0.1-0.1,0.2-0.1,0.2-0.2c0.1-0.1,0.2-0.1,0.2-0.2c0.1-0.1,0.1-0.1,0.2-0.2s0.1-0.1,0.2-0.2s0.1-0.2,0.2-0.2
					c0.1-0.1,0.1-0.2,0.2-0.2c0.1-0.1,0.1-0.2,0.2-0.3c0-0.1,0.1-0.2,0.1-0.3c0-0.1,0.1-0.2,0.1-0.3c0-0.1,0.1-0.2,0.1-0.3
					c0-0.1,0.1-0.2,0.1-0.3c0-0.1,0-0.2,0.1-0.3c0-0.1,0-0.2,0-0.3s0-0.2,0-0.3s0-0.2,0-0.3s0-0.2,0-0.3s0-0.2,0-0.3s0-0.2,0-0.3
					s0-0.2-0.1-0.3c0-0.1-0.1-0.2-0.1-0.3s-0.1-0.2-0.1-0.3s-0.1-0.2-0.1-0.3s-0.1-0.2-0.1-0.3s-0.1-0.2-0.2-0.3s-0.1-0.2-0.2-0.2
					s-0.1-0.2-0.2-0.2c-0.1-0.1-0.1-0.2-0.2-0.2c-0.1-0.1-0.1-0.1-0.2-0.2c-0.1-0.1-0.1-0.1-0.2-0.2c-0.1-0.1-0.2-0.1-0.2-0.2
					c-0.1-0.1-0.2-0.1-0.2-0.2c-0.1-0.1-0.2-0.1-0.3-0.2c-0.1,0-0.2-0.1-0.3-0.1c-0.1,0-0.2-0.1-0.3-0.1c-0.1,0-0.2-0.1-0.3-0.1
					c-0.1,0-0.2-0.1-0.3-0.1c-0.1,0-0.2,0-0.3-0.1c-0.1,0-0.2,0-0.3,0c-0.1,0-0.2,0-0.3,0c-0.1,0-0.2,0-0.3,0c-0.1,0-0.2,0-0.3,0
					c-0.1,0-0.2,0-0.3,0s-0.2,0-0.3,0s-0.2,0-0.3,0.1c-0.1,0-0.2,0.1-0.3,0.1s-0.2,0.1-0.3,0.1c-0.5-1.8-1.2-3.5-2.2-5.1
					C13,4.7,14.4,3.4,16,3.4c4,0,7.3,7.7,7.3,11.7c0,0.2,0,0.5,0,0.7s-0.1,0.5-0.1,0.7S23.1,17,23,17.2s-0.2,0.5-0.2,0.7
					c-0.1,0.2-0.2,0.4-0.3,0.6c-0.1,0.2-0.2,0.4-0.4,0.6c-0.1,0.2-0.3,0.4-0.4,0.6s-0.3,0.4-0.5,0.5c-0.2,0.2-0.3,0.3-0.5,0.5
					s-0.4,0.3-0.6,0.4s-0.4,0.3-0.6,0.4s-0.4,0.2-0.7,0.3c-0.2,0.1-0.4,0.2-0.7,0.2c-0.2,0.1-0.5,0.1-0.7,0.2
					c-0.2,0-0.5,0.1-0.7,0.1C16.5,22.4,16.2,22.4,16,22.4z"/>
			</g>
		</g>
	</g>
</g>
<path d="M7.5,20.5c-0.5,0.1-0.9,0.1-1.3,0S5.3,20.2,5,20c-0.5-0.3-0.9-0.7-1.2-1.3l-0.1-0.1l-0.1-0.1c0,0-0.1,0-0.2,0
	c-0.1,0-0.1,0-0.1,0l-0.1,0.1l-0.1,0.1c0,0.1,0,0.1,0,0.2s0,0.1,0,0.1c0.1,0.2,0.2,0.3,0.3,0.5s0.2,0.3,0.4,0.4
	c0.1,0.1,0.3,0.3,0.4,0.4c0.2,0.1,0.3,0.2,0.5,0.3S5,21,5.2,21c0.2,0.1,0.4,0.1,0.6,0.2c0.2,0,0.4,0.1,0.6,0.1s0.4,0,0.6,0
	s0.4,0,0.7,0c0.1,0,0.1,0,0.2,0L8,21.2l0.1-0.1c0-0.1,0-0.1,0-0.2s0-0.1-0.1-0.2l-0.1-0.1l-0.1-0.1C7.6,20.5,7.5,20.5,7.5,20.5z"/>
<path d="M9.1,20.4L9.1,20.4c-0.1,0-0.2,0-0.2,0s-0.1,0-0.1,0.1l-0.1,0.1c0,0,0,0.1,0,0.2s0,0.1,0,0.2c0,0,0,0.1,0.1,0.1l0.1,0.1
	c0,0,0.1,0,0.2,0h0.1c0.1,0,0.1,0,0.2,0c0,0,0.1,0,0.1-0.1L9.6,21c0,0,0-0.1,0-0.2s0-0.1,0-0.2c0,0,0-0.1-0.1-0.1l-0.1-0.1
	C9.2,20.4,9.1,20.4,9.1,20.4z"/>
</svg>
