<?xml version="1.0" encoding="utf-8"?>
<!-- Generator: Adobe Illustrator 27.2.0, SVG Export Plug-In . SVG Version: 6.00 Build 0)  -->
<svg version="1.1" id="Слой_1" xmlns="http://www.w3.org/2000/svg" xmlns:xlink="http://www.w3.org/1999/xlink" x="0px" y="0px"
	 viewBox="0 0 24.2 24.5" style="enable-background:new 0 0 24.2 24.5;" xml:space="preserve"
	 stroke-width="0.3" stroke="#556B2F" fill="#556B2F">
<g>
	<g>
		<path class="st0" d="M0.9,23.3c0.5-0.1,2.1-0.1,2.5,0l0.3,0.1c0.5,0.1,1,0.2,1.5,0.2c0.2,0,0.4-0.1,0.6-0.1c0.4-0.1,0.8-0.1,1,0
			c0.1,0,0.1,0.1,0.1,0.1c0.1,0.1,0.3,0.1,0.5,0.2c0.1,0,0.2,0,0.2,0.1C7.7,23.9,7.9,24,8,24c0.2,0,0.5-0.1,0.6-0.4
			c0.1-0.2,0.1-0.2,0.2-0.3c0.1-0.1,0.2-0.1,0.4-0.1c0.6,0,0.9,0.1,1.5,0.3l0.2,0.1c0.3,0.1,0.6,0,0.9,0c0.2,0,0.3,0,0.5,0
			c0.3,0,0.5,0.1,0.8,0.2c0.4,0.1,0.9,0.3,1.4,0.1c0.4-0.1,0.7-0.3,1-0.5c0.3-0.3,0.6-0.4,0.8-0.4c0.1,0,0.3,0.1,0.4,0.2
			c0.1,0,0.1,0.1,0.2,0.1c0.8,0.4,1.7,0.3,2.5,0.2c0.1,0,0.3,0,0.4,0c1.1-0.1,2.2,0,3.3,0.2c0.2,0.1,0.4-0.1,0.4-0.3
			c0-0.2-0.1-0.4-0.3-0.4c-1.2-0.3-2.3-0.3-3.5-0.3c-0.1,0-0.3,0-0.4,0c-0.7,0.1-1.5,0.1-2.1-0.1c-0.1,0-0.1-0.1-0.2-0.1
			c-0.2-0.1-0.4-0.2-0.6-0.3c-0.6-0.1-1,0.3-1.4,0.5c-0.2,0.2-0.5,0.4-0.7,0.4c-0.3,0.1-0.7,0-1.1-0.1c-0.3-0.1-0.6-0.2-0.9-0.2
			c-0.2,0-0.4,0-0.6,0c-0.2,0-0.4,0-0.6,0v-0.1v-4.3c0-0.1,0-0.1,0-0.2c0.5,0.2,1,0.3,1.3,0.3c1.2,0,1.7-0.9,2.2-1.6
			s0.8-1.2,1.5-1.1c0.1,0,0.3-0.1,0.3-0.2c0.1-0.1,0.1-0.2,0-0.4c-0.7-1.4-2.7-2.2-4.4-1.7c-1.6,0.5-2.5,1.8-2.3,3.6
			c0,0.2,0.2,0.3,0.4,0.3s0.3-0.2,0.3-0.4c-0.1-1.5,0.5-2.5,1.8-2.9c1.2-0.3,2.6,0,3.3,0.9c-0.7,0.2-1.1,0.8-1.4,1.4
			c-0.6,0.9-1.1,1.7-2.7,1l0,0c0.2-0.6,0.7-0.9,1.2-0.9c0.2,0,0.4-0.2,0.4-0.4c0-0.2-0.2-0.4-0.4-0.4c-1.1,0-2.1,1.1-2.1,2.6v0.5
			c-0.1-0.1-0.2-0.2-0.3-0.3C9.9,17,8.9,16.1,7.4,16c-1.6,0-3.2,1.1-3.5,2.5c0,0.1,0,0.3,0.1,0.3c0.1,0.1,0.2,0.1,0.4,0.1
			c0.5-0.2,0.9,0.1,1.5,0.6c0.4,0.4,1,0.9,1.8,0.9c0.5,0,1-0.2,1.7-0.7c0.2-0.1,0.2-0.3,0.1-0.5C9.4,19,9.2,19,9,19.1
			c-1.3,1-1.8,0.5-2.5-0.2C6.1,18.5,5.6,18.1,5,18c0.4-0.8,1.5-1.5,2.6-1.5c0.6,0,1.5,0.2,1.9,1.3c-0.3-0.1-0.7-0.2-1-0.2
			c-0.2,0-0.4,0.2-0.4,0.4c0,0.2,0.2,0.4,0.4,0.4c1.2,0,2.2,0.8,2.2,1.9v2c-0.4-0.1-0.8-0.1-1.2-0.2c-0.3,0-0.6,0.1-0.8,0.2
			s-0.3,0.3-0.5,0.5c-0.1,0-0.1,0-0.2-0.1c-0.1,0-0.2-0.1-0.3-0.1c-0.1,0-0.1-0.1-0.2-0.1s-0.1-0.1-0.2-0.1c-0.5-0.2-1-0.1-1.5-0.1
			c-0.2,0-0.4,0.1-0.5,0.1c-0.4,0-0.9-0.1-1.3-0.2l-0.3-0.1c-0.6-0.1-2.3-0.1-2.8,0c-0.2,0-0.3,0.2-0.3,0.4
			C0.5,23.2,0.7,23.3,0.9,23.3z"/>
	</g>
</g>
<g>
	<g>
		<path class="st0" d="M14.7,11.4c0.1,0.1,0.2,0.2,0.3,0.2l0,0c0.4-0.1,0.7-0.2,0.9-0.4c0.2,0.1,0.5,0.1,0.7,0
			c0.1-0.1,0.2-0.1,0.2-0.2l0,0c0,0.1,0.1,0.2,0.3,0.2c0.2,0.1,0.3,0,0.4,0c0.1-0.1,0.3-0.1,0.4-0.1s0.1,0,0.2,0
			c0,0,0.1,0.1,0.2,0.2c0.1,0.1,0.3,0.1,0.4,0.1c2.9-1.3,4.5-4.2,4.9-5c0.1-0.3,0.1-0.6-0.1-0.8L19,0.9c-0.2-0.2-0.6-0.3-0.9-0.1
			c-0.7,0.4-2.4,1.5-3.8,2.9C13,5,11.8,6.8,11.4,7.5c-0.2,0.3-0.1,0.7,0.1,0.9L14.7,11.4z M14.8,4.1c0.9-0.9,1.9-1.7,2.7-2.2L17.6,2
			c0.1,0.1,0.2,0.1,0.3,0.1c0.1,0,0.2,0,0.3-0.1c0.1-0.1,0.1-0.3,0.1-0.5c0.1-0.1,0.3-0.1,0.3-0.2L23,5.9c-0.1,0.1-0.1,0.2-0.2,0.3
			c-0.1-0.1-0.3-0.1-0.5,0c-0.1,0.1-0.1,0.4,0,0.5l0.1,0.1c-0.7,1.1-2,2.7-3.8,3.6c-0.2-0.2-0.5-0.2-0.8-0.2c-0.1,0-0.3,0.1-0.4,0.1
			c-0.1-0.1-0.1-0.2-0.2-0.3s-0.3-0.2-0.5-0.1c-0.1,0-0.3,0.1-0.4,0.2c-0.1,0.1-0.1,0.2-0.1,0.2l0,0c0,0,0,0-0.1,0L16,10.2
			c-0.1-0.1-0.4-0.1-0.5,0s-0.1,0.2-0.1,0.4c-0.1,0.1-0.2,0.2-0.3,0.2l-3-3c0.1-0.1,0.1-0.2,0.2-0.3c0.1,0,0.1,0.1,0.2,0.1
			c0.1,0,0.2,0,0.3-0.1s0.1-0.4,0-0.5l-0.1-0.1C13.2,6,14,5,14.8,4.1z"/>
	</g>
</g>
<path class="st0" d="M17.5,8.2L17.5,8.2c1,0,1.7-0.7,1.9-1.7c0-0.1,0-0.1,0-0.1c0.1-0.1,0.3-0.3,0.3-0.5c0.1-0.2,0-0.4-0.1-0.5
	c-0.2-0.1-0.4,0-0.5,0.1c0,0.1-0.1,0.2-0.1,0.3c0-0.1-0.1-0.1-0.1-0.2c-1.2-0.9-1.9-0.3-2.3,0.1C16.3,6,16.1,6.1,15.8,6
	c-0.1,0-0.3,0-0.3,0.1c-0.1,0.1-0.1,0.2-0.1,0.3C15.5,7.4,16.5,8.2,17.5,8.2z M17,6.3c0.4-0.4,0.7-0.6,1.3-0.1
	c-0.2,0.1-0.4,0.1-0.5,0.1c-0.2-0.1-0.4,0.1-0.5,0.3c-0.1,0.2,0.1,0.4,0.3,0.5c0.1,0,0.2,0,0.3,0c0.2,0,0.4,0,0.6-0.1
	c-0.3,0.5-0.7,0.6-1,0.6c-0.5,0-1-0.3-1.3-0.6C16.6,6.7,16.8,6.5,17,6.3z"/>
<path class="st0" d="M21.3,5.7l0.4,0.4c0.1,0.1,0.2,0.1,0.3,0.1s0.2,0,0.3-0.1c0.1-0.1,0.1-0.4,0-0.5l-0.4-0.4
	c-0.1-0.1-0.4-0.1-0.5,0C21.2,5.4,21.2,5.6,21.3,5.7z"/>
<path class="st0" d="M20.3,4.7l0.4,0.4c0.1,0.1,0.2,0.1,0.3,0.1c0.1,0,0.2,0,0.3-0.1c0.1-0.1,0.1-0.4,0-0.5l-0.4-0.4
	c-0.1-0.1-0.4-0.1-0.5,0C20.1,4.3,20.1,4.6,20.3,4.7z"/>
<path class="st0" d="M19.3,3.7l0.4,0.4c0.1,0.1,0.2,0.1,0.3,0.1c0.1,0,0.2,0,0.3-0.1c0.1-0.1,0.1-0.4,0-0.5l-0.4-0.4
	c-0.1-0.1-0.4-0.1-0.5,0C19.1,3.3,19.1,3.5,19.3,3.7z"/>
<path class="st0" d="M18.6,3.1c0.1,0.1,0.2,0.1,0.3,0.1c0.1,0,0.2,0,0.3-0.1c0.1-0.1,0.1-0.4,0-0.5l-0.4-0.4c-0.1-0.1-0.4-0.1-0.5,0
	s-0.1,0.4,0,0.5L18.6,3.1z"/>
<path class="st0" d="M12.8,8l0.3,0.3c0.1,0.1,0.2,0.1,0.3,0.1s0.2,0,0.3-0.1s0.1-0.4,0-0.5l-0.3-0.3c-0.1-0.1-0.4-0.1-0.5,0
	C12.7,7.6,12.7,7.8,12.8,8z"/>
<path class="st0" d="M13.7,8.9L14,9.2c0.1,0.1,0.2,0.1,0.3,0.1s0.2,0,0.3-0.1s0.1-0.4,0-0.5l-0.3-0.3c-0.1-0.1-0.4-0.1-0.5,0
	C13.6,8.5,13.6,8.8,13.7,8.9z"/>
<path class="st0" d="M14.6,9.8l0.3,0.3c0.1,0.1,0.2,0.1,0.3,0.1s0.2,0,0.3-0.1s0.1-0.4,0-0.5l-0.3-0.3c-0.1-0.1-0.4-0.1-0.5,0
	C14.5,9.4,14.5,9.7,14.6,9.8z"/>
<path class="st0" d="M19.2,14.4v0.1c0,0,0,0.1-0.1,0.1L19,14.7h-0.1h-0.1c0,0-0.1,0-0.1-0.1l-0.1-0.1v-0.1v-0.1c0,0,0-0.1,0.1-0.1
	s0.1-0.1,0.1-0.1h0.1H19c0,0,0.1,0,0.1,0.1l0.1,0.1C19.2,14.3,19.2,14.4,19.2,14.4z"/>
<path class="st0" d="M19.6,12.7v0.1c0,0,0,0.1-0.1,0.1L19.4,13h-0.1h-0.1c0,0-0.1,0-0.1-0.1L19,12.8v-0.1v-0.1c0,0,0-0.1,0.1-0.1
	l0.1-0.1h0.1h0.1c0,0,0.1,0,0.1,0.1l0.1,0.1C19.6,12.6,19.6,12.6,19.6,12.7z"/>
<path class="st0" d="M16.5,17.1v0.1c0,0,0,0.1-0.1,0.1l-0.1,0.1h-0.1h-0.1c0,0-0.1,0-0.1-0.1l-0.1-0.1v-0.1V17c0,0,0-0.1,0.1-0.1
	l0.1-0.1h0.1h0.1c0,0,0.1,0,0.1,0.1l0.1,0.1C16.5,17,16.5,17,16.5,17.1z"/>
<path class="st0" d="M18.2,16v0.1c0,0,0,0.1-0.1,0.1L18,16.3h-0.1h-0.1c0,0-0.1,0-0.1-0.1l-0.1-0.1V16v-0.1c0,0,0-0.1,0.1-0.1
	l0.1-0.1h0.1H18c0,0,0.1,0,0.1,0.1l0.1,0.1C18.2,15.9,18.2,15.9,18.2,16z"/>
<path class="st0" d="M19.2,17.6v0.1c0,0,0,0.1-0.1,0.1L19,17.9h-0.1h-0.1c0,0-0.1,0-0.1-0.1l-0.1-0.1v-0.1v-0.1c0,0,0-0.1,0.1-0.1
	s0.1-0.1,0.1-0.1h0.1H19c0,0,0.1,0,0.1,0.1l0.1,0.1V17.6z"/>
<path class="st0" d="M17.3,19.5v0.1c0,0,0,0.1-0.1,0.1l-0.1,0.1H17h-0.1c0,0-0.1,0-0.1-0.1l-0.1-0.1v-0.1v-0.1c0,0,0-0.1,0.1-0.1
	l0.1-0.1H17h0.1c0,0,0.1,0,0.1,0.1l0.1,0.1C17.3,19.4,17.3,19.4,17.3,19.5z"/>
<path class="st0" d="M17.6,12.9V13c0,0,0,0.1-0.1,0.1l-0.1,0.1h-0.1h-0.1c0,0-0.1,0-0.1-0.1L17,13v-0.1v-0.1c0,0,0-0.1,0.1-0.1
	l0.1-0.1h0.1h0.1c0,0,0.1,0,0.1,0.1l0.1,0.1C17.6,12.8,17.6,12.9,17.6,12.9z"/>
</svg>
