<?xml version="1.0" encoding="utf-8"?>
<!-- Generator: Adobe Illustrator 27.2.0, SVG Export Plug-In . SVG Version: 6.00 Build 0)  -->
<svg version="1.1" id="Слой_1" xmlns="http://www.w3.org/2000/svg" xmlns:xlink="http://www.w3.org/1999/xlink" x="0px" y="0px"
	 viewBox="0 0 24.2 24.5" style="enable-background:new 0 0 24.2 24.5;" xml:space="preserve"
	 stroke-width="0.5" stroke="#556B2F" fill="#556B2F">
<g>
	<g>
		<path d="M19.1,14.8H5.5v-0.9H19v0.9H19.1z M17.9,16l-5.3,2.5c-0.2,0.1-0.2,0.3-0.2,0.4c0.1,0.1,0.2,0.2,0.3,0.2h0.1
			l4.9-2.3l-0.2,1.6l-3,1.5c-0.2,0.1-0.2,0.3-0.1,0.4c0.1,0.1,0.2,0.2,0.3,0.2h0.1l2.6-1.3l-0.2,1.5L16,21.2
			c-0.2,0.1-0.2,0.3-0.2,0.4c0.1,0.1,0.2,0.2,0.3,0.2h0.1l0.8-0.4l-0.3,2.2H7.8l-1.2-8.2H18L17.9,16z M10.3,5.5c0-0.1-0.1-0.3,0-0.4
			c0.2,0,0.4,0.4,0.4,0.5c0,0,0.6,2.1,0.8,4.9c0,0.2,0.1,0.7,0.5,0.8c0.6,0.2,1.3-0.8,2.8-3c0.5-0.8,1.1-1.7,1.5-2.1
			c-0.1,1.5-2.8,4.7-3.9,5.9l-0.1,0.1l0.2,1.1h-1.2C11.2,9.2,10.3,5.6,10.3,5.5z M7.6,7.1C7.1,5.7,7,4.2,7.2,3.1s0.6-1.8,1.3-2
			C9.1,0.9,9.9,1.2,10.7,2s1.6,2.1,2,3.5c0.5,1.4,0.6,2.9,0.4,4c-0.4,0.5-0.8,1-1,1.1c0,0,0-0.1,0-0.2c-0.2-2.9-0.8-4.9-0.8-5
			c-0.1-0.3-0.4-0.9-1-0.9c-0.2,0-0.4,0.1-0.5,0.2C9.5,5,9.6,5.5,9.6,5.7c0,0,0.6,2.5,0.8,5.5C9.3,10.6,8.2,9,7.6,7.1z M16.3,2.9
			c1-0.5,1.8-0.5,2.4-0.2c1.2,0.8,0.7,3.6-1,6c-1.3,1.8-3.1,3.1-4.4,3.1c1.1-1.3,3.7-4.4,3.5-6c0-0.4-0.2-0.5-0.4-0.5
			c-0.5-0.1-1,0.5-2.3,2.6C14,8,13.9,8.2,13.8,8.4c0-0.9-0.1-1.9-0.4-2.9C14.2,4.4,15.2,3.4,16.3,2.9z M19.4,13.2H13l-0.1-0.7
			c0.1,0,0.2,0,0.3,0c1.5,0,3.5-1.3,5-3.4c2-2.8,2.4-5.8,0.8-6.9c-0.8-0.5-1.8-0.5-3,0.1c-1,0.5-2,1.3-2.8,2.4
			c-0.5-1.3-1.2-2.5-2-3.3c-1-0.9-2-1.3-2.9-1C7.4,0.7,6.8,1.6,6.5,3C6.3,4.2,6.5,5.8,7,7.3c0.7,2.3,2.1,4.1,3.5,4.7
			c0,0.4,0,0.8,0,1.3H5.2c-0.2,0-0.3,0.1-0.3,0.3v1.6c0,0.2,0.1,0.3,0.3,0.3H6L7.2,24c0,0.2,0.2,0.3,0.3,0.3H17
			c0.2,0,0.3-0.1,0.3-0.3l1.3-8.6h0.8c0.2,0,0.3-0.1,0.3-0.3v-1.6C19.7,13.3,19.6,13.2,19.4,13.2"/>
	</g>
</g>
</svg>
