<?xml version="1.0" encoding="utf-8"?>
<!-- Generator: Adobe Illustrator 27.2.0, SVG Export Plug-In . SVG Version: 6.00 Build 0)  -->
<svg version="1.1" id="Слой_1" xmlns="http://www.w3.org/2000/svg" xmlns:xlink="http://www.w3.org/1999/xlink" x="0px" y="0px"
	 viewBox="0 0 24.2 24.5" style="enable-background:new 0 0 24.2 24.5;" xml:space="preserve"
	 stroke-width="0.5" stroke="#556B2F" fill="#556B2F">
<g>
	<g>
		<g>
			<path d="M21.4,20.3c-1.1,0.6-2.3,0.8-3.2,0.8c-0.3,0-0.6,0-1-0.1c0.6-0.9,1-2,1-3.1c0-2.6-1.8-4.8-4.2-5.4
				c0.1-0.1,0.1-0.3,0.2-0.4c0.4-0.7,0.8-1.6,1.2-2.8c0.7-2.5,2.7-2.5,2.8-2.5s2.1,0,2.8,2.5c0.4,1.2,0.8,2.1,1.2,2.8
				c0.6,1.2,1.2,2.3,1.2,4.7C23.4,18.3,22.7,19.5,21.4,20.3z M12.6,22.7c-2.6,0-4.8-2.1-4.8-4.8c0-2.6,2.2-4.8,4.8-4.8
				s4.8,2.1,4.8,4.8C17.4,20.6,15.2,22.7,12.6,22.7z M6.4,19.6c-0.1-0.1-0.4-0.1-0.5,0c-0.6,0.5-1.3,0.6-2,0.3
				c-0.8-0.4-1.5-1.2-2-2.3C1.3,16.4,1,15,1,13.5c0-1.4,0.4-2.4,1.1-2.9c1.5-1,3.9,0.1,3.9,0.1c0.1,0,0.2,0,0.3,0c0,0,2.4-1,3.8-0.1
				c0.6,0.4,1,1,1.1,1.9C8.8,13.1,7,15.3,7,17.9c0,0.8,0.2,1.5,0.4,2.1C7.1,20,6.7,19.9,6.4,19.6z M3,6.8C2.7,6.3,2.7,5.6,2.9,5.2
				c1.9,0.5,2.6,1.7,2.8,2.3C4.3,7.6,3.4,7.3,3,6.8z M14.6,5.5c-0.8,0.2-1.7,0.2-2.2,0.1c0.8-1.5,1.8-2.4,3-2.7
				c1-0.3,1.9-0.1,2.3,0.1C17.3,4.3,16.3,5.1,14.6,5.5z M22.9,11.7c-0.4-0.7-0.8-1.5-1.1-2.7c-0.5-1.6-1.4-2.3-2.1-2.7
				C19.2,6.1,18.8,6,18.6,6V2.4c0-0.2-0.2-0.4-0.4-0.4c-0.2,0-0.3,0.1-0.4,0.2c-1-0.3-4.2-0.9-6.4,3.6c-0.1,0.1-0.1,0.2,0,0.4
				c0.1,0.1,0.2,0.2,0.3,0.2c0,0,0.5,0.1,1.2,0.1c0.5,0,1.2,0,1.8-0.2c1.3-0.3,2.4-0.8,3-1.7V6c-0.3,0-0.7,0.1-1.1,0.4
				C16,6.7,15,7.5,14.6,9c-0.3,1.1-0.7,1.9-1.1,2.7c-0.1,0.2-0.2,0.4-0.3,0.7c-0.2,0-0.4,0-0.5,0c-0.2,0-0.3,0-0.5,0
				c-0.2-1.2-0.7-2-1.5-2.5c-1.3-0.8-3.1-0.4-4-0.1V8l0,0c0,0,0,0,0-0.1c0,0-0.1-0.7-0.7-1.5c-0.5-0.7-1.5-1.6-3.2-2
				c-0.2,0-0.4,0.1-0.4,0.2S1.7,6.1,2.5,7.2C2.9,8,3.9,8.4,5.4,8.4c0.1,0,0.2,0,0.4,0v1.4C4.9,9.5,3,9.1,1.7,10
				c-1,0.7-1.5,1.8-1.5,3.6c0,3.2,1.4,6.2,3.4,7.1C4,20.9,4.4,21,4.8,21c0.5,0,1-0.2,1.5-0.5C6.8,20.8,7.4,21,7.9,21
				c1,1.6,2.7,2.6,4.7,2.6c1.6,0,3.1-0.7,4.1-1.8c0.7,0.1,1.2,0.2,1.5,0.2c0.9,0,2.4-0.2,3.6-1c1.6-0.9,2.4-2.4,2.4-4.2
				C24.2,14.1,23.5,13,22.9,11.7"/>
		</g>
	</g>
</g>
<path d="M15.4,19.5c-0.2,0-0.4,0.2-0.4,0.4c0,0.2,0.2,0.4,0.4,0.4s0.4-0.2,0.4-0.4C15.8,19.7,15.6,19.5,15.4,19.5"/>
<path d="M14.2,20.7c-0.2,0-0.4,0.2-0.4,0.4c0,0.2,0.2,0.4,0.4,0.4s0.4-0.2,0.4-0.4C14.6,20.9,14.4,20.7,14.2,20.7"/>
<path d="M14.2,18.3c-0.2,0-0.4,0.2-0.4,0.4s0.2,0.4,0.4,0.4s0.4-0.2,0.4-0.4S14.4,18.3,14.2,18.3"/>
<path d="M15.4,17.1c-0.2,0-0.4,0.2-0.4,0.4c0,0.2,0.2,0.4,0.4,0.4s0.4-0.2,0.4-0.4C15.8,17.3,15.6,17.1,15.4,17.1"/>
<path d="M13.9,16.7c0.2-0.1,0.3-0.3,0.2-0.5c0,0-0.4-0.7-1.1-0.9v-0.1c0.1-0.2,0.3-0.4,0.7-0.4c0.2,0,0.4-0.2,0.4-0.4
	S13.9,14,13.7,14c-0.6,0-0.9,0.2-1.2,0.5c-0.3-0.3-0.6-0.5-1.2-0.5c-0.2,0-0.4,0.2-0.4,0.4s0.2,0.4,0.4,0.4c0.3,0,0.6,0.1,0.7,0.4
	v0.1c-0.7,0.2-1.1,0.9-1.1,0.9c-0.1,0.2,0,0.4,0.2,0.5s0.4,0,0.5-0.2c0,0,0.3-0.6,0.8-0.6s0.8,0.6,0.8,0.6c0.1,0.1,0.2,0.2,0.4,0.2
	C13.8,16.7,13.9,16.7,13.9,16.7"/>
</svg>
