<?xml version="1.0" encoding="utf-8"?>
<!-- Generator: Adobe Illustrator 27.2.0, SVG Export Plug-In . SVG Version: 6.00 Build 0)  -->
<svg version="1.1" id="Слой_1" xmlns="http://www.w3.org/2000/svg" xmlns:xlink="http://www.w3.org/1999/xlink" x="0px" y="0px"
	 viewBox="0 0 24.2 24.5" style="enable-background:new 0 0 24.2 24.5;" xml:space="preserve"
	 stroke-width="0.6" stroke="#556B2F" fill="#556B2F">
<g>
	<g>
		<path d="M15.7,11.1C15.6,11,15.3,11,15,11c0.5-0.7,1.1-2.4,0.7-2.8c-0.4-0.4-2.1,0.2-2.8,0.7c0.4-0.4,0.8-1,0.8-1.6
			s-0.4-1.4-0.5-1.7c-0.6-1.1-0.9-1.1-1-1.1s-0.4,0-1,1.1c-0.2,0.3-0.5,1.1-0.5,1.7s0.3,1.1,0.5,1.3c0,0,0.1,0.1,0.2,0.2
			C10.7,8.3,9,7.7,8.6,8.1C8.1,8.6,8.7,10.3,9.2,11c-0.5-0.1-0.6,0.1-0.7,0.1c-0.4,0.4,0.2,2.1,0.7,2.8C8.7,13.8,8.6,14,8.5,14
			c-0.1,0.1-0.3,0.3,0.1,1.5c0.1,0.3,0.4,1.1,0.8,1.6c0.4,0.4,1,0.5,1.3,0.6c0,0,0.1,0,0.2,0c0.2,0,0.6,0,0.8-0.2v2
			c0,0.2,0.2,0.4,0.4,0.4s0.4-0.2,0.4-0.4v-2c0.2,0.1,0.6,0.2,0.8,0.2c0.1,0,0.1,0,0.2,0c0.3,0,0.9-0.1,1.3-0.6
			c0.5-0.5,1.4-2.6,0.9-3.1c-0.1,0-0.4-0.1-0.7,0c0.3-0.4,0.5-1,0.6-1.3C16,11.5,15.8,11.2,15.7,11.1L15.7,11.1z M12.1,13.2
			c-0.1-0.4-0.2-0.8-0.5-1.1c-0.1-0.1-0.2-0.2-0.3-0.3c0.3,0,0.5-0.1,0.6-0.3c0.1-0.1,0.2-0.4,0.3-0.6c0,0.3,0.1,0.5,0.3,0.6
			c0.2,0.2,0.4,0.2,0.6,0.3C13,11.9,12.9,12,12.8,12C12.3,12.4,12.2,12.8,12.1,13.2L12.1,13.2z M13.2,9.7C13.5,9.3,14.5,9,15,8.9
			c-0.1,0.5-0.4,1.5-0.8,1.8c-0.4,0.4-1.1,0.4-1.3,0.3C12.8,10.8,12.8,10.1,13.2,9.7L13.2,9.7z M12.1,5.5c0.3,0.4,0.7,1.4,0.7,1.9
			c0,0.6-0.5,1.1-0.7,1.1c-0.2-0.1-0.7-0.6-0.7-1.1C11.4,6.9,11.8,6,12.1,5.5L12.1,5.5z M12.1,9.3L12.1,9.3c0.2,0,0.4-0.1,0.6-0.2
			c0,0,0,0-0.1,0c-0.3,0.3-0.5,0.7-0.5,1.1c-0.1-0.4-0.2-0.8-0.5-1.1l0,0C11.7,9.2,11.9,9.3,12.1,9.3L12.1,9.3z M11,9.7
			c0.4,0.4,0.4,1.1,0.3,1.3c-0.2,0.1-0.9,0.1-1.3-0.3c-0.4-0.4-0.7-1.3-0.8-1.8C9.7,9,10.7,9.3,11,9.7L11,9.7z M11,12.6
			c0.4,0.4,0.4,1.1,0.3,1.3C11.1,14,10.4,14,10,13.6s-0.7-1.3-0.8-1.8C9.7,11.9,10.7,12.3,11,12.6L11,12.6z M11.3,16.9
			C11.1,17,10.4,17,10,16.6s-0.7-1.3-0.8-1.8c0.5,0.1,1.5,0.4,1.8,0.8C11.4,15.9,11.4,16.7,11.3,16.9L11.3,16.9z M14.3,16.6
			C13.9,17,13.2,17,13,16.9c-0.1-0.2-0.1-0.9,0.3-1.3c0.3-0.4,1.3-0.7,1.8-0.8C15,15.2,14.6,16.2,14.3,16.6L14.3,16.6z M12.7,15
			c-0.3,0.3-0.5,0.7-0.5,1.1c0-0.3-0.2-0.8-0.5-1.1c-0.1-0.1-0.2-0.2-0.3-0.3c0.3,0,0.5-0.1,0.6-0.3c0.1-0.1,0.2-0.4,0.3-0.6
			c0,0.3,0.1,0.5,0.3,0.6c0.1,0.1,0.3,0.2,0.6,0.3C12.9,14.8,12.7,14.9,12.7,15L12.7,15z M14.3,13.7c-0.4,0.4-1.1,0.4-1.3,0.3
			c-0.1-0.2-0.1-0.9,0.3-1.3c0.3-0.4,1.3-0.7,1.8-0.8C15,12.3,14.6,13.3,14.3,13.7L14.3,13.7z M12.1,0.5L12.1,0.5
			C5.6,0.5,0.4,5.8,0.4,12.3c0,3.1,1.2,6.1,3.5,8.3C6,22.8,9,24,12.1,24l0,0c6.5,0,11.7-5.3,11.7-11.8C23.9,5.8,18.6,0.5,12.1,0.5z
			 M12.1,23.2L12.1,23.2c-2.9,0-5.5-1.1-7.5-2.9l3.2-3.2c0.2-0.2,0.2-0.4,0-0.6s-0.4-0.2-0.6,0L4,19.7c-1.8-2-3-4.6-3-7.5
			c0-6,4.9-11,10.9-11l0,0c2.9,0,5.5,1.1,7.5,2.9l-3.1,3.1c-0.2,0.2-0.2,0.4,0,0.6C16.6,7.9,16.7,8,16.8,8c0.1,0,0.2,0,0.3-0.1
			l3.1-3.1c1.8,2,3,4.6,3,7.5C23.1,18.3,18.2,23.2,12.1,23.2L12.1,23.2z"/>
	</g>
</g>
</svg>
