<?xml version="1.0" encoding="utf-8"?>
<!-- Generator: Adobe Illustrator 27.2.0, SVG Export Plug-In . SVG Version: 6.00 Build 0)  -->
<svg version="1.1" id="Слой_1" xmlns="http://www.w3.org/2000/svg" xmlns:xlink="http://www.w3.org/1999/xlink" x="0px" y="0px"
	 viewBox="0 0 24.2 24.5" style="enable-background:new 0 0 24.2 24.5;" xml:space="preserve"
	 stroke-width="0.5" stroke="#556B2F" fill="#556B2F">
<path d="M11.8,6.9c-0.1,0-0.2,0-0.2,0c-0.1,0-0.1,0-0.2,0c-0.1,0-0.1-0.1-0.1-0.1l-0.1-0.1c0-0.1,0-0.1,0-0.2s-0.1-3,1.6-4.8
	S17.5,0,17.6,0s0.1,0,0.2,0s0.1,0.1,0.1,0.1S18,0.2,18,0.3s0,0.1,0,0.2s0.1,3-1.6,4.8C14.9,6.8,12.5,6.9,11.8,6.9z M17.1,1
	c-0.8,0-2.5,0.3-3.6,1.3c-1.1,1.1-1.3,2.8-1.3,3.6c0.8,0,2.5-0.3,3.6-1.3C16.8,3.5,17,1.8,17.1,1z"/>
<path d="M12,12.9c-2.5,0-4.5-2.2-4.6-2.2l-0.1-0.1c0-0.1,0-0.1,0-0.2c0-0.1,0-0.1,0-0.2c0-0.1,0.1-0.1,0.1-0.1
	C7.5,9.9,9.5,7.7,12,7.7s4.5,2.2,4.6,2.2l0.1,0.1c0,0.1,0,0.1,0,0.2c0,0.1,0,0.1,0,0.2c0,0.1-0.1,0.1-0.1,0.1
	C16.4,10.7,14.5,12.9,12,12.9z M8.5,10.3c0.6,0.5,2,1.6,3.5,1.6s2.9-1.1,3.5-1.6c-0.6-0.5-2-1.6-3.5-1.6S9.1,9.7,8.5,10.3z"/>
<path d="M7.8,10.8c-0.1,0-0.2,0-0.3-0.1c-0.1-0.1-2.2-2.1-2.2-4.6s2.1-4.5,2.2-4.6l0.1-0.1c0.1,0,0.1,0,0.2,0s0.1,0,0.2,0
	c0,0.1,0,0.1,0.1,0.1c0.1,0.1,2.2,2.1,2.2,4.6s-2.1,4.5-2.2,4.6C8,10.7,7.9,10.8,7.8,10.8z M7.8,2.6c-0.5,0.6-1.6,2-1.6,3.5
	s1,2.9,1.6,3.5c0.5-0.6,1.6-2,1.6-3.5C9.4,4.5,8.3,3.2,7.8,2.6L7.8,2.6z"/>
<path d="M7.1,17.7c-2.5,0-4.5-2.2-4.6-2.2l-0.1-0.1c0-0.1,0-0.1,0-0.2c0-0.1,0-0.1,0-0.2c0-0.1,0.1-0.1,0.1-0.1
	c0.1-0.1,2.1-2.2,4.6-2.2s4.5,2.2,4.6,2.2l0.1,0.1c0,0.1,0,0.1,0,0.2c0,0.1,0,0.1,0,0.2c0,0.1-0.1,0.1-0.1,0.1
	C11.6,15.5,9.6,17.7,7.1,17.7z M3.6,15.1c0.6,0.5,2,1.6,3.5,1.6s2.9-1.1,3.5-1.6c-0.6-0.5-2-1.6-3.5-1.6S4.2,14.6,3.6,15.1z"/>
<path d="M2.9,15.6c-0.1,0-0.2,0-0.3-0.1s-2.2-2.1-2.2-4.6s2.1-4.5,2.2-4.6l0.1-0.1c0.1,0,0.1,0,0.2,0c0.1,0,0.1,0,0.2,0
	s0.1,0.1,0.1,0.1c0.1,0.1,2.2,2.1,2.2,4.6s-2.1,4.5-2.2,4.6C3.2,15.6,3.1,15.6,2.9,15.6z M2.9,7.4c-0.5,0.6-1.6,2-1.6,3.5
	s1.1,2.9,1.6,3.5c0.5-0.6,1.6-2,1.6-3.5S3.5,8,2.9,7.4L2.9,7.4z"/>
<g>
	<g>
		<path d="M0.5,18L0.5,18c-0.1,0-0.2,0-0.2-0.1s-0.1-0.1-0.1-0.1l-0.1-0.1v-0.1v-0.1v-0.1l0.1-0.1L11.3,6.1c0,0,0,0,0.1-0.1h0.1h0.1
			h0.1h0.1h0.1H12c0,0,0.1,0,0.1,0.1c0,0,0,0,0.1,0.1v0.1v0.1v0.1v0.1v0.1v0.1c0,0,0,0.1-0.1,0.1l-11.2,11C0.8,18,0.7,18,0.5,18z"/>
	</g>
</g>
<g>
	<g>
		<path d="M21.5,16.6c0.8,0,1.4,0.4,1.8,1.2l0,0c0.4,1,0.4,2-0.2,3c-0.7,1.3-1.6,2.2-2.7,2.7l0,0
			c-0.6,0.2-1.2,0.4-1.7,0.4c-0.9,0-1.6-0.4-2-1.1l0,0c-0.5-1.3,0-2.3,1.6-3.1c0,0,0,0,0.1,0l0,0c0,0,0,0,0.1,0
			c0.3-0.1,0.6-0.3,0.8-0.5l0,0c0.1-0.1,0.4-0.6,0.9-1.5l0,0c0.1-0.2,0.2-0.3,0.3-0.4l0,0c0.2-0.2,0.4-0.4,0.7-0.4l0,0
			C21.2,16.6,21.4,16.6,21.5,16.6z M21.5,16.2c-0.2,0-0.3,0-0.5,0.1l0,0c-0.4,0.1-0.7,0.3-0.9,0.6c-0.1,0.1-0.2,0.3-0.3,0.5l0,0
			c-0.4,0.8-0.7,1.3-0.8,1.4l0,0c-0.2,0.2-0.4,0.3-0.6,0.4c0,0-0.1,0-0.1,0.1l0,0h-0.1c-1.8,0.9-2.4,2.1-1.8,3.6l0,0
			c0.6,0.9,1.4,1.4,2.4,1.4c0.6,0,1.2-0.1,1.9-0.4l0,0c1.2-0.5,2.2-1.5,2.9-2.8l0,0c0.6-1.2,0.6-2.3,0.2-3.4l0,0
			C23.2,16.7,22.4,16.2,21.5,16.2z"/>
	</g>
</g>
<path d="M19.8,17.8C19.7,17.8,19.7,17.8,19.8,17.8c-0.2,0.1-0.2,0.2-0.2,0.3c0.2,0.3,0.2,0.6,0.2,0.8l0,0
	c-0.1,0.3-0.2,0.5-0.4,0.7c-0.3,0.2-0.6,0.3-0.9,0.3s-0.5-0.1-0.8-0.2h-0.1c-0.1,0-0.1,0-0.2,0.1s0,0.2,0.1,0.3
	c0.3,0.2,0.7,0.3,1,0.3c0.4,0,0.8-0.1,1.1-0.4l0,0c0.3-0.2,0.5-0.5,0.5-0.9l0,0c0-0.3,0-0.6-0.2-1.1C19.9,17.8,19.8,17.8,19.8,17.8z
	"/>
<path d="M15.3,13.7c-0.6,0-1.2,0.3-1.8,0.9l0,0c-0.3,0.4-0.4,0.8-0.4,1.2c0,0.2,0,0.5,0.1,0.7l0,0l0,0
	c0,0.1,0.1,0.5,0.4,1.2l0,0c0,0.2,0.1,0.3,0.1,0.4l0,0c0,0.1,0,0.2,0,0.3l0,0c-0.3,0.7-0.5,1.2-0.5,1.5l0,0c-0.1,0.4,0,0.8,0.1,1.2
	l0,0c0.5,1.1,1.2,1.6,2,1.6c0.3,0,0.7-0.1,1.1-0.3c0.1,0,0.1-0.2,0.1-0.3c0-0.1-0.1-0.1-0.2-0.1h-0.1c-0.3,0.1-0.6,0.2-0.9,0.2
	c-0.7,0-1.2-0.4-1.7-1.3l0,0c-0.1-0.4-0.2-0.7-0.1-1.1l0,0c0-0.2,0.2-0.7,0.5-1.4l0,0c0-0.1,0.1-0.3,0.1-0.5c0-0.1,0-0.3-0.1-0.5
	l0,0c-0.2-0.7-0.3-1-0.3-1.1l0,0l0,0c0-0.2-0.1-0.4,0-0.6l0,0c0-0.3,0.1-0.6,0.3-0.9l0,0c0.5-0.5,0.9-0.7,1.5-0.7
	c0.6,0,1.3,0.3,1.9,0.9l0,0c1.1,1.2,1.4,2.7,0.8,4.2c0,0.1,0,0.2,0.1,0.3c0,0,0,0,0.1,0s0.2-0.1,0.2-0.1c0.6-1.7,0.3-3.3-0.9-4.6
	l0,0C16.7,14,16,13.7,15.3,13.7z"/>
<path d="M13.5,16.5c-0.1,0-0.2,0.1-0.2,0.2s0.1,0.2,0.2,0.2c0.2,0,0.5,0.1,0.7,0.4c0.2,0.2,0.3,0.5,0.3,0.7l0,0
	c0,0.5-0.4,0.9-1.1,1.2c-0.1,0-0.1,0.2-0.1,0.3c0,0.1,0.1,0.1,0.2,0.1h0.1c0.9-0.4,1.3-0.9,1.3-1.6c0-0.4-0.1-0.7-0.4-1l0,0
	C14.2,16.7,13.9,16.5,13.5,16.5z"/>
<g>
	<g>
		<path d="M19.6,10.1c-0.8,0-1.5,0.5-1.9,1.4l0,0c-0.1,0.4-0.2,0.7-0.2,1.1c0,0.2,0,0.3,0.1,0.5l0,0l0.3,1.4l0,0
			c0,0.2,0,0.5-0.1,0.8c0,0.1,0,0.2,0.1,0.3c0,0,0,0,0.1,0s0.2-0.1,0.2-0.1c0.1-0.4,0.2-0.7,0.1-1l0,0L18,13.1
			c0-0.2-0.1-0.3-0.1-0.4l0,0c0-0.3,0.1-0.6,0.2-0.9c0.4-0.8,0.9-1.2,1.6-1.2c0.1,0,0.3,0,0.4,0l0,0c0.8,0.2,1.6,1.1,2.2,2.5l0,0
			c0.5,1.2,0.6,2.4,0.2,3.5c0,0.1,0,0.2,0.1,0.3c0,0,0,0,0.1,0s0.2-0.1,0.2-0.1c0.4-1.2,0.4-2.4-0.2-3.8l0,0
			c-0.7-1.5-1.5-2.4-2.5-2.7l0,0C19.9,10.2,19.8,10.1,19.6,10.1z"/>
	</g>
</g>
<path d="M17.9,13.3c-0.1,0-0.2,0.1-0.2,0.1c0,0.1,0,0.2,0.1,0.3c0.2,0.1,0.4,0.2,0.6,0.4l0,0c0.2,0.2,0.3,0.5,0.4,0.8
	c0,0.2,0,0.4,0,0.6l0,0c-0.1,0.2-0.2,0.4-0.5,0.6c-0.1,0.1-0.1,0.2,0,0.3c0,0,0.1,0.1,0.2,0.1h0.1c0.3-0.2,0.5-0.5,0.6-0.7
	s0.1-0.5,0.1-0.8l0,0c-0.1-0.3-0.2-0.6-0.5-0.9C18.5,13.6,18.2,13.4,17.9,13.3L17.9,13.3z"/>
</svg>
