<?xml version="1.0" encoding="utf-8"?>
<!-- Generator: Adobe Illustrator 27.2.0, SVG Export Plug-In . SVG Version: 6.00 Build 0)  -->
<svg version="1.1" id="Слой_1" xmlns="http://www.w3.org/2000/svg" xmlns:xlink="http://www.w3.org/1999/xlink" x="0px" y="0px"
	 viewBox="0 0 24.2 24.5" style="enable-background:new 0 0 24.2 24.5;" xml:space="preserve"
	 stroke-width="0.5" stroke="#556B2F" fill="#556B2F">
<g>
	<g>
		<g>
			<path d="M0.5,20.3h5.6c2.1,0,3.8-1.2,4.7-2.9c1,4,4.6,6.9,8.9,6.9h4c0.2,0,0.4-0.2,0.4-0.4v-4c0-4.1-2.7-7.6-6.4-8.8
				c1.9-0.8,3.2-2.6,3.2-4.8V1.5c0-0.2-0.2-0.4-0.4-0.4h-4.8c-2.3,0-4.2,1.4-4.9,3.4C9.8,2,7.4,0.3,4.5,0.3h-4
				c-0.2,0-0.4,0.2-0.4,0.4v4c0,2.7,1.6,5.1,3.9,6.2c-2.3,0.6-3.9,2.6-3.9,5v4C0.1,20.1,0.3,20.3,0.5,20.3z M1.4,13.8L1.4,13.8
				c0.1,0,3.4-1.1,5.8-1.2C6.6,13,6,13.4,5.5,13.8C3.6,13.6,1.9,14.5,1,15C1.1,14.6,1.2,14.2,1.4,13.8z M7.7,9.9h1.4l0.8,0.8H9.3
				C8.7,10.7,8.1,10.3,7.7,9.9z M1.5,7.1L1.5,7.1L1.5,7.1C1.1,6.3,0.9,5.5,0.9,4.7V4.6c0.7,0.4,2,1,3.3,1c0.2,0,0.4,0,0.5,0l1.7,1.7
				v1.4C4,8.6,1.5,7.1,1.5,7.1z M4,1.1c0.7,0.7,0.7,2.1,0.7,3.1L1.5,1.1H4z M7,1.7L7,1.7L7,1.7c1.2,1.8,1.5,3.7,1.4,5H7.1L5.3,4.9
				c0.1-0.6,0.3-2.5-0.4-3.8C5.6,1.1,6.3,1.3,7,1.7C6.9,1.6,7,1.6,7,1.7z M19.9,7.5c-1.8,0.9-5.5,0.6-6.8,0.4c0.5-0.6,1-1.1,1.5-1.6
				c0.4,0.1,1.3,0.2,2.3,0.2C17.8,6.5,19,6.4,20,6v0.2C20.1,6.7,20.1,7.1,19.9,7.5z M22,15.4L22,15.4h0.1c0.6,0.9,1,2,1.2,3.2
				c-2-1.2-4.3-0.9-5-0.8l-2.1-2.1v-1.8C17.7,14.1,19.8,14.4,22,15.4z M15.3,22.1c0,0-1.3-3-1.6-5.8h1.9l2.1,2.1
				c-0.2,2.2,0.6,4.1,1.2,5C17.6,23.3,16.4,22.8,15.3,22.1C15.3,22.2,15.3,22.1,15.3,22.1z M8.7,13.8l1.8-1.8
				C10.4,13,9.7,13.8,8.7,13.8z M11.3,12l0.8,0.8V15c-0.5-0.4-0.8-0.9-0.8-1.6V12z M14.8,15.5h-1.4c-0.1,0-0.3,0-0.4,0v-1.8
				L14.8,15.5z M18.5,19.2l4.3,4.3H20C19.6,23,18.5,21.3,18.5,19.2z M19,18.5c1-0.1,2.8-0.1,4.4,1.1c0,0.1,0,0.1,0,0.2v3L19,18.5z
				 M13.5,13.1h1.8c0,0.1,0,0.3,0,0.4v1.4L13.5,13.1z M14.9,12.3h-2.2l-0.8-0.8h1.4C14,11.5,14.5,11.8,14.9,12.3z M11.9,10.6l1-1
				C12.8,10.2,12.4,10.6,11.9,10.6z M20.1,5.2c-1.8,0.7-3.7,0.6-4.7,0.4c1.8-1.6,3.8-2.9,4.7-3.4V5.2z M14.9,5c0-0.2,0-0.4,0.1-0.7
				c0.2-1,0.8-1.9,1.6-2.5h2.5C18,2.5,16.4,3.6,14.9,5z M14.2,4.2c-0.2,0.7-0.1,1.3-0.1,1.5c-0.4,0.4-0.8,0.8-1.1,1.2
				c0.2-2.2,0.6-4.1,0.7-4.5c0.5-0.3,1.1-0.4,1.7-0.5C14.8,2.5,14.4,3.3,14.2,4.2z M12.3,9.1l-1,1C11.4,9.6,11.8,9.1,12.3,9.1z
				 M10.5,10.1L9.7,9.3V7.9c0.5,0.4,0.8,0.9,0.8,1.6V10.1z M7.9,7.5h0.6c0.1,0,0.3,0,0.4,0v1L7.9,7.5z M4,4.7
				C2.7,4.6,1.4,3.9,0.9,3.6v-2L4,4.7z M8.4,9.1h-1c0-0.1,0-0.3,0-0.4V8L8.4,9.1z M9.9,11.5l-1.8,1.8C8.2,12.3,9,11.5,9.9,11.5z
				 M4.3,19.5h-3c0.7-1,2.2-2.8,4.1-4.5C5.4,16.1,5.3,18.1,4.3,19.5z M0.9,16.1c0.4-0.3,1.9-1.3,3.7-1.4c-1.6,1.5-2.9,3-3.7,4
				C0.9,18.7,0.9,16.1,0.9,16.1z M5.3,19.5c1-1.9,0.9-4.4,0.9-5.1c0.4-0.3,0.8-0.6,1.2-0.9v0.8c0,0.2,0.2,0.4,0.4,0.4h0.6
				c0.1,2.1-0.3,3.7-0.9,4.6c0,0,0,0,0,0.1c-0.4,0.1-0.8,0.2-1.2,0.2h-1V19.5z M8.6,18.7c0.5-1.2,0.6-2.8,0.5-4.1
				c0.5-0.1,1-0.4,1.4-0.8V15C10.5,16.6,9.8,17.9,8.6,18.7z M11.3,15.4c0.4,0.4,0.9,0.7,1.5,0.8c0.2,1.9,0.9,3.9,1.3,5.1
				C12.5,19.9,11.4,17.8,11.3,15.4z M21.1,14.2c-1.9-0.7-3.7-1-5-1.1c-0.1-0.6-0.4-1.2-0.8-1.6C17.6,11.6,19.7,12.6,21.1,14.2z
				 M15.7,10.7h-2.4c0.3-0.3,0.4-0.8,0.4-1.2V8.8c0.7,0.1,1.5,0.1,2.4,0.1c1.1,0,2.4-0.1,3.4-0.4C18.7,9.8,17.3,10.7,15.7,10.7z
				 M11.3,6.3c0-1.3,0.5-2.4,1.4-3.2c-0.2,1-0.6,2.8-0.6,4.8c-0.1,0.2-0.3,0.3-0.4,0.5c-0.2,0.1-0.3,0.1-0.4,0.2V6.3z M10.5,7.1v0.4
				c-0.4-0.4-0.8-0.6-1.3-0.8c0-1.2-0.1-2.7-0.9-4.3C9.7,3.5,10.5,5.2,10.5,7.1z M2.2,8.3c1,0.5,2.7,1,4.3,1h0.1
				c0.1,0.5,0.4,0.9,0.7,1.3H6.9C5,10.7,3.3,9.8,2.2,8.3z M5.3,11.5h2.8c-0.1,0.1-0.2,0.2-0.3,0.3c-1.8-0.1-4.3,0.6-5.7,1
				C3,12,4.1,11.5,5.3,11.5z"/>
		</g>
	</g>
</g>
</svg>
