<?xml version="1.0" encoding="utf-8"?>
<!-- Generator: Adobe Illustrator 27.2.0, SVG Export Plug-In . SVG Version: 6.00 Build 0)  -->
<svg version="1.1" id="Слой_1" xmlns="http://www.w3.org/2000/svg" xmlns:xlink="http://www.w3.org/1999/xlink" x="0px" y="0px"
	 viewBox="0 0 24.2 24.5" style="enable-background:new 0 0 24.2 24.5;" xml:space="preserve"
	 stroke-width="0.5" stroke="#697A21" fill="#697A21">
<g>
	<g>
		<path d="M3.8,22.6c-0.1,0-0.1,0-0.1,0.1c-0.1,0.1,0,0.2,0.1,0.2c0.2,0.2,0.5,0.3,0.7,0.4c0.1,0.1,0.2,0.1,0.3,0.2
			c0.1,0,0.2,0,0.2-0.1s0-0.2-0.1-0.2c-0.1-0.1-0.2-0.1-0.4-0.2C4.3,22.9,4.1,22.8,3.8,22.6L3.8,22.6z M15.5,0.9c-0.1,0-0.1,0-0.2,0
			l-3.5,2L8.4,1.1C8.3,1,8.2,1,8.1,1.1L3.9,3.3C3.8,3.4,3.7,3.5,3.7,3.6L3.4,8.3L0.6,9.5C0.4,9.6,0.3,9.7,0.3,9.9v5.4
			c0,0.1,0.1,0.3,0.2,0.3l3.6,1.5v1.7c0,0,0,0,0.1,0c-0.1,0-0.2,0-0.2,0c-1.3,0-2.1,0.5-2.4,1.2c-0.2,0.4-0.1,0.9,0.3,1.3
			c0.3,0.3,0.9,0.5,1.7,0.5l0,0l0,0l0,0l0,0c-0.2,0.4-0.1,0.7-0.1,1.1c0,0.1,0,0.2,0.1,0.3l0,0c0,0.1,0,0.2,0.1,0.2
			c0,0.2,0.1,0.3,0,0.5c0,0.1,0,0.1,0.1,0.2c0.1,0,0.1,0,0.2,0c0.3-0.2,0.6-0.3,1-0.4c0.1,0,0.2-0.1,0.3-0.1
			c0.2-0.1,0.4-0.2,0.5-0.3c0.1,0,0.1-0.1,0.1-0.2l0,0c0.1,0.2,0.2,0.4,0.4,0.5C6.5,23.8,6.8,24,7.1,24c0.6,0,1-0.2,1.2-0.6
			c0,0,0,0,0-0.1l0,0c0.1,0.1,0.2,0.1,0.4,0l3.1-1.6l4.1,1.7c0.1,0,0.2,0,0.3,0l3.8-2.1c0.1-0.1,0.2-0.2,0.2-0.3l0.2-3.6l3.3-1.5
			c0.1-0.1,0.2-0.2,0.2-0.3l0.2-6.3C24.1,9.2,24,9,23.9,9l-3.2-1.3l-0.1-4.4c0-0.1-0.1-0.3-0.2-0.3L16,0.9
			C15.6,0.9,15.6,0.9,15.5,0.9z M15.6,1.6l4.1,1.9V8L18,8.9l0,0c0,0,0,0,0.1,0c-0.2-0.1-0.4-0.1-0.6-0.1c-0.1,0-0.2,0-0.3,0
			c-0.2,0-0.4,0-0.6,0.1c0,0.1,0,0.1,0,0.2c0.1-0.8-0.2-1.5-0.6-1.9l0,0C15.8,7.1,15.6,7,15.5,7c0,0,0,0,0,0.1c0,0,0,0,0-0.1l0,0
			c0-0.1,0-0.2,0-0.4c0.1-0.2,0.2-0.4,0.3-0.5C15.9,6.1,16,6,16,6c0.1,0,0.1,0,0.1,0s0,0,0.1,0c0,0,0.1,0.1,0.1,0.3
			c0,0.1,0,0.1,0,0.1l0,0c0,0,0-0.1-0.1-0.1c0-0.1-0.1-0.1-0.2-0.1s-0.1,0.1-0.1,0.2c0.1,0.2,0.2,0.4,0.4,0.4c0.1,0,0.2-0.1,0.3-0.2
			c0.1-0.1,0.1-0.2,0.1-0.3c0-0.2,0-0.3-0.1-0.4s-0.2-0.2-0.3-0.2h-0.1c-0.1,0-0.2,0-0.2,0.1c-0.1,0-0.2,0.1-0.3,0.2
			c-0.2,0.2-0.3,0.4-0.4,0.6c-0.1,0.2-0.1,0.3,0,0.5V7l0,0c-0.1,0-0.2,0-0.3,0.1c-0.1,0-0.3,0.1-0.4,0.2v0.1c0-0.2-0.2-0.4-0.4-0.6
			c-0.2-0.1-0.4-0.3-0.6-0.3c-0.1,0-0.2,0-0.2,0c-0.1,0-0.3,0-0.4,0.1c-0.2,0.2-0.2,0.4-0.2,0.7c0.1,0.3,0.3,0.5,0.5,0.5
			c0.1,0,0.3,0,0.4-0.1c0.1-0.1,0.1-0.3,0.1-0.4s-0.1-0.2-0.2-0.1c-0.1,0-0.2,0.1-0.1,0.2c0,0.1,0,0.1,0,0.1l0,0
			c-0.1,0-0.2-0.1-0.2-0.3c-0.1-0.2,0-0.3,0-0.3c0.1,0,0.2-0.1,0.3,0c0.2,0,0.3,0.1,0.5,0.2c-0.1,0-0.1,0.2,0,0.3c0,0,0,0.1,0.1,0.1
			l0,0c0,0.1-0.1,0.1-0.1,0.2c-0.2,0.6-0.2,1.3,0.4,1.8c0,0-0.1,0-0.1-0.1c0,0,0,0-0.1,0c0,0,0,0,0.1,0l0,0L12,8.1l0.1-4.6l0,0
			L15.6,1.6z M8.3,1.8l3.4,1.8l-0.1,4.6l-3.4,1.9L4.1,8.5l0.3-4.7L8.3,1.8z M15,7.3c0.1,0,0.2,0,0.3,0l0,0h0.1l0,0
			c0.1,0,0.2,0.1,0.3,0.2c0.4,0.3,0.6,0.9,0.5,1.5c0,0,0,0,0,0.1l0,0l0,0l0,0l0,0c-0.1,0-0.3,0-0.4,0c-0.1,0-0.1,0-0.2,0
			c-0.1,0-0.2,0.1-0.2,0.2c0,0,0,0,0-0.1l0,0l-0.1-0.1h-0.1c-0.1,0.1-0.2,0.2-0.3,0.3c0,0,0,0,0.1,0c0,0,0,0-0.1,0l0,0
			c-0.6-0.4-0.7-1.1-0.5-1.6C14.5,7.5,14.7,7.4,15,7.3C14.9,7.3,15,7.3,15,7.3z M19.9,8.3L19.9,8.3l3.3,1.4L23,15.5L19.7,17l0,0
			l-3.9-2.5v-1.2l0,0c0.1,0.1,0.2,0.1,0.2,0.2c0.1,0.1,0.2,0.1,0.3,0.2l0,0c0.1,0,0.2,0.1,0.2,0.1c0.2,0.1,0.3,0.2,0.4,0.3
			c0,0.1,0.1,0.1,0.2,0.1s0.1-0.1,0.1-0.1c0-0.4,0.2-0.7,0.3-1c0-0.1,0.1-0.2,0.1-0.3c0.1-0.2,0.1-0.4,0.2-0.6c0-0.1,0-0.1,0-0.2
			l0,0c0.2,0.1,0.4,0.1,0.7,0.1c0.3,0,0.7-0.1,0.9-0.3c0.4-0.4,0.5-0.9,0.3-1.3c-0.1-0.4-0.5-0.7-0.9-1c-0.2-0.1-0.3-0.2-0.5-0.2
			h0.1L19.9,8.3z M11.8,8.4L14,9.7l0,0c-1.4,1.1-1.8,2.4-1.4,3.2c0.2,0.4,0.6,0.7,1.1,0.6c0.5,0,1-0.3,1.5-0.9l0,0l0,0l0,0
			c0.1,0.1,0.1,0.2,0.2,0.3l0,0l0,0v1.6l-3.2,2l-3.6-2.4H8.5l0,0l0,0l-0.1-3.7L11.8,8.4z M4,8.9l4.1,1.5V14l-3.4,2.6l-3.6-1.5v-4.9
			L4,8.9C3.9,8.9,4,8.9,4,8.9z M17.1,9.1c0.1,0,0.2,0,0.3,0c0.4,0,0.8,0.2,1.2,0.4c0.4,0.2,0.6,0.5,0.7,0.8s0.1,0.6-0.3,0.9
			c-0.1,0.1-0.3,0.2-0.6,0.2c-0.2,0-0.3,0-0.4,0l0,0l0,0l0,0c0.2-0.1,0.3-0.3,0.3-0.5c0.1-0.2,0.1-0.3,0-0.5
			c-0.1-0.3-0.3-0.6-0.7-0.8c-0.3-0.2-0.7-0.4-1-0.5l0,0l0,0l0,0C16.8,9.2,16.9,9.2,17.1,9.1z M15.8,9.4c0.2,0,0.5,0,0.7,0.1
			c0.3,0.1,0.7,0.3,1,0.4c0.3,0.2,0.5,0.4,0.5,0.6c0,0.1,0,0.2,0,0.3s-0.1,0.2-0.2,0.3c-0.2,0.1-0.3,0.2-0.5,0.1h-0.1l0,0
			c-0.2-0.1-0.3-0.2-0.5-0.3C16.2,10.6,15.9,10.1,15.8,9.4z M15.2,9.5c0.3,0.5,0.4,1.2,0.3,1.8c0,0.3-0.2,0.5-0.3,0.7l-0.1,0.1l0,0
			l0,0l0,0c-0.1,0.1-0.3,0.2-0.4,0.2c-0.2,0-0.3,0-0.4-0.1c-0.1-0.1-0.1-0.1-0.2-0.2c-0.1-0.2-0.1-0.5,0.1-0.8
			c0.1-0.3,0.3-0.7,0.5-1C14.9,9.8,15.1,9.7,15.2,9.5z M14.6,9.7l0.1,0.1C14.7,9.7,14.7,9.7,14.6,9.7L14.6,9.7L14.6,9.7
			c-0.1,0.1-0.1,0.2-0.2,0.2c-0.2,0.3-0.4,0.7-0.5,1.1c-0.1,0.4-0.2,0.8,0,1.1c0.1,0.2,0.2,0.3,0.3,0.4c0.2,0.1,0.3,0.2,0.6,0.2l0,0
			l0,0l0,0l0,0c-0.4,0.4-0.7,0.5-1,0.5s-0.6-0.1-0.8-0.4C12.7,12.1,12.9,10.9,14.6,9.7L14.6,9.7L14.6,9.7L14.6,9.7z M15.9,10.7
			c0.1,0.2,0.3,0.4,0.5,0.6c0.1,0.1,0.2,0.1,0.3,0.2c-0.1,0-0.2,0.1-0.3,0.1c-0.1,0-0.2,0.1-0.3,0.1c-0.1,0-0.1,0-0.2,0
			c0-0.1,0.1-0.2,0.1-0.3C15.9,11.1,15.9,10.9,15.9,10.7L15.9,10.7z M17.4,11.4c0,0-0.1,0-0.1,0.1C17.3,11.4,17.4,11.4,17.4,11.4z
			 M17,11.6L17,11.6h0.1c0.1,0,0.1,0,0.2,0l0,0l0,0l0.1,0.1c-0.2,0.1-0.6,0.3-0.9,0.4c-0.4,0.1-0.7,0.2-1,0.2v-0.1l0,0v-0.1v0.1l0,0
			c0,0,0.1-0.1,0.1-0.2c0,0,0,0,0.1,0s0.2-0.1,0.4-0.1c0.1,0,0.2-0.1,0.3-0.1C16.6,11.8,16.8,11.7,17,11.6z M17.4,12.2
			c0,0.1,0,0.1-0.1,0.2c0,0,0,0.1-0.1,0.1l0,0c-0.1,0-0.3,0.1-0.4,0.1c-0.3,0.1-0.5,0.2-0.8,0.2l0,0c-0.1-0.1-0.2-0.2-0.3-0.3
			c0.3,0,0.6-0.1,0.9-0.2C16.9,12.4,17.2,12.3,17.4,12.2z M17.1,13c-0.1,0.2-0.1,0.3-0.2,0.5c-0.1-0.1-0.2-0.1-0.2-0.1
			c-0.1,0-0.2-0.1-0.2-0.1l0,0c0.2-0.1,0.3-0.1,0.5-0.2C17,13,17,13,17.1,13z M8.3,14.3c0,0.1,0,0.1,0.1,0.1l3.6,2.4l-0.3,4.4
			c-0.1,0-0.2,0-0.2,0l-3,1.6c0,0,0,0,0,0.1c0-0.2,0-0.4,0-0.7c-0.1-0.5-0.3-0.9-0.5-1.3c-0.2-0.2-0.4-0.4-0.6-0.6
			c-0.1,0-0.1,0.1-0.2,0.1c0.7-0.4,1-1.1,1-1.7l0,0c0-0.2-0.1-0.3-0.1-0.5c0,0,0,0,0,0.1c0,0,0,0,0-0.1l0,0c0-0.1,0.1-0.2,0.3-0.2
			c0.2-0.1,0.4-0.1,0.6-0.1c0.1,0,0.2,0,0.2,0.1c-0.1,0-0.1,0-0.1,0s0,0,0,0.1c0,0-0.1,0.1-0.1,0.2s-0.1,0.1-0.1,0.1l0,0v-0.1
			c0.1-0.1,0-0.2-0.1-0.2c-0.1-0.1-0.2,0-0.2,0.1c-0.1,0.2-0.1,0.4,0,0.6c0.1,0.1,0.2,0.1,0.3,0.1s0.2-0.1,0.3-0.2s0.2-0.2,0.2-0.4
			c0-0.1,0-0.3,0-0.4c-0.1-0.1-0.2-0.2-0.3-0.2s-0.2-0.1-0.3-0.1H8.7c-0.2,0-0.4,0-0.6,0.1c-0.2,0.1-0.3,0.2-0.4,0.3
			c0,0,0-0.1,0.1-0.1c-0.1-0.1-0.2-0.2-0.3-0.2c-0.1-0.1-0.3-0.1-0.4-0.1c0,0,0,0.1-0.1,0.1c0.1-0.2,0.2-0.4,0.2-0.7
			c0-0.2-0.1-0.5-0.2-0.7s-0.3-0.4-0.5-0.4H6.4c-0.2,0-0.4,0.1-0.5,0.4c-0.2,0.2-0.2,0.6-0.1,0.7s0.2,0.2,0.3,0.2
			c0.1,0,0.3-0.1,0.4-0.2s0-0.2,0-0.2c-0.1-0.1-0.2,0-0.2,0l-0.1,0.1l0,0c0-0.1-0.1-0.2,0-0.4c0.1-0.2,0.2-0.2,0.3-0.2
			c0.1,0,0.2,0.1,0.2,0.2c0.1,0.1,0.1,0.3,0.1,0.5s0,0.3-0.1,0.4v0.1l0,0c-0.1,0-0.1,0-0.2,0.1c-0.6,0.2-1.1,0.8-1.1,1.5V19
			c-0.2,0-0.4,0-0.6-0.1h0.1l0,0v-2l0,0L8.3,14.3L8.3,14.3z M15.6,14.8l3.9,2.5l0,0l-0.2,3.6l-3.4,1.9l-3.8-1.5l0.3-4.5L15.6,14.8z
			 M6.9,17.9c0.1,0,0.2,0,0.3,0.1c0.1,0.1,0.2,0.2,0.3,0.3l0,0c0,0,0,0,0,0.1c0.1,0.1,0.1,0.2,0.1,0.4c0,0.5-0.2,1.1-0.8,1.4l0,0
			l0,0l0,0l0,0l0,0l0,0c-0.1-0.2-0.2-0.3-0.4-0.4H6.3c0,0-0.1,0-0.1,0.1l0,0c0,0,0,0,0-0.1s0-0.2-0.1-0.2s-0.3-0.1-0.4-0.1v0.1v-0.1
			l0,0c-0.1-0.7,0.3-1.3,0.8-1.4C6.7,17.9,6.8,17.9,6.9,17.9z M4,19.2c0.2,0,0.3,0,0.5,0l0,0c0.1,0,0.1,0,0.2,0l0,0
			c0.2,0,0.4,0.1,0.7,0.1l0,0c0,0,0,0,0.1,0l0,0v0.1v-0.1c0,0,0,0-0.1,0s-0.1,0-0.2,0c-0.4,0-0.8,0.2-1.2,0.3
			c-0.4,0.2-0.7,0.4-0.8,0.7C3,20.6,3,20.7,3,20.9c0,0.2,0.1,0.4,0.3,0.5l0,0l0,0l0,0l0,0c-0.5,0-0.9-0.2-1.1-0.4
			c-0.3-0.2-0.3-0.6-0.2-0.9C2.2,19.7,2.8,19.3,4,19.2z M4.6,19.3L4.6,19.3C4.5,19.3,4.5,19.3,4.6,19.3L4.6,19.3z M5.5,19.7
			c0.1,0,0.2,0,0.3,0c-0.2,0.6-0.6,1.1-1.1,1.4c-0.3,0.2-0.5,0.3-0.7,0.3H3.9H4H3.9c0,0,0,0-0.1,0c0,0,0,0,0.1,0
			c-0.2,0-0.3-0.1-0.4-0.2c-0.1-0.1-0.2-0.3-0.2-0.4s0-0.2,0.1-0.3c0.1-0.2,0.3-0.4,0.7-0.5c0.3-0.1,0.7-0.2,1.1-0.3
			C5.3,19.7,5.4,19.7,5.5,19.7z M6.3,20.1c0.1,0.2,0.3,0.4,0.4,0.6C6.8,21,7,21.4,7,21.7s0,0.6-0.1,0.8c-0.1,0.1-0.1,0.1-0.2,0.2
			c-0.1,0-0.2,0.1-0.4,0c-0.2,0-0.3-0.1-0.4-0.3c0,0,0-0.1-0.1-0.1l0,0v-0.1l0,0c-0.1-0.2-0.1-0.3-0.1-0.5
			C5.7,21.2,5.9,20.6,6.3,20.1z M7,20.6L7,20.6L7,20.6c0.2,0.1,0.4,0.3,0.6,0.5c0.2,0.3,0.4,0.8,0.5,1.2c0.1,0.4,0,0.8-0.1,1.1
			c-0.1,0.3-0.4,0.4-0.9,0.4c-0.2,0-0.4-0.1-0.6-0.3c-0.1-0.1-0.2-0.2-0.3-0.4l0,0l0,0l0,0c0.2,0,0.4,0,0.6,0
			C7,23,7.1,22.9,7.2,22.7c0.2-0.3,0.2-0.6,0.1-1C7.3,21.3,7.2,21,7,20.6L7,20.6z M5.5,21c-0.1,0.2-0.1,0.5-0.1,0.7
			c0,0.1,0,0.2,0,0.3l0,0l0,0l0,0c-0.1-0.1-0.2-0.1-0.3-0.2c-0.1-0.1-0.2-0.1-0.3-0.2c-0.1-0.1-0.3-0.2-0.3-0.2
			c0.1,0,0.1,0.1,0.2,0.1s0.2-0.1,0.3-0.2C5.1,21.3,5.3,21.2,5.5,21L5.5,21z M4,21.7L4,21.7C4,21.8,4,21.8,4,21.7
			c0.1,0.1,0.1,0.1,0.2,0.1c0,0,0,0,0.1,0s0.2,0.1,0.3,0.2c0.1,0.1,0.2,0.1,0.3,0.2c0.2,0.1,0.5,0.3,0.7,0.4c0,0,0,0-0.1,0
			c0,0,0,0.1,0.1,0.1l0.1,0.1l0,0c0,0,0,0,0,0.1V23h0.1H5.7l0,0c-0.3-0.1-0.6-0.2-0.9-0.4C4.5,22.4,4.2,22.2,4,22l0,0
			c0,0,0,0-0.1-0.1l-0.1-0.1c0.1,0,0.1,0,0.1,0.1c0,0,0,0,0.1,0.1C4,21.8,4,21.8,4,21.7C4,21.8,4,21.8,4,21.7L4,21.7L4,21.7z
			 M3.8,22.2c0.2,0.2,0.5,0.4,0.7,0.5C4.8,22.9,5,23,5.3,23.1l0,0c-0.1,0-0.1,0.1-0.2,0.1c0,0-0.1,0-0.2,0.1C5,23.4,5,23.4,5,23.5
			s-0.2,0.1-0.2,0.1c-0.1,0-0.1-0.1-0.2-0.1c-0.2,0.1-0.3,0.1-0.5,0.2c0-0.1,0-0.2,0-0.3c0-0.1,0-0.2-0.1-0.3l0,0
			C3.9,23,3.8,23,3.8,22.9c-0.1-0.1-0.1-0.2-0.1-0.2c0-0.1,0.1-0.1,0.1-0.1s0,0,0.1,0C3.8,22.5,3.8,22.4,3.8,22.2L3.8,22.2z"/>
	</g>
</g>
</svg>
