<?xml version="1.0" encoding="utf-8"?>
<!-- Generator: Adobe Illustrator 27.2.0, SVG Export Plug-In . SVG Version: 6.00 Build 0)  -->
<svg version="1.1" id="Слой_1" xmlns="http://www.w3.org/2000/svg" xmlns:xlink="http://www.w3.org/1999/xlink" x="0px" y="0px"
	 viewBox="0 0 29.6 17.2" style="enable-background:new 0 0 29.6 17.2;" xml:space="preserve"
	 stroke-width="0.7" stroke="#697A21" fill="#697A21">
<g>
	<g>
		<path d="M12.3,14.1L12.3,14.1c-0.2,0-0.3,0.1-0.3,0.3c0,0.7,0,1.6-0.1,1.9h-0.5c0-0.4,0-1.3-0.1-1.9
			c0-0.2-0.2-0.3-0.3-0.2l0,0c-0.2,0-0.3,0.2-0.3,0.3c0.1,0.9,0.1,2.1,0.1,2.1c0,0.1,0,0.2,0.1,0.2c0.1,0.1,0.1,0.1,0.2,0.1h1.1
			c0.2,0,0.3-0.1,0.3-0.3c0,0,0.1-1.1,0.1-2.2C12.6,14.2,12.5,14.1,12.3,14.1z"/>
	</g>
</g>
<g>
	<g>
		<path d="M9.7,13.8c-0.2,0-0.3,0.1-0.3,0.3c0,1.2-0.3,1.7-0.4,2.2H8.4c0.1-0.7,0.2-2.3,0.1-2.9l0,0
			c-0.1-0.8-0.3-1.2-0.4-1.6C8,11.3,7.9,11,7.8,10.3c0-0.1,0-0.1-0.1-0.2C7.1,9.6,6.6,9,6.3,8.7c0.2-0.1,0.4-0.3,0.5-0.5
			C7.1,7.7,7,7.3,6.9,7C6.8,6.9,6.7,6.8,6.7,6.6c0-0.6,0.2-0.8,0.4-1.1C7.2,5.4,7.4,5.2,7.4,5h0.1c0.4,0,0.7-0.1,1.1-0.2
			c0.3-0.1,0.6-0.4,0.8-0.6c0.2-0.3,0.3-0.6,0.3-0.8C9.6,3.1,9.3,2.8,9,2.7C8.7,2.6,8,2.5,7.3,3V2.9C7.6,2.7,7.8,2.5,8,2.2
			c0.8-0.1,2.2-0.1,3.2,0c0,0.2-0.1,0.4-0.1,0.7c0,0.7,0.2,1.2,0.7,1.5c0.4,0.3,0.7,0.3,1,0.2c0.3-0.1,0.5-0.3,0.6-0.4
			s0.3-0.3,0.4-0.3c0.2,0,0.5,0.2,0.7,0.4s0.5,0.4,0.7,0.5s0.3,0.1,0.4,0.1c0.1,0,0.1,0,0.2,0c0.7-0.2,1-1,1.3-1.7V3.1
			c0.1-0.3,0.4-0.6,0.7-0.6c0.7-0.1,1.3-0.2,1.8-0.3c1.2-0.3,2-0.4,2.7,0c0.5,0.4,0.6,1.2,0.6,2.1c0,0.2,0.1,0.3,0.3,0.3l0,0
			c0.1,0,0.3-0.1,0.3-0.3c0-0.1,0-0.2,0-0.2c0,0.1,0.1,0.2,0.1,0.2c0.1,0.1,0.2,0.2,0.4,0.2l0,0c0.2-0.1,0.2-0.2,0.2-0.4
			C24,3.5,23.7,3,23.4,2.6l0,0c-0.1-0.3-0.3-0.6-0.6-0.8c-0.4-0.3-0.8-0.4-1.4-0.4c-0.5,0-1.1,0.1-1.7,0.3C19,1.9,18.2,2,17.2,2.1
			c-2.4,0.3-3.7,0-4.7-0.2c-0.8-0.1-2.8-0.2-4-0.1c0.1-0.3,0.2-0.7,0.1-0.9c0-0.3-0.2-0.4-0.3-0.4c-0.2,0-0.4,0.1-0.4,0.1
			c-0.3-0.1-0.3,0-0.4,0.1C7.2,1,6.8,1.4,6.3,1.6c0,0,0,0-0.1,0c-0.3,0-0.6-0.1-1-0.1H5.1H4.9H4.8C4.4,1.5,4,1.6,3.7,1.7
			c0,0,0,0-0.1,0C3.2,1.4,2.8,1,2.5,0.7c0-0.1-0.1-0.2-0.2-0.3c-0.1,0-0.2-0.2-0.4-0.1c-0.1,0-0.3,0.1-0.3,0.4s0,0.7,0.2,1.1
			s0.5,0.8,1,1.1V3C2,2.5,1.3,2.6,1,2.7C0.7,2.8,0.4,3.1,0.3,3.3s0,0.5,0.3,0.8c0.2,0.3,0.5,0.5,0.8,0.6C1.7,4.9,2.1,5,2.5,5h0.1
			c0.1,0.2,0.2,0.4,0.3,0.5C3.1,5.8,3.3,6,3.3,6.6c0,0.2-0.1,0.3-0.1,0.4C3,7.3,2.9,7.7,3.2,8.2c0.4,0.6,1.1,0.7,1.5,0.7
			c0.1,0,0.2,0,0.3,0c0.1,0,0.2,0,0.2,0c0.1,0,0.3,0,0.4,0c0.3,0.4,1,1.1,1.6,1.6c0.1,0.7,0.2,1.1,0.3,1.5c0.1,0.4,0.3,0.8,0.4,1.6
			c0.1,0.6-0.1,2.4-0.2,3c0,0.1,0,0.2,0.1,0.2c0.1,0.1,0.1,0.1,0.2,0.1h1.1c0.1,0,0.2-0.1,0.3-0.2c0-0.1,0.4-0.9,0.5-2.4
			c0,0,0-0.1,0-0.2C10,13.9,9.8,13.8,9.7,13.8z M7.5,3.6c0.6-0.5,1.1-0.4,1.3-0.3c0.2,0,0.3,0.2,0.3,0.2S9,3.7,8.8,3.9
			C8.7,4.1,8.3,4.4,7.6,4.4c0-0.2,0-0.4-0.1-0.6C7.5,3.8,7.5,3.7,7.5,3.6L7.5,3.6z M11.8,2.2c0.2,0,0.3,0,0.5,0.1
			c0.7,0.1,1.6,0.3,2.9,0.3c0.5,0,1,0,1.7-0.1c-0.1,0.1-0.1,0.2-0.2,0.3v0.1c-0.2,0.6-0.5,1.3-0.9,1.4c-0.3,0.1-0.6-0.2-0.8-0.4
			c-0.4-0.4-0.8-0.6-1.1-0.5c-0.3,0-0.5,0.2-0.7,0.4c-0.3,0.3-0.4,0.4-0.9,0.1C11.5,3.4,11.7,2.4,11.8,2.2z M2.5,3.9
			c0,0.2-0.1,0.4-0.1,0.6C1.7,4.5,1.2,4.1,1.1,4C0.9,3.7,0.9,3.5,0.9,3.5S1,3.3,1.2,3.3c0.2-0.1,0.7-0.1,1.3,0.3l0,0
			C2.5,3.7,2.5,3.8,2.5,3.9z M7.8,1.2c0,0.1-0.1,0.2-0.1,0.3C7.6,1.8,7.4,2.2,7,2.4C6.9,2.3,6.8,2.2,6.7,2.1
			C7.2,1.8,7.6,1.4,7.8,1.2z M2.3,1.5c0-0.1-0.1-0.2-0.1-0.3c0.2,0.3,0.6,0.6,1.1,0.9C3.2,2.2,3.1,2.3,3,2.4
			C2.6,2.2,2.4,1.8,2.3,1.5z M5.3,8.3c-0.1,0-0.4,0-0.5,0c-0.2,0-0.8,0-1-0.4c-0.2-0.3-0.1-0.4,0-0.6S4,7,4,6.7l0,0
			c0-0.8-0.3-1.1-0.5-1.4C3.1,4.9,2.9,4.6,3.1,4c0.3-1.6,0.8-1.9,1.8-1.9H5l0,0h0.1l0,0h0.1c1,0,1.4,0.3,1.8,1.9
			c0.1,0.7,0,0.9-0.3,1.2C6.4,5.5,6.1,5.9,6.1,6.6l0,0c0,0.3,0.1,0.5,0.2,0.6c0.1,0.2,0.1,0.3,0,0.6C6.1,8.3,5.5,8.3,5.3,8.3z"/>
	</g>
</g>
<path d="M21.2,3.1c0.1-0.1,0.1-0.3,0-0.4c-0.1-0.1-0.3-0.1-0.4,0c0,0-0.2,0.2-0.5,0.5C20,3.7,19.8,4,19.9,4.3
	c0,0.1,0,0.2,0.1,0.3c0.1,0.2,0.3,0.2,0.5,0.1c0.1-0.1,0.1-0.2,0.1-0.3V4.3c0,0,0-0.2,0.3-0.6C21,3.4,21.2,3.1,21.2,3.1z"/>
<g>
	<g>
		<path d="M18.9,14.3c0-0.1-0.1-0.1-0.2-0.2c-0.1,0-0.1,0-0.2,0c-0.1,0.1-0.2,0.2-0.2,0.4c0.3,0.7,0.5,1.4,0.6,1.8h-0.2
			l0,0c-0.1-0.2-0.2-0.5-0.5-0.8c-0.1-0.1-0.3-0.1-0.4-0.1s-0.1,0.1-0.1,0.2c0,0.1,0,0.1,0.1,0.2c0.3,0.4,0.4,0.8,0.5,0.9l0,0
			c0,0.1,0.1,0.2,0.3,0.2h0.7c0.1,0,0.2,0,0.2-0.1c0.1-0.1,0.1-0.1,0.1-0.2C19.5,16.5,19.3,15.4,18.9,14.3z"/>
	</g>
</g>
<g>
	<g>
		<path d="M25.9,14.6c-0.1,0-0.3,0-0.4,0.2c-0.3,0.8-0.5,1.3-0.7,1.5h-0.3c-0.2,0-0.3,0.1-0.3,0.3l0,0
			c0,0.2,0.1,0.3,0.3,0.3h0.4c0.1,0,0.2,0,0.2-0.1c0,0,0.4-0.6,0.8-1.7c0-0.1,0-0.1,0-0.2C26,14.7,26,14.7,25.9,14.6z"/>
	</g>
</g>
<g>
	<g>
		<path d="M29.2,7.1c-0.1-0.2-0.3-0.3-0.5-0.4S28.2,6.6,28,6.6c-0.1,0-0.2,0.1-0.2,0.3c0,0.1,0.1,0.2,0.2,0.3
			c0.1,0,0.1,0.1,0.1,0.1v0.1c0,0,0,0-0.1,0s-0.2-0.1-0.3-0.2c-0.1-0.1-0.4-0.6-1-1.1c-0.4-0.3-0.9-0.6-1.4-0.7
			c-0.7-0.2-1.4-0.3-2.2-0.2c-0.9,0-1.8,0.2-2.6,0.4c-0.8,0.2-1.6,0.3-2.4,0.4H18c-1.5,0-2.6,0-4.7,0.9c-0.3-0.2-1-0.6-2.2-0.7
			c-0.1,0-0.1,0-0.2,0.1c-0.1,0-0.2,0.2-0.1,0.4c0,0.1,0,0.2,0.1,0.3c0.1,0,0.3,0.2,0.4,0.5c0.2,0.3,0.4,0.6,0.5,0.7
			c-0.1,0.2-0.2,0.6-0.4,1c-0.3,0.7-0.7,1.1-1,1.3c-0.2,0-0.4,0-0.6,0.2c-0.1,0.1-0.2,0.3-0.1,0.4c0.1,0.3,0.2,1,0.4,1.4
			c0.1,0.3,0.3,0.5,0.6,0.6c0.2,0.1,0.5,0.1,0.8,0.1c0.5,0,1.1,0,2,0.2c0.4,0.1,0.8,0.2,1.2,0.2s0.8-0.1,1-0.1
			c0.5,1.2,0.1,2.1-0.1,2.6c-0.1,0.3-0.3,0.6-0.1,0.8c0.1,0.1,0.1,0.1,0.2,0.1h0.8c0.1,0,0.2-0.1,0.3-0.2c0.1-0.2,0.2-0.3,0.2-0.5
			c0.3-0.7,0.6-1.3,1-1.8c0.2-0.2,0.2-0.5,0.3-0.8c0-0.1,0-0.4,0-0.6c0-0.4-0.1-1.2-0.2-1.7c0-0.1-0.1-0.1-0.1-0.2
			c-0.1,0-0.1,0-0.2,0c-0.1,0.1-0.2,0.2-0.2,0.4c0.2,0.6,0.2,1.8,0.2,1.8c0,0.1,0,0.6-0.2,0.8c-0.4,0.6-0.7,1.2-1,1.9l0,0
			c-0.1,0.1-0.1,0.2-0.2,0.3h-0.3v-0.1c0.3-0.6,0.8-1.7,0-3.3c0,0-0.2-0.4-0.3-0.9c0-0.2-0.2-0.3-0.3-0.2c-0.2,0-0.2,0.2-0.2,0.3
			c0.1,0.3,0.1,0.5,0.2,0.7c-0.4,0.1-1.1,0.1-1.9-0.1l0,0c-1-0.2-1.6-0.2-2.1-0.2c-0.6,0-0.7,0-0.8-0.3s-0.3-0.9-0.3-1.2
			c0,0,0.1,0,0.2,0h0.1c0.5-0.2,1-0.8,1.4-1.6c0.3-0.6,0.4-1.2,0.4-1.2c0-0.1,0-0.2,0-0.2S12.3,7.8,12,7.4c-0.1-0.2-0.2-0.4-0.3-0.5
			c0,0,0,0,0-0.1c0.3,0,0.7,0.1,0.9,0.2c0.3,0.2,0.5,0.3,0.5,0.3c0.1,0.1,0.2,0.1,0.3,0c2-0.9,3-0.9,4.6-0.9h0.1
			c0.8,0,1.7-0.2,2.5-0.4c0.8-0.2,1.6-0.3,2.5-0.4c1.3-0.1,2.4,0.2,3.2,0.8c0.6,0.5,0.9,0.9,0.9,0.9s0,0,0,0.1c0,0,0.4,0.4,0.8,0.4
			c0.1,0,0.3-0.1,0.5-0.3l0,0c0,0,0.1-0.2,0.1-0.3c0,0,0,0,0,0.1c0.1,0.2,0.1,0.4-0.1,0.6S28,8,28,8c-0.1,0-0.2,0-0.3,0.1
			c-0.1,0.1-0.1,0.2,0,0.3c0,0,0.4,0.8,0.2,2c-0.1,0.7-0.3,1.1-0.5,1.5c-0.1,0.3-0.3,0.5-0.3,0.9s0.1,0.6,0.2,0.8
			c0.1,0.1,0.1,0.2,0.2,0.3c0.2,0.6,0,2,0,2.3h-0.3c0-0.3-0.1-0.7-0.1-1.3c0-0.2-0.1-0.4-0.2-0.6c-0.1-0.1-0.3-0.2-0.4,0
			c-0.1,0.1-0.1,0.2,0,0.3s0.1,0.2,0.1,0.4c0.1,0.9,0.1,1.5,0.1,1.5c0,0.2,0.1,0.3,0.3,0.3h0.8c0.1,0,0.3-0.1,0.3-0.2
			c0,0,0.1-0.5,0.1-1.1c0.1-0.8,0-1.4-0.1-1.8c-0.1-0.2-0.1-0.3-0.2-0.4c-0.1-0.2-0.2-0.3-0.2-0.5s0.1-0.4,0.2-0.6
			c0.2-0.3,0.4-0.8,0.5-1.6s0-1.5-0.1-1.9c0.2,0,0.4-0.1,0.6-0.3s0.3-0.4,0.3-0.6C29.3,7.5,29.3,7.3,29.2,7.1z"/>
	</g>
</g>
<g>
	<g>
		<path d="M25.1,14.1c0.2-0.1,0.4-0.3,0.6-0.5c0.4-0.5,0.5-1.4,0.2-2.4l0,0c0.1,0,0.4,0,0.6,0.1c0.1,0,0.2,0,0.2,0
			c0.1,0,0.1-0.1,0.1-0.2c0.1-0.5,0-0.9-0.1-1.3C26.5,9.5,26.3,9.2,26,9c-0.5-0.3-1-0.4-1.5-0.2s-0.8,0.7-0.9,1.4l0,0
			c-0.1,0.8-0.4,1.1-1,1.2c-0.4,0-1-0.1-1.1-0.6c0.2-0.3,0.2-0.7,0.2-0.7c-0.1-0.5,0.1-0.8,0.1-0.8s0,0,0-0.1s0-0.2,0-0.3
			c0-0.3-0.3-0.6-0.6-0.7C21.2,8.1,21,8,20.8,8h-0.1c-0.1-0.1-0.3-0.2-0.5-0.2c-0.4,0-0.7,0.3-0.7,0.7c0,0.1,0,0.2,0,0.2
			s0,0.1,0.1,0.1c0.1,0.2,0.2,0.3,0.2,0.4c0,0.1-0.1,0.2-0.1,0.2l0,0l0,0c-0.1,0.1-0.1,0.2-0.2,0.3L19.1,10C19,10.1,19,10.2,19,10.3
			s0.1,0.2,0.2,0.2l0.3,0.1c-0.1,0.1-0.2,0.2-0.2,0.3c-0.1,0.2-0.2,0.5-0.2,0.7c0,0.3,0.1,0.5,0.3,0.6c0.1,0,0.2,0.1,0.3,0.1
			c0.1,0,0.1,0,0.2,0c-0.1,0.8,0.2,1.4,0.5,1.7c0.3,0.4,0.7,0.7,1.1,0.9c0,0.2,0.2,0.5,0.4,0.7c0.2,0.2,0.4,0.3,0.6,0.3v0.4h-0.6
			c-0.1,0-0.3,0.1-0.3,0.3c0,0.1,0.1,0.3,0.2,0.3h0.9h0.4c0.1,0,0.3-0.1,0.3-0.3c0-0.1-0.1-0.3-0.3-0.3h-0.2v-0.4
			c0.2,0,0.4-0.2,0.6-0.3c0.2-0.2,0.3-0.3,0.3-0.5C24,15,24,15,24.1,15C24.5,14.8,24.8,14.5,25.1,14.1z M20,11.5
			c-0.1,0.3-0.3,0.4-0.4,0.4l0,0c0,0,0,0,0-0.1s0-0.3,0.1-0.4c0.1-0.2,0.2-0.3,0.3-0.3c0,0,0,0,0.1,0c0,0,0,0,0,0.1
			C20.2,11.1,20.1,11.3,20,11.5z M20.2,10.5l-0.1-0.1c0-0.1-0.1-0.1-0.2-0.1h-0.1c0,0,0,0,0.1,0c0.1-0.1,0.1-0.1,0.1-0.2l0,0
			c0-0.1,0-0.1,0.1-0.2l0,0l0,0c0,0,0.1-0.2,0.2-0.4c0-0.2,0-0.5-0.3-0.8l0,0c0-0.1,0.1-0.2,0.2-0.2s0.1,0,0.1,0.1s0.1,0.1,0.2,0.1
			s0.2,0,0.2,0h0.1c0.1,0,0.1,0,0.2,0.1C21,8.9,21.2,9,21.3,9l0,0c0.1,0,0.2,0.1,0.2,0.2l0,0c-0.1,0.1-0.3,0.5-0.2,1.1l0,0
			c0,0,0,0.2-0.1,0.4c-0.1,0.1-0.2,0.1-0.4,0.1l0,0l0,0c-0.1,0-0.1,0-0.1,0C20.4,10.7,20.3,10.6,20.2,10.5z M24.5,13.9
			c-0.1,0.2-0.3,0.4-0.4,0.5c-0.2,0.1-0.3,0.2-0.5,0.2l0,0c-0.1,0-0.2,0.1-0.3,0.3c0,0.1-0.1,0.3-0.2,0.4c-0.1,0.1-0.3,0.2-0.5,0.2
			s-0.4-0.1-0.5-0.2c-0.1-0.1-0.2-0.3-0.2-0.4c0-0.1-0.1-0.2-0.2-0.3c-0.4-0.2-0.7-0.4-1-0.8c-0.4-0.5-0.5-1.2-0.2-2
			c0.1-0.1,0.1-0.3,0.1-0.4c0.2,0,0.3,0,0.4-0.1c0.1,0.2,0.3,0.4,0.5,0.6c0.2,0.1,0.5,0.2,0.9,0.2c0.1,0,0.1,0,0.2,0
			c0.4,0,0.8-0.2,1-0.5s0.4-0.7,0.4-1.2l0,0l0,0c0.1-0.5,0.3-0.9,0.6-1c0.3-0.1,0.6-0.1,0.9,0.1c0.4,0.3,0.6,0.7,0.6,1.3
			c0,0,0,0-0.1,0c-0.4-0.1-0.6-0.1-0.8,0.1c-0.1,0.1-0.2,0.3-0.1,0.6c0.2,0.9,0.2,1.5-0.1,1.9c-0.1,0.1-0.3,0.3-0.4,0.3
			C24.8,13.6,24.6,13.7,24.5,13.9z"/>
	</g>
</g>
</svg>
