<?xml version="1.0" encoding="utf-8"?>
<!-- Generator: Adobe Illustrator 27.2.0, SVG Export Plug-In . SVG Version: 6.00 Build 0)  -->
<svg version="1.1" id="Слой_1" xmlns="http://www.w3.org/2000/svg" xmlns:xlink="http://www.w3.org/1999/xlink" x="0px" y="0px"
	 viewBox="0 0 24.2 24.5" style="enable-background:new 0 0 24.2 24.5;" xml:space="preserve"
	 stroke-width="0.6" stroke="#697A21" fill="#697A21">

<g>
	<g>
		<path d="M23.9,7.2c-0.1-0.2-0.3-0.3-0.5-0.4c0-0.2-0.1-0.4-0.2-0.6C23,6,22.8,5.8,22.5,5.8S22,5.8,21.8,6
			c-0.4,0.3-0.5,0.8-0.3,1.2l-1.4,1c-0.2-0.2-0.4-0.3-0.6-0.3s-0.4,0-0.6,0.1l-0.4,0.3c-0.2,0.1-0.3,0.2-0.5,0.3
			c-1.3-1.4-3.4-2.3-6.2-2.6c-2.3-0.3-4,0.1-5.2,1.2c-1.3,1.1-2,3-2,5.3c0,0.1,0,0.2,0,0.4c-2.6,0.6-3.7,1.9-4.2,2.7
			c-0.1,0.2-0.2,0.5-0.2,0.8l0,0l0,0v3.1c0,0.3,0.1,0.5,0.1,0.7c0.8,1.5,4.1,2.7,6.6,2.8c0.1,0,0.2,0,0.4,0c1,0,2.1-0.2,2.6-1
			c1.2-1.9,2.9-2,2.9-2c1.5-0.2,2.7-0.5,3.4-1c0.4-0.3,0.6-0.8,0.6-1.3c0-0.4,0-1.1-0.1-1.9c0.8-0.1,1.3-0.4,1.7-1
			c0.5-0.5,0.8-1.1,0.9-1.8c0-0.1,0-0.2,0-0.3c0.1-0.8,0.4-1.4,0.9-1.8l0.4-0.3c0.3-0.2,0.4-0.6,0.2-1l1.4-1.1
			c0.3,0.3,0.8,0.3,1.2,0C24.1,8.3,24.2,7.6,23.9,7.2z M0.7,15.8C1.2,15,2.9,13,7.8,13c1.2,0,2.6,0.1,4.2,0.4h0.1
			c1.4,0.1,3.7,0.6,4,1.6v0.1c-0.3,0.3-1.2,0.9-3.4,1.1c-0.1,0-1.9,0.1-3.3,2.2c-0.5,0.7-2.1,1-4.1,0.6c-2.5-0.5-4.6-1.6-4.8-2.6
			C0.6,16.1,0.6,15.9,0.7,15.8z M6.6,12.5c0-0.3,0.2-1.2,1-1.3s1.7-1.1,2.3-1.8c-0.2,1.1-0.5,2.3-0.8,3.1
			C8.2,12.5,7.4,12.5,6.6,12.5z M15.9,18.6c-0.4,0.3-1.3,0.7-3.2,0.9c-0.1,0-1.9,0.1-3.3,2.2c-0.3,0.5-1.3,0.8-2.6,0.7
			c-2.6-0.1-5.6-1.3-6.2-2.5c-0.1-0.1-0.1-0.3-0.1-0.5v-2.3c0.9,1,2.9,1.8,4.7,2.2c0.7,0.1,1.3,0.2,1.9,0.2c1.3,0,2.2-0.3,2.6-1
			c1.2-1.9,2.9-2,2.9-2c1.9-0.2,2.9-0.6,3.4-1c0.1,0.8,0.1,1.6,0.1,2.1C16.3,18,16.2,18.4,15.9,18.6z M20.5,10.3l-0.4,0.3
			c-0.6,0.4-1,1.2-1.1,2.1c0,0.1,0,0.2,0,0.3c-0.2,1.2-1.1,2.1-2.3,2.3c0-0.1,0-0.1,0-0.2l0,0c0-0.1,0-0.2,0-0.2
			c-0.3-1.4-3.2-1.8-4.2-1.9h-0.1h-0.1c-0.9-0.2-1.8-0.3-2.5-0.3c0.6-1.4,0.8-3.3,0.9-3.9c0-0.1,0-0.2-0.1-0.2s-0.2,0-0.3,0.1
			c-0.4,0.6-1.6,2.1-2.5,2.2c-1,0.2-1.4,1.3-1.4,1.8c-0.4,0-0.8,0.1-1.1,0.2c0-0.1,0-0.2,0-0.3c0-2.1,0.7-3.9,1.9-5
			c1.1-1,2.8-1.4,4.8-1.1c2.5,0.3,4.5,1.1,5.8,2.3c-0.3,0-0.6,0-1,0c-1-0.2-2.1,0-2.8,0.5c0,0-0.7,0.4-1.2,1.5
			c-0.1,0.1,0,0.2,0.1,0.3c0,0,0,0,0.1,0s0.2,0,0.2-0.1c0.5-0.9,1.1-1.3,1.1-1.3C14.5,9,15.5,8.9,16.4,9c0.9,0.2,1.7,0,2.3-0.4
			l0.4-0.3c0.1-0.1,0.2-0.1,0.2-0.1c0.1,0,0.3,0.1,0.4,0.3l0.1,0.1l0,0l0.7,1C20.7,9.8,20.7,10.1,20.5,10.3z M23.4,8.3
			c-0.2,0.2-0.6,0.1-0.8-0.1c-0.1-0.1-0.2-0.1-0.3,0l-1.5,1.1l-0.5-0.7l1.6-1.1C22,7.4,22,7.3,22,7.2c-0.2-0.3-0.1-0.6,0.1-0.8
			c0.1-0.1,0.3-0.1,0.4-0.1c0.2,0,0.3,0.1,0.4,0.2S23,6.8,23,7c0,0.1,0,0.1,0,0.2s0.1,0.1,0.2,0.1c0.2,0,0.3,0.1,0.4,0.2
			C23.7,7.7,23.7,8.1,23.4,8.3z"/>
	</g>
</g>
<path d="M5.6,17.5c0.8,0,1.5-0.6,1.5-1.3c0-0.7-0.7-1.3-1.5-1.3s-1.5,0.6-1.5,1.3C4.1,16.9,4.8,17.5,5.6,17.5z
	 M5.6,15.3c0.6,0,1.1,0.4,1.1,0.8c0,0.5-0.5,0.8-1.1,0.8s-1.1-0.4-1.1-0.8C4.5,15.7,5,15.3,5.6,15.3z"/>
</svg>
