<?xml version="1.0" encoding="utf-8"?>
<!-- Generator: Adobe Illustrator 27.2.0, SVG Export Plug-In . SVG Version: 6.00 Build 0)  -->
<svg version="1.1" id="Слой_1" xmlns="http://www.w3.org/2000/svg" xmlns:xlink="http://www.w3.org/1999/xlink" x="0px" y="0px"
	 viewBox="0 0 24.2 24.5" style="enable-background:new 0 0 24.2 24.5;" xml:space="preserve"
	 stroke-width="0.6" stroke="#697A21" fill="#697A21">
<path d="M16.8,14.4c-0.1,0-0.1,0-0.2-0.1c-0.7-0.8-1.6-1.3-2.5-1.8c-0.2-0.1-0.4-0.2-0.6-0.3c-0.1-0.1-0.2-0.2-0.1-0.3
	c0.1-0.1,0.2-0.2,0.3-0.1c0.2,0.1,0.4,0.2,0.6,0.3c0.9,0.5,1.7,0.9,2.4,1.6c0.4-0.9,1.1-1.6,1.8-2.3C20.1,9.8,21.8,8,20.9,4
	c-0.3-1.5-1.4-2.2-2.2-2.6c-1.1-0.5-2.5-0.6-4-0.4c-2.6,0.4-5.3,2.1-5,4.8C9.7,5.9,9.6,6,9.5,6S9.3,5.9,9.3,5.8
	c-0.2-1.4,0.4-2.6,1.5-3.6c1-0.9,2.4-1.5,3.9-1.7s3-0.1,4.2,0.4c1.4,0.6,2.2,1.6,2.5,2.9c0.2,1,0.3,1.9,0.2,2.8
	c-0.1,0.8-0.2,1.5-0.5,2.1c-0.5,1.2-1.4,2.1-2.2,3c-0.7,0.8-1.5,1.5-1.8,2.5C17,14.3,17,14.4,16.8,14.4
	C16.9,14.4,16.9,14.4,16.8,14.4z"/>
<path d="M11.9,4.7c-0.3,0-0.6-0.1-0.8-0.2s-0.4-0.4-0.6-0.6c-0.1,0-0.2,0.1-0.3,0.1C10.1,4,10,4,9.8,4
	C9.7,4,9.6,3.9,9.6,3.8c0-0.1,0.1-0.2,0.2-0.2c0.1,0,0.2,0,0.3,0s0.3-0.1,0.4-0.1c0.1,0,0.1,0,0.2,0c0.1,0,0.1,0.1,0.1,0.1
	C11,4,11.6,4.3,12.1,4.2c0.3-0.1,0.6-0.2,0.8-0.5c0-0.1,0.1-0.1,0.2-0.1c0.1,0,0.1,0,0.2,0.1C13.6,4,14,4.2,14.4,4.1
	C14.7,4,15,3.8,15.2,3.5c0-0.1,0.1-0.1,0.2-0.1c0.1,0,0.1,0,0.2,0.1c0.3,0.2,0.6,0.3,0.9,0.3c0.5-0.1,0.8-0.5,0.9-0.9
	c0-0.1,0.1-0.1,0.1-0.2c0.1,0,0.1,0,0.2,0c0.2,0.1,0.4,0.1,0.7,0.1c0.6-0.1,1-0.6,0.9-1.2c0-0.1,0.1-0.2,0.2-0.3
	c0.1,0,0.2,0.1,0.3,0.2c0.1,0.4-0.1,0.8-0.3,1.1c-0.2,0.3-0.6,0.5-1,0.6c-0.2,0-0.5,0-0.7,0c-0.2,0.5-0.7,0.9-1.2,1
	c-0.4,0.1-0.8,0-1.1-0.2c-0.2,0.3-0.6,0.5-1,0.6c-0.1,0-0.2,0-0.3,0c-0.4,0-0.8-0.1-1-0.4c-0.2,0.2-0.5,0.4-0.9,0.5
	C12.1,4.7,12,4.7,11.9,4.7z"/>
<path d="M14.2,14.5l-0.4-0.2l0,0c0,0,0.3-0.8-0.4-1.4c-0.1-0.1-0.1-0.2,0-0.3s0.2-0.1,0.3,0c0.5,0.4,0.7,0.9,0.7,1.3
	C14.4,14.2,14.3,14.4,14.2,14.5z"/>
<g>
	<g>
		<path d="M0.9,10.2c-0.1,0-0.2-0.1-0.2-0.2c0-0.4,0.5-1.3,1.5-1.6c0.1,0,0.2,0.1,0.3,0.2c0,0.1-0.1,0.2-0.2,0.3
			C1.4,9.1,1.1,9.8,1.1,10C1.1,10.1,1,10.2,0.9,10.2L0.9,10.2z"/>
	</g>
</g>
<path d="M12.2,15.5c-0.1,0-0.1,0-0.2-0.1c-0.1-0.1-0.1-0.2,0-0.3c1.3-1.5,1.5-3.1,1.7-4.6c0.1-1,0.3-2,0.7-2.8
	c-1-0.1-1.9-0.5-2.8-0.9C9.4,5.9,7.2,5,3.7,7.2c-1.5,1-1.7,2.5-1.6,3.7c0,0.1-0.1,0.2-0.2,0.2S1.7,11,1.7,10.9C1.6,10,1.7,9.3,2,8.6
	c0.3-0.8,0.8-1.4,1.5-1.8c0.9-0.6,1.7-1,2.5-1.2c0.7-0.2,1.5-0.3,2.2-0.3c1.3,0.1,2.5,0.5,3.6,1c1,0.4,2,0.8,3,0.8
	c0.1,0,0.2,0,0.2,0.1s0,0.2,0,0.2c-0.5,0.9-0.6,1.9-0.8,3c-0.1,0.8-0.2,1.6-0.5,2.4c-0.3,0.9-0.7,1.7-1.3,2.4
	C12.3,15.4,12.2,15.5,12.2,15.5z"/>
<path d="M4.2,8.2C4.1,8.2,4,8.1,4,8.1C3.9,8,3.9,7.8,4,7.7C5.1,7,6,6.6,7,6.5c0.7-0.1,1.5-0.1,2.3,0.1
	c0.7,0.2,1.4,0.5,2,0.7c0,0,0.1,0,0.1,0.1c0.1,0,0.2,0.2,0.1,0.3c0,0.1-0.2,0.2-0.3,0.1c0,0-0.1,0-0.1-0.1C10.5,7.4,9.8,7.2,9.2,7
	C8.5,6.9,7.8,6.8,7.1,7C6.2,7.1,5.3,7.5,4.3,8.1C4.3,8.2,4.2,8.2,4.2,8.2z"/>
<g>
	<g>
		<path d="M7.8,18.8c-0.2,0-0.4,0-0.5,0c-0.8-0.1-1.6-0.3-2.4-0.6c-0.8-0.4-1.5-0.9-2.1-1.6c-0.6-0.7-1.1-1.6-1.5-2.7
			S0.7,11.4,0.6,10c0-0.1,0.1-0.2,0.2-0.2s0.2,0,0.3,0.1c0,0,0.6,0.7,1.6,1.3c1.3,0.8,2.7,1,4.2,0.6c0.1,0,0.2,0,0.3,0.1
			c0,0,0.2,0.6,0.7,1.3c0.4,0.6,1.2,1.4,2.2,1.8c1.2,0.4,2.4,0.1,3.9-0.8c0.1,0,0.2,0,0.2,0c0.1,0.1,0.1,0.1,0.1,0.2
			c-0.1,0.6-0.4,1.3-0.9,1.8c-0.4,0.5-1,1-1.6,1.4c-0.7,0.4-1.4,0.7-2.1,0.9C9,18.7,8.4,18.8,7.8,18.8z M1.1,10.6
			c0.4,6.6,4.4,7.6,6.2,7.8c1.5,0.1,3-0.3,4.3-1c1.1-0.6,1.8-1.5,2.1-2.4c-1.3,0.7-2.6,0.9-3.8,0.5c-0.5-0.2-1-0.5-1.5-0.8
			c-0.4-0.3-0.7-0.7-1-1.1c-0.4-0.5-0.6-1-0.7-1.2c-0.8,0.2-1.6,0.2-2.4,0.1c-0.7-0.1-1.3-0.4-2-0.8C1.8,11.2,1.4,10.9,1.1,10.6z"/>
	</g>
</g>
<path d="M17.4,11.5c-0.1,0-0.1,0-0.1-0.1c-0.1-0.1-0.1-0.2,0-0.3c0.2-0.2,0.4-0.4,0.6-0.6c1.2-1.3,2.4-2.6,1.8-5.7
	c0-0.1,0.1-0.2,0.2-0.3c0.1,0,0.2,0.1,0.3,0.2c0.7,3.3-0.7,4.8-1.9,6.1c-0.2,0.2-0.4,0.4-0.6,0.6C17.5,11.5,17.4,11.5,17.4,11.5z"/>
<path d="M2.6,15.4c-0.2,0-0.5,0-0.7-0.1c-0.1,0-0.2-0.2-0.2-0.3s0.2-0.2,0.3-0.2c1.3,0.4,2.2-0.7,2.2-0.7
	c0.1-0.1,0.2-0.1,0.3,0c0.1,0.1,0.1,0.2,0,0.3c0,0-0.3,0.3-0.7,0.6C3.5,15.2,3.1,15.4,2.6,15.4z"/>
<path d="M4.9,17.9c-0.2,0-0.5,0-0.7-0.1c-0.1,0-0.2-0.2-0.2-0.3c0-0.1,0.2-0.2,0.3-0.2c0.5,0.2,1.1,0.1,1.6-0.2
	c0.4-0.2,0.6-0.5,0.6-0.5c0.1-0.1,0.2-0.1,0.3,0C7,16.8,7,16.9,6.9,17c0,0-0.3,0.3-0.7,0.6C5.8,17.8,5.3,17.9,4.9,17.9z"/>
<path d="M13.3,21.3c-0.1,1.3-0.7,2.2-1.9,2.9c-0.7,0.4-1.4,0.2-1.8-0.5C9.2,23,9.2,22,9.8,21.3c0.3-0.4,0.6-0.7,1-0.9
	c0.3-0.2,0.6-0.4,1-0.7c0.2-0.2,0.4-0.3,0.6-0.5c0.2-0.2,0.3-0.2,0.5,0l0.1,0.1c0.1,0.5,0.4,1,0.4,1.5
	C13.3,20.9,13.3,21.1,13.3,21.3z M12.4,19.6c-0.6,0.4-1.1,0.8-1.6,1.2c-0.3,0.2-0.5,0.5-0.7,0.8c-0.4,0.6-0.4,1.2-0.1,1.8
	c0.2,0.4,0.6,0.6,1.1,0.3c0.8-0.4,1.3-1,1.5-1.9C12.9,21.1,12.7,20.3,12.4,19.6z"/>
<path d="M17.4,23.7c-1.2,0-2.2-0.5-2.9-1.4c-0.3-0.3-0.4-0.6-0.5-1c-0.1-0.6,0.3-1.2,0.9-1.4c0.7-0.2,1.4-0.1,2.1,0.2
	c0.3,0.1,0.5,0.4,0.7,0.6s0.3,0.5,0.4,0.7c0.2,0.4,0.4,0.8,0.7,1.1c0.2,0.3,0.3,0.7-0.2,0.9c-0.1,0-0.2,0.1-0.3,0.1
	C18,23.6,17.7,23.6,17.4,23.7L17.4,23.7z M18.4,22.9c-0.4-0.5-0.6-1-0.9-1.5c-0.1-0.2-0.2-0.3-0.3-0.5c-0.1-0.1-0.2-0.3-0.4-0.4
	c-0.5-0.3-1.1-0.4-1.7-0.3c-0.3,0.1-0.6,0.4-0.6,0.7c0,0.3,0.1,0.6,0.3,0.9c0.7,0.8,1.6,1.3,2.7,1.2C17.8,23.1,18.1,23.1,18.4,22.9
	L18.4,22.9z"/>
<g>
	<g>
		<path d="M24.2,19.4c-0.1,0.9-0.5,1.6-1.3,2.1c-0.2,0.1-0.5,0.3-0.8,0.3c-0.5,0.1-0.9,0.2-1.4,0.4
			c-0.2,0-0.3,0.1-0.5,0.1c-0.1,0-0.2,0.1-0.3-0.1c-0.1-0.1-0.1-0.2,0-0.3c0.1-0.2,0.2-0.4,0.2-0.6c0-0.3,0-0.7,0.1-1
			c0.1-0.8,0.5-1.4,1.2-1.8c0.4-0.2,0.7-0.4,1.2-0.5C23.5,17.7,24.2,18.6,24.2,19.4L24.2,19.4z M20.5,21.7c0.1,0,0.1,0,0.2,0
			c0.4-0.1,0.8-0.2,1.2-0.3c0.2-0.1,0.5-0.2,0.7-0.3c0.6-0.3,1-0.9,1.1-1.6s-0.4-1.2-1-1.1c-0.4,0-0.8,0.2-1.1,0.5
			c-0.6,0.4-0.9,0.9-0.9,1.6C20.5,20.9,20.5,21.3,20.5,21.7L20.5,21.7z"/>
	</g>
</g>
<path d="M18.5,19.2c-0.6,0-1.1-0.1-1.5-0.2c-0.5-0.1-0.9-0.5-1.2-0.8c-0.2-0.2-0.4-0.4-0.6-0.7
	c-0.1-0.1-0.1-0.2-0.2-0.3c0-0.2,0-0.3,0.2-0.3c0.5,0,1-0.3,1.5-0.5s1-0.3,1.5-0.4c0.7,0,1.2,0.2,1.7,0.7c0.6,0.7,0.3,1.9-0.5,2.3
	C18.9,19.2,18.6,19.3,18.5,19.2z M15.6,17.2c0.2,0.2,0.4,0.5,0.6,0.7c0.3,0.3,0.6,0.5,1,0.6c0.3,0.1,0.7,0.1,1,0.2
	c0.3,0,0.5,0,0.8-0.1c0.5-0.2,0.9-1,0.3-1.6c-0.1-0.1-0.3-0.3-0.5-0.4c-0.3-0.2-0.7-0.1-1.1-0.1C17,16.6,16.3,17,15.6,17.2z"/>
<path d="M12,20.5c0,0,0.1,0.1,0.2,0.2c0.1,0.1,0,0.2-0.1,0.3c-0.4,0.2-0.5,0.6-0.7,0.9c0,0.1-0.1,0.2-0.1,0.3
	c-0.1,0.2-0.2,0.3-0.3,0.3c-0.2,0-0.2-0.2-0.1-0.4c0.1-0.5,0.3-0.9,0.7-1.2C11.6,20.7,11.7,20.5,12,20.5L12,20.5z"/>
<path d="M15.7,20.5c0.1,0,0.2,0,0.3,0.1c0.4,0.1,0.7,0.4,1,0.7c0.1,0.1,0.1,0.2,0.2,0.3c0,0.1,0,0.2-0.1,0.3
	c-0.1,0.1-0.2,0-0.3,0l-0.1-0.1c-0.3-0.3-0.6-0.5-1-0.7c-0.1,0-0.1,0-0.2-0.1c-0.1-0.1-0.2-0.1-0.1-0.3
	C15.4,20.6,15.5,20.5,15.7,20.5L15.7,20.5z"/>
<path d="M21.3,20.5c-0.2,0-0.3-0.1-0.3-0.2s0-0.2,0.1-0.3c0.3-0.3,0.6-0.6,0.9-0.9c0,0,0.1-0.1,0.2-0.1
	c0.1-0.1,0.2,0,0.3,0.1c0.1,0.1,0.1,0.2,0,0.3l-0.1,0.1c-0.3,0.2-0.6,0.6-0.9,0.9C21.5,20.4,21.4,20.4,21.3,20.5L21.3,20.5z"/>
<path d="M17.7,16.9c0.2,0,0.4,0.1,0.6,0.1c0.1,0,0.2,0,0.3,0.1c0.1,0.1,0.2,0.2,0.1,0.3c-0.1,0.1-0.2,0.2-0.3,0.1
	c-0.2,0-0.4-0.1-0.7-0.1c-0.1,0-0.2,0-0.4,0c-0.2,0-0.2-0.1-0.2-0.2s0.1-0.2,0.2-0.2c0,0,0,0,0.1,0C17.5,16.9,17.6,16.9,17.7,16.9
	L17.7,16.9L17.7,16.9z"/>
</svg>
