<?xml version="1.0" encoding="utf-8"?>
<!-- Generator: Adobe Illustrator 27.2.0, SVG Export Plug-In . SVG Version: 6.00 Build 0)  -->
<svg version="1.1" id="Слой_1" xmlns="http://www.w3.org/2000/svg" xmlns:xlink="http://www.w3.org/1999/xlink" x="0px" y="0px"
	 viewBox="0 0 24.2 24.5" style="enable-background:new 0 0 24.2 24.5;" xml:space="preserve"
	 stroke-width="0.5" stroke="#697A21" fill="#697A21">
<g>
	<g>
		<path class="st0" d="M12.1,24c-4.9,0-9.2-3.3-10.6-8c-0.1-0.2,0.1-0.4,0.3-0.5s0.4,0.1,0.5,0.3c1.3,4.4,5.3,7.4,9.9,7.4
			s8.6-3.1,9.9-7.4c0.1-0.2,0.3-0.3,0.5-0.3c0.2,0.1,0.3,0.3,0.3,0.5C21.3,20.7,17,24,12.1,24z"/>
	</g>
</g>
<path class="st0" d="M22,10.2c-0.1-0.2-0.1-0.5-0.2-0.7l0.7-0.3c0.1,0.2,0.2,0.5,0.2,0.8L22,10.2z"/>
<path class="st0" d="M20.4,6.8c-0.1,0-0.2,0-0.3-0.1c-0.2-0.2-0.4-0.5-0.6-0.7c-0.1-0.1-0.1-0.4,0-0.5s0.4-0.1,0.5,0
	c0.2,0.2,0.5,0.5,0.7,0.8c0.1,0.2,0.1,0.4-0.1,0.5C20.6,6.7,20.5,6.8,20.4,6.8z"/>
<path class="st0" d="M6.2,4.5C6.1,4.5,6,4.4,5.9,4.3C5.8,4.1,5.9,3.9,6,3.8C7.8,2.6,9.9,2,12.1,2c0.8,0,1.5,0.1,2.3,0.2
	c0.2,0,0.3,0.2,0.3,0.4s-0.2,0.3-0.4,0.3c-0.7-0.1-1.4-0.2-2.1-0.2c-2,0-4,0.6-5.7,1.7C6.4,4.5,6.3,4.5,6.2,4.5L6.2,4.5z"/>
<path class="st0" d="M2.2,10.2L1.5,10C2,8.3,2.9,6.7,4.1,5.4l0.5,0.5C3.5,7.1,2.7,8.6,2.2,10.2L2.2,10.2z"/>
<path class="st0" d="M16.7,3.8c-0.3-0.2-0.7-0.3-1.1-0.5l0.3-0.7C16.3,2.8,16.7,3,17,3.1L16.7,3.8L16.7,3.8z"/>
<g>
	<g>
		<g>
			<g>
				<path d="M23.5,16.3H0.7c-0.2,0-0.4-0.2-0.4-0.4c0-0.2,0.2-0.4,0.4-0.4h22.7c0.2,0,0.4,0.2,0.4,0.4
					C23.8,16.1,23.7,16.3,23.5,16.3z"/>
			</g>
		</g>
	</g>
	<g>
	</g>
</g>
<g>
	<g>
		<g>


			<g >
				<path d="M23.5,10.4H0.7c-0.2,0-0.4-0.2-0.4-0.4s0.2-0.4,0.4-0.4h22.7c0.2,0,0.4,0.2,0.4,0.4
					C23.8,10.3,23.7,10.4,23.5,10.4z"/>
			</g>
		</g>
	</g>
	<g>
	</g>
</g>
<path d="M2.6,14.8c-1,0-1.8-0.8-1.8-1.8s0.8-1.8,1.8-1.8S4.4,12,4.4,13S3.6,14.8,2.6,14.8z M2.6,11.9
	c-0.6,0-1.1,0.5-1.1,1.1s0.5,1.1,1.1,1.1s1.1-0.5,1.1-1.1C3.7,12.4,3.2,11.9,2.6,11.9z"/>
<path d="M18,14.8c-0.1,0-0.2,0-0.3-0.1l-1.2-1.4v1.2c0,0.2-0.2,0.4-0.4,0.4c-0.2,0-0.4-0.2-0.4-0.4v-2.2
	c0-0.2,0.1-0.3,0.2-0.3c0.1-0.1,0.3,0,0.4,0.1l1.2,1.4v-1.2c0-0.2,0.2-0.4,0.4-0.4c0.2,0,0.4,0.2,0.4,0.4v2.2c0,0.2-0.1,0.3-0.2,0.3
	H18L18,14.8z"/>
<path d="M14.7,14.8c-0.2,0-0.4-0.2-0.4-0.4v-1.1c0-0.4-0.3-0.7-0.7-0.7s-0.7,0.3-0.7,0.7v1.1c0,0.2-0.2,0.4-0.4,0.4
	s-0.4-0.2-0.4-0.4v-1.1c0-0.8,0.7-1.5,1.5-1.5s1.5,0.7,1.5,1.5v1.1C15,14.7,14.9,14.8,14.7,14.8z"/>
<path d="M14.7,14.1h-2.2c-0.2,0-0.4-0.2-0.4-0.4s0.2-0.4,0.4-0.4h2.2c0.2,0,0.4,0.2,0.4,0.4
	C15,13.9,14.9,14.1,14.7,14.1z"/>
<path d="M9.9,14.8c-0.8,0-1.5-0.7-1.5-1.5s0.7-1.5,1.5-1.5h0.4c0.2,0,0.4,0.2,0.4,0.4s-0.2,0.4-0.4,0.4H9.9
	c-0.4,0-0.7,0.3-0.7,0.7S9.5,14,9.9,14c0.3,0,0.5-0.2,0.6-0.4c-0.2,0-0.3-0.2-0.3-0.4s0.2-0.4,0.4-0.4H11c0.2,0,0.4,0.2,0.4,0.4
	C11.4,14.2,10.7,14.8,9.9,14.8z"/>
<path d="M22,14.8c-0.8,0-1.5-0.7-1.5-1.5s0.7-1.5,1.5-1.5h0.4c0.2,0,0.4,0.2,0.4,0.4s-0.2,0.4-0.4,0.4H22
	c-0.4,0-0.7,0.3-0.7,0.7S21.6,14,22,14c0.3,0,0.5-0.2,0.6-0.4c-0.2,0-0.3-0.2-0.3-0.4s0.2-0.4,0.4-0.4h0.4c0.2,0,0.4,0.2,0.4,0.4
	C23.5,14.2,22.8,14.8,22,14.8z"/>
<path d="M7.3,14.8c-0.2,0-0.4-0.2-0.4-0.4S6.7,14,6.5,14s-0.4-0.2-0.4-0.4s0.2-0.4,0.4-0.4S7,13.2,7,13
	s-0.2-0.4-0.4-0.4H5.9v1.8c0,0.2-0.2,0.4-0.4,0.4c-0.2,0-0.4-0.2-0.4-0.4v-2.2c0-0.2,0.2-0.4,0.4-0.4h1.1c0.6,0,1.1,0.5,1.1,1.1
	c0,0.3-0.1,0.5-0.3,0.7c0.2,0.2,0.3,0.5,0.3,0.7C7.7,14.7,7.5,14.8,7.3,14.8z"/>
<path d="M19.4,14.8c-0.2,0-0.4-0.2-0.4-0.4v-2.2c0-0.2,0.2-0.4,0.4-0.4c0.2,0,0.4,0.2,0.4,0.4v2.2
	C19.8,14.7,19.6,14.8,19.4,14.8z"/>
<g>
	<g>
		<path d="M15.4,7.9c-0.1,0-0.2,0-0.3-0.1c0-0.1-0.1-0.2-0.1-0.3c0-2.1,1-3.5,1.8-4.3c-2.5,0.5-2.8,2.3-2.9,2.5
			c0,0.2-0.2,0.3-0.4,0.3l0,0c-0.1,0-0.2-0.1-0.3-0.1c0-0.1-0.1-0.1-0.1-0.2c0-1.2,0.2-2.8,1.3-3.8c1.1-1.1,2.7-1.3,3.8-1.3
			c1,0,1.7,0.1,1.8,0.1c0.1,0,0.3,0.1,0.3,0.3c0,0,0.2,0.8,0.1,1.8c0,1.2-0.2,2.8-1.3,3.8C18.2,7.6,16.6,7.8,15.4,7.9L15.4,7.9
			L15.4,7.9z M18,2.3c0.2,0,0.3,0.1,0.4,0.3c0,0.2,0,0.3-0.2,0.4c-0.1,0.1-2.2,1.3-2.4,4.1C16.8,7,18,6.8,18.7,6
			c0.9-0.9,1.1-2.3,1.1-3.3c0-0.6,0-1.1-0.1-1.4c-0.3,0-0.8-0.1-1.4-0.1c-1,0-2.4,0.2-3.3,1.1c-0.4,0.4-0.6,0.8-0.8,1.3
			C14.9,3,16,2.3,18,2.3z"/>
	</g>
</g>
<g>
	<g>
		<path d="M20.2,10.4c-1.2,0-2.2-0.6-2.8-1.2c-0.1-0.1-0.2-0.3-0.1-0.5C17.6,8.3,18,8,18.4,7.8c-0.5,0-0.8,0-0.8,0
			c-0.2,0-0.3-0.1-0.3-0.2c-0.1-0.1,0-0.3,0.1-0.4C18,6.7,19,6,20.2,6c2,0,3.5,1.9,3.6,2c0.1,0.1,0.1,0.3,0,0.5
			C23.7,8.5,22.1,10.4,20.2,10.4L20.2,10.4z M18.1,8.9c0.5,0.4,1.3,0.8,2,0.8c1.3,0,2.4-1,2.8-1.5c-0.4-0.5-1.6-1.5-2.8-1.5
			c-0.5,0-1,0.2-1.5,0.4c0.6,0,1.4,0.1,2,0.3c0.2,0.1,0.3,0.2,0.2,0.4c0,0.2-0.2,0.3-0.4,0.3C20,8.2,18.8,8.4,18.1,8.9z"/>
	</g>
</g>
<path d="M6.1,6.8C5.5,6.8,4.6,6.6,4,6C3.1,5.1,3.3,3.5,3.3,3.4c0-0.2,0.1-0.3,0.3-0.3c0.1,0,1.7-0.2,2.6,0.7
	s0.7,2.5,0.7,2.6c0,0.2-0.1,0.3-0.3,0.3C6.6,6.7,6.4,6.8,6.1,6.8L6.1,6.8z M4,3.8C4,4.2,4,5,4.5,5.5S5.8,6,6.2,6
	c0-0.4,0-1.2-0.5-1.7C5.3,3.9,4.5,3.8,4,3.8z"/>
</svg>
