<?xml version="1.0" encoding="utf-8"?>
<!-- Generator: Adobe Illustrator 27.2.0, SVG Export Plug-In . SVG Version: 6.00 Build 0)  -->
<svg version="1.1" id="Слой_1" xmlns="http://www.w3.org/2000/svg" xmlns:xlink="http://www.w3.org/1999/xlink" x="0px" y="0px"
	 viewBox="0 0 24.2 24.5" style="enable-background:new 0 0 24.2 24.5;" xml:space="preserve"
	 stroke-width="0.5" stroke="#697A21" fill="#697A21">
<path d="M17.2,12.4C17.2,12.4,17.1,12.4,17.2,12.4l-4.8-1.7c-0.1,0-0.2-0.1-0.2-0.3V7.5c0-0.1,0.1-0.3,0.3-0.3
	c0.1,0,0.3,0.1,0.3,0.3v2.7l4.6,1.6c0.1,0,0.2,0.2,0.2,0.3C17.4,12.3,17.3,12.4,17.2,12.4"/>
<path d="M17.2,6.3C17.2,6.3,17.1,6.3,17.2,6.3l-4.8-1.7c-0.1,0-0.2-0.2-0.2-0.3c0-0.1,0.2-0.2,0.3-0.2l4.7,1.7
	c0.1,0,0.2,0.2,0.2,0.3C17.4,6.2,17.3,6.3,17.2,6.3"/>
<path d="M17.2,12.4c-0.1,0-0.1,0-0.2,0c-0.1-0.1-0.1-0.1-0.1-0.2V7.7c0-0.1,0.1-0.3,0.3-0.3c0.1,0,0.3,0.1,0.3,0.3v4.1
	l4.2-1.5V7.5c0-0.1,0.1-0.3,0.3-0.3s0.3,0.1,0.3,0.3v2.9c0,0.1-0.1,0.2-0.2,0.3L17.2,12.4C17.3,12.4,17.2,12.4,17.2,12.4"/>
<path d="M17.2,6.3c-0.1,0-0.2-0.1-0.3-0.2c0-0.1,0-0.3,0.2-0.3l4.7-1.7c0.1,0,0.3,0,0.3,0.2c0,0.1,0,0.3-0.2,0.3
	L17.2,6.3C17.3,6.3,17.2,6.3,17.2,6.3"/>
<g>
	<g>
		<path d="M18.8,7.9c-0.1,0-0.1,0-0.2-0.1L17,6.2c-0.1-0.1-0.1-0.3,0-0.4s0.3-0.1,0.4,0l1.5,1.5L23,5.8l-1.2-1.2
			l-4.7-1.5c-0.1,0-0.2-0.2-0.2-0.3s0.2-0.2,0.3-0.2L22,4.1c0,0,0.1,0,0.1,0.1l1.5,1.5c0.1,0.1,0.1,0.2,0.1,0.2
			c0,0.1-0.1,0.2-0.2,0.2L18.8,7.9C18.9,7.9,18.8,7.9,18.8,7.9"/>
	</g>
</g>
<g>
	<g>
		<path d="M15.6,7.9C15.6,7.9,15.5,7.9,15.6,7.9l-4.7-1.7c-0.1,0-0.1-0.1-0.2-0.2c0-0.1,0-0.2,0.1-0.2l1.5-1.5l0.1-0.1
			l4.7-1.5c0.1,0,0.3,0,0.3,0.2c0,0.1,0,0.3-0.2,0.3l-4.7,1.5l-1.2,1.2l4.1,1.5L17,5.8c0.1-0.1,0.3-0.1,0.4,0s0.1,0.3,0,0.4
			l-1.6,1.6C15.7,7.8,15.7,7.9,15.6,7.9"/>
	</g>
</g>
<g>
	<g>
		<path d="M5.9,17.3v4.8l4.3-1.8v-4.8L5.9,17.3z M5.6,22.8C5.5,22.8,5.5,22.8,5.6,22.8c-0.2,0-0.2-0.1-0.2-0.2v-5.4
			c0-0.1,0.1-0.2,0.2-0.2l4.8-2c0.1,0,0.2,0,0.3,0s0.1,0.1,0.1,0.2v5.4c0,0.1-0.1,0.2-0.2,0.2l-4.8,2C5.7,22.8,5.7,22.8,5.6,22.8"/>
	</g>
</g>
<g>
	<g>
		<path d="M5.6,22.8L5.6,22.8l-4.9-2c-0.1,0-0.2-0.1-0.2-0.2v-5.4c0-0.1,0-0.2,0.1-0.2s0.2-0.1,0.3,0l4.8,2
			c0.1,0.1,0.2,0.2,0.1,0.3c-0.1,0.1-0.2,0.2-0.3,0.1L1,15.6v4.8l4.7,1.9c0.1,0.1,0.2,0.2,0.1,0.3C5.8,22.7,5.7,22.8,5.6,22.8"/>
	</g>
</g>
<g>
	<g>
		<path d="M10.5,15.4C10.4,15.4,10.4,15.4,10.5,15.4l-4.8-1.8L1,15.4c-0.1,0.1-0.3,0-0.3-0.2c-0.1-0.1,0-0.3,0.2-0.3
			L5.5,13c0.1,0,0.1,0,0.2,0l4.8,1.9c0.1,0.1,0.2,0.2,0.2,0.3S10.6,15.4,10.5,15.4"/>
	</g>
</g>
<path d="M12.5,22.3c-0.8,0-1.3-0.1-1.3-0.1C11,22.2,11,22,11,21.9s0.2-0.2,0.3-0.2c0,0,3.2,0.6,5.6-1.3
	c1.6-1.2,2.6-3.3,2.8-6.1c0-0.1,0.1-0.3,0.3-0.2c0.1,0,0.3,0.1,0.2,0.3c-0.2,3-1.2,5.2-3,6.5C15.6,22.1,13.8,22.3,12.5,22.3"/>
<path d="M21.2,14.7c-0.1,0-0.2,0-0.2-0.1l-0.9-1.2l-1.2,0.9c-0.1,0.1-0.3,0.1-0.4,0s-0.1-0.3,0-0.4l1.4-1.1
	c0.1,0,0.1-0.1,0.2-0.1s0.1,0,0.2,0.1l1.1,1.4c0.1,0.1,0.1,0.3,0,0.4C21.3,14.6,21.3,14.7,21.2,14.7"/>
<path d="M2,11.4L2,11.4c-0.2,0-0.3-0.1-0.3-0.3C2,8.2,3,6,4.7,4.6c2.6-2,5.9-1.4,6.1-1.4c0.1,0,0.2,0.2,0.2,0.3
	s-0.2,0.2-0.3,0.2c0,0-3.2-0.6-5.6,1.3c-1.6,1.2-2.6,3.3-2.8,6.1C2.3,11.3,2.2,11.4,2,11.4"/>
<g>
	<g>
		<path d="M1.8,12.7L1.8,12.7c-0.1,0-0.2,0-0.2-0.1l-1.1-1.4c-0.1-0.1-0.1-0.3,0-0.4c0.1-0.1,0.3-0.1,0.4,0L1.8,12
			L3,11.2c0.1-0.1,0.3-0.1,0.4,0c0.1,0.1,0.1,0.3,0,0.4l-1.4,1C2,12.7,1.9,12.7,1.8,12.7"/>
	</g>
</g>
</svg>
