<?xml version="1.0" encoding="utf-8"?>
<!-- Generator: Adobe Illustrator 27.2.0, SVG Export Plug-In . SVG Version: 6.00 Build 0)  -->
<svg version="1.1" id="Слой_1" xmlns="http://www.w3.org/2000/svg" xmlns:xlink="http://www.w3.org/1999/xlink" x="0px" y="0px"
	 viewBox="0 0 24.2 24.5" style="enable-background:new 0 0 24.2 24.5;" xml:space="preserve"
	 stroke-width="0.5" stroke="#697A21" fill="#697A21">

<path d="M4.7,20c0-0.6-0.5-1.1-1.1-1.1S2.4,19.4,2.4,20s0.5,1.1,1.1,1.1C4.1,21.2,4.7,20.7,4.7,20z M3.5,20.5
	C3.2,20.5,3,20.3,3,20c0-0.2,0.2-0.4,0.4-0.4s0.4,0.2,0.4,0.4C3.9,20.3,3.7,20.5,3.5,20.5z"/>
<path d="M5.8,20c0-1.3-1-2.3-2.3-2.3s-2.3,1-2.3,2.3s1,2.3,2.3,2.3S5.8,21.3,5.8,20z M1.9,20c0-0.9,0.7-1.6,1.6-1.6
	s1.6,0.7,1.6,1.6c0,0.8-0.7,1.6-1.6,1.6S1.9,20.9,1.9,20z"/>
<path d="M10.4,20c0-0.6-0.5-1.1-1.1-1.1S8.2,19.4,8.2,20s0.5,1.1,1.1,1.1C9.9,21.2,10.4,20.7,10.4,20z M9.3,20.5
	c-0.2,0-0.4-0.2-0.4-0.4c0-0.2,0.2-0.4,0.4-0.4s0.4,0.2,0.4,0.4S9.5,20.5,9.3,20.5z"/>
<path d="M11.5,20c0-1.3-1-2.3-2.3-2.3s-2.3,1-2.3,2.3s1,2.3,2.3,2.3S11.5,21.3,11.5,20z M7.7,20c0-0.9,0.7-1.6,1.6-1.6
	c0.9,0,1.6,0.7,1.6,1.6c0,0.8-0.7,1.6-1.6,1.6S7.7,20.9,7.7,20z"/>
<path d="M16.1,20c0-0.6-0.5-1.1-1.1-1.1s-1.1,0.5-1.1,1.1s0.5,1.1,1.1,1.1C15.6,21.2,16.1,20.7,16.1,20z M15,20.5
	c-0.2,0-0.4-0.2-0.4-0.4c0-0.2,0.2-0.4,0.4-0.4s0.4,0.2,0.4,0.4C15.5,20.3,15.2,20.5,15,20.5z"/>
<path d="M17.3,20c0-1.3-1-2.3-2.3-2.3s-2.3,1-2.3,2.3s1,2.3,2.3,2.3C16.2,22.3,17.3,21.3,17.3,20z M13.4,20
	c0-0.9,0.7-1.6,1.6-1.6s1.6,0.7,1.6,1.6c0,0.8-0.7,1.6-1.6,1.6C14.1,21.6,13.4,20.9,13.4,20z"/>
<path d="M21.9,20c0-0.6-0.5-1.1-1.1-1.1s-1.1,0.5-1.1,1.1s0.5,1.1,1.1,1.1C21.3,21.2,21.9,20.7,21.9,20z M20.8,20.5
	c-0.2,0-0.4-0.2-0.4-0.4c0-0.2,0.2-0.4,0.4-0.4c0.2,0,0.4,0.2,0.4,0.4C21.2,20.3,21,20.5,20.8,20.5z"/>
<path d="M23,20c0-1.3-1-2.3-2.3-2.3s-2.3,1-2.3,2.3s1,2.3,2.3,2.3S23,21.3,23,20z M19.1,20c0-0.9,0.7-1.6,1.6-1.6
	s1.6,0.7,1.6,1.6c0,0.8-0.7,1.6-1.6,1.6C19.9,21.6,19.1,20.9,19.1,20z"/>
<g>
	<g>
		<g>
			<g>
				<path d="M23.4,22.4H0.9c-0.2,0-0.3,0.1-0.3,0.3v1.4c0,0.2,0.1,0.3,0.3,0.3h22.4c0.2,0,0.3-0.1,0.3-0.3v-1.4
					C23.7,22.6,23.5,22.4,23.4,22.4z M23,23.8H1.3v-0.7H23V23.8L23,23.8z"/>
			</g>
		</g>
	</g>
</g>
<path d="M23.4,15.6h-1.5c0-0.8,0-2.6-0.1-3.1c-0.1-0.8-1-1.2-1.1-1.2l-1.5-0.5c0.2-0.2,0.8-1.1,1-1.7
	c0.6-0.2,0.8-1.5,0.2-1.9V6.4c0.6-0.4,1-1.2,1-1.9c0-1-0.6-1.8-1.5-2.1c-0.5-2.5-4.1-2.5-4.6,0c-1.8,0.6-2.1,3-0.4,4v0.9
	c-0.6,0.3-0.5,1.6,0.2,1.9c0.1,0.5,0.8,1.5,1,1.7c-1,0.3-2.4,0.5-2.6,1.7c-0.1,0.5-0.1,2.4-0.1,3.1h-2.5c0-0.8,0-2.6-0.1-3.1
	c-0.1-0.8-1-1.2-1.1-1.2l-1.5-0.5c0.1-0.1,0.8-1.1,1-1.7C9.8,9,10,7.7,9.4,7.3V6.4c0.7-0.4,1.1-1.1,1.1-1.9c0-1-0.6-1.8-1.5-2.1
	c-0.5-2.5-4-2.5-4.5,0c-1,0.2-1.6,1-1.6,2c0,0.8,0.4,1.5,1.1,1.9v0.9C3.3,7.6,3.5,8.8,4.2,9.1c0.1,0.5,0.8,1.5,1,1.7l-1.5,0.5
	c0,0-0.9,0.3-1,1.2c-0.1,0.5-0.1,2.4-0.1,3.1H0.9c-0.2,0-0.3,0.1-0.3,0.3v1.4c0,0.2,0.1,0.3,0.3,0.3h22.4c0.2,0,0.3-0.1,0.3-0.3
	v-1.4C23.7,15.7,23.5,15.6,23.4,15.6z M14.5,4.4c0-0.7,0.5-1.4,1.2-1.5c0.1,0,0.2-0.1,0.3-0.3c0.2-2,3-2,3.2,0
	c0,0.1,0.1,0.3,0.2,0.3c0.7,0.1,1.2,0.8,1.2,1.5c0,0.6-0.3,1.1-0.9,1.4c-0.3,0.1-0.1,0.5-0.2,1.2h-4c0-0.7,0.1-1.1-0.2-1.2
	C14.8,5.5,14.5,5,14.5,4.4z M15.6,8.7c0-0.2-0.3-0.2-0.3-0.2c-0.1-0.1-0.2-0.4-0.1-0.6c0.1,0,0.1,0,0.2-0.1h4.3c0,0,0.1,0.1,0.2,0.1
	c0.1,0.2,0,0.5-0.1,0.6c-0.1,0-0.3,0.1-0.3,0.3c-0.1,0.5-0.3,0.7-0.8,1.5s-1.6,0.8-2.2,0C16,9.4,15.8,9.2,15.6,8.7z M14.2,12.6
	c0-0.4,0.6-0.6,0.6-0.6l2-0.6c0.5,0.2,1,0.2,1.6,0l2,0.6c0,0,0.5,0.2,0.6,0.6c0.1,0.4,0.1,2.1,0.1,3h-7C14.1,14.7,14.1,13,14.2,12.6
	z M3.6,4.4c0-0.7,0.5-1.4,1.2-1.5C4.9,2.8,5,2.7,5,2.6c0.2-2,3-2,3.2,0c0,0.1,0.1,0.3,0.2,0.3C9.2,3,9.7,3.7,9.7,4.4
	c0,0.6-0.3,1.1-0.9,1.4C8.7,5.8,8.6,6,8.6,6.1v1h-4c0-0.7,0.1-1.1-0.2-1.2C3.9,5.5,3.6,5,3.6,4.4z M4.4,8.4C4.3,8.3,4.2,8,4.3,7.8
	c0.1,0,0.1,0,0.2-0.1h4.3c0,0,0.1,0.1,0.2,0.1C9.1,8,9,8.3,8.9,8.5c-0.4,0-0.3,0.4-0.6,0.9C7.8,10,7.7,10.5,7,10.7
	C5.8,11,5.3,9.8,5,9.3C4.6,8.7,4.9,8.6,4.4,8.4z M3.3,12.6c0-0.4,0.6-0.6,0.6-0.6l2-0.6c0.5,0.2,1.1,0.2,1.6,0l2,0.6
	c0,0,0.5,0.2,0.6,0.6c0.1,0.4,0.1,2.1,0.1,3h-7C3.2,14.7,3.2,13,3.3,12.6z M23,16.9H1.3v-0.7c0,0,21.9,0,21.7,0V16.9L23,16.9z"/>
</svg>
