<?xml version="1.0" encoding="utf-8"?>
<!-- Generator: Adobe Illustrator 27.2.0, SVG Export Plug-In . SVG Version: 6.00 Build 0)  -->
<svg version="1.1" id="Слой_1" xmlns="http://www.w3.org/2000/svg" xmlns:xlink="http://www.w3.org/1999/xlink" x="0px" y="0px"
	 viewBox="0 0 24.2 24.5" style="enable-background:new 0 0 24.2 24.5;" xml:space="preserve"
	 stroke-width="0.5" stroke="#697A21" fill="#697A21">
<g>
	<g>
		<g>
			<g>
				<path d="M0.7,13.5c-0.8,1.5-0.4,3-0.2,3.6c0.1,0.3,0.4,0.3,0.7,0.3c0.8,0,1.6-0.2,2.2-0.6s1.2-0.9,1.6-1.6
					c0.2-0.3,0.6-0.4,0.9-0.2c1.2,1.1,2.5,1.9,3.8,2.5c-0.9,1.5,0.2,2.9,1.9,2.9c1.4,0,2.6-0.7,3.9-2c3.7-0.5,6.4-2.7,7.8-4.1
					c1-1,1-2.5,0-3.5c-1.4-1.6-4.9-3.8-7.7-4.1c-1.3-1.4-2.7-2.2-4.1-2.4c-3-0.4-4.3,1.8-2.6,4.1c0.2,0.2,0.4,0.3,0.6,0.2
					c1.8-1,3.9-1.3,5.9-1.1c0.6,0.1,1.2,0.2,1.8,0.4c-0.3,0.5-0.5,1-0.7,1.6c-0.7,2-0.7,4.1,0,6.1c0.2,0.5,1,0.3,0.8-0.3
					c-0.8-2.3-0.5-5,0.7-7.1c2.1,0.8,3.7,2.2,4.7,3.2c0.6,0.6,0.6,1.7,0,2.3c-1.6,1.6-4.9,4.2-9.5,3.9c-2.3-0.2-4.6-1.2-6.8-3.2
					c-0.3-0.3-0.7-0.4-1.2-0.3c-0.4,0.1-0.8,0.3-1.1,0.7c-0.3,0.6-0.8,1-1.3,1.3c-0.5,0.3-1.1,0.5-1.7,0.5C1,16.1,0.8,15,1.4,14
					c0.3-0.5,0.7-0.9,1-1.1c0.3-0.2,0.2-0.6,0-0.7c-1.2-0.7-1.7-2.4-1.3-3.7c0.6,0,1.2,0.2,1.8,0.5c0.5,0.3,0.9,0.7,1.3,1.3
					c0.4,0.8,1.6,1,2.2,0.4c0.4-0.4,0.8-0.7,1.2-0.9c0.2-0.1,0.2-0.4,0.1-0.6C7.6,8.9,7.3,8.8,7.1,9c-0.4,0.3-0.8,0.6-1.2,1
					c-0.1,0.1-0.3,0.2-0.5,0.1C5.2,10.1,5,10,4.9,9.8C4.5,9.1,4,8.6,3.3,8.2C2.6,7.8,1.7,7.6,0.8,7.6c-0.2,0-0.3,0.1-0.4,0.3
					c0,0.2-0.2,0.8-0.2,1.6c0,1.2,0.5,2.2,1.3,3C1.3,12.7,1,13.1,0.7,13.5z M13.1,6.6c-1.3,0.1-2.6,0.4-3.8,1
					C8.9,6.9,8.7,6.3,8.9,5.9c0.4-0.7,1.4-0.9,2.3-0.8c1,0.1,2,0.6,2.9,1.4C13.8,6.5,13.5,6.5,13.1,6.6z M14,18.4h0.1
					c-0.6,0.5-1.3,0.9-2.2,1.1c-1,0.2-2.3-0.3-1.5-1.7C11.6,18.2,12.8,18.4,14,18.4z"/>
			</g>
		</g>
	</g>
</g>
<path d="M12.9,11.2l0.9,0.4c0.2,0.1,0.5,0,0.6-0.2s0-0.5-0.2-0.6l-0.9-0.4c-1.9-0.7-2.2,2.4-1.5,3.6c0.3,0.5,1,0.7,1.5,0.5l0.9-0.4
	c0.2-0.1,0.3-0.4,0.2-0.6c-0.1-0.2-0.4-0.3-0.6-0.2L13,13.7c-0.1,0.1-0.3,0-0.3-0.1c-0.4-0.7-0.4-1.6,0-2.3
	C12.7,11.2,12.8,11.2,12.9,11.2z"/>
<path d="M19.7,12v-0.9c0-0.6-0.8-0.6-0.8,0V12C18.9,12.5,19.7,12.5,19.7,12z"/>
</svg>
