<?xml version="1.0" encoding="utf-8"?>
<!-- Generator: Adobe Illustrator 27.2.0, SVG Export Plug-In . SVG Version: 6.00 Build 0)  -->
<svg version="1.1" id="Слой_1" xmlns="http://www.w3.org/2000/svg" xmlns:xlink="http://www.w3.org/1999/xlink" x="0px" y="0px"
	 viewBox="0 0 24.2 24.5" style="enable-background:new 0 0 24.2 24.5;" xml:space="preserve"
	 stroke-width="0.5" stroke="#697A21" fill="#697A21">
<g>
	<g>
		<path class="st0" d="M4.8,18.3c-0.1,0.2-0.3,0.2-0.5,0.1l-2-1.1c-0.2-0.1-0.2-0.3-0.1-0.5s0.3-0.2,0.5-0.1l2,1.1
			C4.8,17.9,4.9,18.1,4.8,18.3z M17.2,19h-0.5v-1.6c0-0.2-0.2-0.4-0.4-0.4c-0.2,0-0.4,0.2-0.4,0.4v1.9c0,0.2,0.2,0.4,0.4,0.4h0.9
			c0.2,0,0.4-0.2,0.4-0.4S17.4,19,17.2,19z M23.9,9.8c0,0.8-0.2,1.6-0.5,2.3l0,0c-0.3,0.7-0.8,1.4-1.4,2c-0.2,0.1-0.3,0.3-0.5,0.4
			c-0.1,0.1-0.3,0.2-0.4,0.3v3.3c0,0.1,0,0.2-0.1,0.3c0.1,0.3,0.1,0.7,0.1,1c0,1.3-0.5,2.5-1.4,3.4s-2.1,1.4-3.4,1.4
			c-1.2,0-2.4-0.5-3.2-1.2l-2,1.2l0,0l0,0l0,0l0,0l0,0c0,0,0,0-0.1,0l0,0c0,0,0,0-0.1,0l0,0c0,0,0,0-0.1,0l0,0l0,0l0,0l0,0l0,0l0,0
			l0,0L1,18.5c-0.1-0.1-0.2-0.2-0.2-0.3V6.7c0-0.1,0.1-0.3,0.2-0.4l9.8-5.7c0.1-0.1,0.3-0.1,0.4,0L13.3,2l0.8-0.8
			c0.3-0.3,0.8-0.5,1.2-0.5s0.9,0.2,1.2,0.5C17,1.5,17.1,2,17.1,2.4s-0.2,0.9-0.5,1.2l0,0h1c0.8,0,1.6,0.2,2.4,0.5s1.5,0.7,2,1.3
			c0.6,0.6,1.1,1.2,1.4,2l0,0C23.7,8.2,23.9,8.9,23.9,9.8z M8.3,2.9l2.6,1.5C11,4.3,11,4.2,11.1,4.2l1.6-1.6l-1.9-1.1L8.3,2.9z
			 M17.1,8.3L17.1,8.3c0.1,0,0.1-0.1,0.1-0.1l1.5-0.8c0,0,0,0-0.1,0c-0.3-0.1-0.7-0.2-1.1-0.2h-1l0,0C16.9,7.5,17.1,7.9,17.1,8.3z
			 M15.4,10.2C15.4,10.2,15.3,10.2,15.4,10.2l-0.6,0.3v1.6l2.3-1.3V9.3L17,9.4c-0.1,0.1-0.2,0.3-0.3,0.4
			C16.3,10.1,15.8,10.2,15.4,10.2z M13.5,10.4l-9-5.3L1.8,6.7l9.1,5.2L13.5,10.4z M14.4,9.9c-0.1-0.1-0.1-0.1-0.2-0.2l-3-3
			c-0.2-0.2-0.3-0.3-0.4-0.6l0,0c-0.1-0.2-0.1-0.4-0.1-0.7c0-0.1,0-0.2,0-0.3L7.6,3.4L5.2,4.7L14.4,9.9L14.4,9.9z M10.5,23.1V12.6
			h-0.1l-9-5.2v10.5L10.5,23.1z M20.3,19.3c0-1.1-0.5-2.1-1.2-2.9s-1.7-1.2-2.9-1.2s-2.1,0.5-2.9,1.2c-0.7,0.7-1.2,1.7-1.2,2.9
			c0,1.1,0.5,2.1,1.2,2.9c0.7,0.7,1.7,1.2,2.9,1.2s2.1-0.5,2.9-1.2S20.3,20.5,20.3,19.3z M20.3,16.8v-7l0,0c0-0.4-0.1-0.7-0.2-1
			C20,8.5,19.8,8.2,19.6,8l-0.1-0.1l-1.7,1v2.2l0,0c0,0.1-0.1,0.3-0.2,0.3l-3,1.7c-0.1,0-0.1,0.1-0.2,0.1c-0.2,0-0.4-0.2-0.4-0.4V11
			l-2.8,1.6v10.5l1.3-0.8c-0.7-0.8-1.1-1.9-1.1-3c0-1.3,0.5-2.5,1.4-3.4s2.1-1.4,3.4-1.4s2.5,0.5,3.4,1.4
			C19.9,16.2,20.1,16.5,20.3,16.8z M23.1,9.8c0-0.7-0.1-1.4-0.4-2l0,0C22.4,7.1,22,6.5,21.5,6s-1.1-0.9-1.8-1.1
			c-0.7-0.3-1.4-0.4-2.1-0.4h-1.9c-0.1,0-0.2,0-0.3-0.1s-0.1-0.4,0-0.5l0.7-0.7c0.2-0.2,0.3-0.4,0.3-0.7S16.3,2,16.1,1.8
			c-0.2-0.2-0.4-0.3-0.7-0.3s-0.5,0.1-0.7,0.3l-3,3c-0.1,0.1-0.2,0.2-0.2,0.3c0,0.1-0.1,0.2-0.1,0.4c0,0.1,0,0.3,0.1,0.4l0,0
			c0,0.1,0.1,0.2,0.2,0.3l3,3c0.2,0.2,0.4,0.3,0.7,0.3s0.5-0.1,0.7-0.3l0,0c0.2-0.2,0.3-0.4,0.3-0.7S16.3,8,16.1,7.8l-0.7-0.7
			c-0.1-0.1-0.1-0.2-0.1-0.3c0-0.2,0.2-0.4,0.4-0.4h1.9c0.5,0,1,0.1,1.4,0.3c0.4,0.2,0.8,0.4,1.2,0.7c0.3,0.3,0.6,0.7,0.7,1
			c0.2,0.4,0.2,0.8,0.2,1.3l0,0v4.1c0.1-0.1,0.3-0.2,0.4-0.3c0.5-0.5,0.9-1.1,1.2-1.7C23,11.2,23.1,10.5,23.1,9.8z"/>
	</g>
</g>
</svg>
