<?xml version="1.0" encoding="utf-8"?>
<!-- Generator: Adobe Illustrator 27.2.0, SVG Export Plug-In . SVG Version: 6.00 Build 0)  -->
<svg version="1.1" id="Слой_1" xmlns="http://www.w3.org/2000/svg" xmlns:xlink="http://www.w3.org/1999/xlink" x="0px" y="0px"
	 viewBox="0 0 24.2 24.5" style="enable-background:new 0 0 24.2 24.5;" xml:space="preserve"
	 stroke-width="0.5" stroke="#697A21" fill="#697A21">
<path d="M17.1,21.6c-0.2-0.1-0.4,0-0.4,0.2l-0.2,0.5c-0.1,0.2,0,0.4,0.2,0.4h0.1c0.1,0,0.2-0.1,0.3-0.2l0.2-0.5
	C17.3,21.9,17.3,21.7,17.1,21.6"/>
<path d="M9.9,17.6c-0.2-0.1-0.3,0-0.4,0.2l-0.2,0.5c-0.1,0.2,0,0.4,0.2,0.4h0.1c0.1,0,0.2-0.1,0.3-0.2l0.2-0.5
	C10.2,17.8,10.1,17.6,9.9,17.6"/>
<g>
	<g>
		<g>
			<path d="M19.3,23.3c-0.5,0-2-0.1-4.7-0.9c-0.1,0-0.2,0-0.2-0.1c0.1-0.1,0.2-0.3,0.3-0.4c0.1-0.2,0.1-0.3,0.2-0.5
				c0.1-0.2,0-0.3-0.2-0.4s-0.3,0-0.4,0.2c0,0.1-0.1,0.3-0.2,0.4c-0.1,0.2-0.2,0.4-0.4,0.5c-0.7-0.2-1.3-0.4-2-0.6l0.1-0.2
				c0.1-0.1,0.1-0.3-0.1-0.4c-0.1-0.1-0.3-0.1-0.4,0.1L11,21.4c-0.3-0.1-0.6-0.2-0.9-0.3c0.2-0.3,0.4-0.5,0.5-0.8s0.3-0.6,0.4-0.8
				c0.1-0.2,0-0.3-0.2-0.4s-0.3,0-0.4,0.2c-0.1,0.3-0.2,0.5-0.3,0.7c-0.2,0.3-0.4,0.6-0.6,0.9c-0.7-0.3-1.3-0.5-1.9-0.8
				c-1.1-0.5-1.4-0.8-1.4-1s0.1-0.4,0.3-0.7c0.1-0.1,0.2-0.2,0.2-0.3l0,0C6.8,18,6.9,17.8,7,17.6c0.1-0.3,0.2-0.6,0.3-0.9
				c0.1-0.3,0.1-0.6,0.3-0.7c0,0,0.1,0,0.2,0s0.3,0,0.6,0.1c-0.1,0.4-0.2,0.7-0.3,1C8,17.6,7.8,18,7.6,18.4c-0.1,0.2,0,0.3,0.1,0.4
				c0.1,0,0.1,0,0.2,0s0.2-0.1,0.3-0.2c0.2-0.4,0.5-0.9,0.6-1.3c0.1-0.3,0.2-0.7,0.3-1c0.1,0,0.2,0.1,0.3,0.1c1,0.5,2.3,1.2,3.7,2.1
				c0,0.2,0,0.4-0.1,0.6c-0.1,0.3-0.2,0.7-0.4,1c-0.1,0.2,0,0.3,0.1,0.4c0,0,0.1,0,0.2,0c0.1,0,0.2-0.1,0.3-0.2
				c0.2-0.4,0.3-0.8,0.4-1.2c0-0.1,0-0.2,0.1-0.3c0.6,0.4,1.3,0.8,1.9,1.3C17.9,21.9,19,22.9,19.3,23.3z M1.4,18
				c0.3-0.1,0.6-0.2,1-0.3c0.6-0.2,2.2-0.4,2.2-0.4c0.2,0,0.3-0.1,0.3-0.3c0-0.2-0.1-0.3-0.2-0.3l-3.8-0.9L1,15.2l1.7,0.6
				c0.1,0,0.3,0,0.4-0.1c0.1-0.1,0-0.3-0.1-0.4l-1.1-0.9L2,14.2l2.9,2.1c0.1,0.1,0.3,0.1,0.4,0s0.1-0.3,0-0.4c0,0-0.9-1.1-1.3-2
				c-0.2-0.4-0.3-0.8-0.4-1L4,12.7c0.9,2,2.2,3.8,2.6,4.2c0,0.1-0.1,0.3-0.1,0.4s-0.1,0.2-0.1,0.2c-1.7,0.1-3.4,0.3-5,0.8L1.4,18z
				 M19.7,12.4c-1.2-0.3-2.6-0.6-3.8-0.4c-0.1-0.3-0.2-0.5-0.4-0.7c-0.4-0.5-1.2-0.7-1.9-0.5c-0.1,0-0.2,0.1-0.3,0.1
				c-0.1-0.4-0.2-0.7-0.2-1.1c0-0.2,0-0.3,0-0.5c0-0.3,0.1-0.6,0.3-0.9c0.1-0.2,0.2-0.5,0.4-0.7c0.6-0.8,1.6-1.3,2.7-1.2h0.1
				c1,0,1.9-0.8,2-1.8l0,0c0.1-1.4-0.1-2.3-0.1-2.3c0-0.2-0.2-0.3-0.4-0.2c-0.2,0-0.3,0.2-0.2,0.4c0,0,0.2,0.8,0.1,2.1l0,0
				c-0.1,0.7-0.7,1.3-1.4,1.2c-1.4-0.1-2.5,0.5-3.3,1.5c-0.2,0.2-0.3,0.5-0.4,0.8c-0.4-0.6-1.3-1.1-2.1-1c-0.6,0.1-1.1,0.3-1.4,0.4
				C9.2,7.1,9,6.5,8.5,5.8s-1.2-1.1-2-1.1l0,0C5.7,4.6,5,5,4.6,5.7l0,0l0,0C4,6.8,4.4,7.8,4.5,8c0.4,0.8,0.8,1.3,1.1,1.6
				c-0.3,0.2-0.8,0.6-1.1,1c-0.1,0.1-0.1,0.1-0.1,0.2c-0.1,0.2,0,0.3,0.1,0.4c0.2,0.1,0.3,0,0.4-0.1L5,11c0.5-0.7,1.4-1.1,1.4-1.1
				c0.1-0.1,0.2-0.2,0.2-0.3S6.5,9.4,6.4,9.3c0,0-0.7-0.4-1.2-1.6c0-0.1-0.4-0.9,0-1.7l0,0C5.5,5.5,6,5.2,6.5,5.3l0,0
				c0.6,0,1.1,0.4,1.5,0.9C8.7,7.3,8.6,8,8.6,8c0,0.1,0,0.2,0.1,0.3s0.2,0.1,0.3,0c0,0,0.8-0.5,1.7-0.6c0.5-0.1,1.3,0.4,1.5,0.7
				c0.1,0.2,0.2,0.5,0.2,0.8c0,0.2,0,0.4,0,0.5c-0.1,1-0.7,2.1-0.7,2.1c-0.1,0.1,0,0.3,0.1,0.4c0.1,0.1,0.3,0.1,0.4,0
				c0,0,0.7-0.7,1.5-0.8c0.6-0.1,1.1,0.1,1.3,0.3c0.1,0.1,0.2,0.3,0.2,0.4c-0.9,0.3-1.7,1-2.1,2.3c-0.3,0.7-0.4,1.4-0.3,2.2
				c0,0.2,0.2,0.3,0.3,0.3c0.2,0,0.3-0.2,0.3-0.3c0-0.7,0.1-1.3,0.3-1.9c0.4-1,1-1.7,1.9-2h0.1c0.9-0.2,2.1-0.1,3.8,0.3
				c3.2,0.9,4.3,2.1,3.9,4.3c-0.4,2.3-2.4,4.4-5.4,4c-0.5-0.4-1.1-0.9-1.8-1.4c-1.1-0.8-2.2-1.5-3.3-2.2L11,14.4l0,0l-1.1-2.1
				l0.8-2.5c0.1-0.2,0-0.3-0.2-0.4c-0.2-0.1-0.3,0-0.4,0.2l-0.7,2L8.3,9.4C8.2,9.3,8,9.2,7.8,9.3C7.7,9.4,7.6,9.6,7.7,9.7l2.5,4.4
				L9.4,14c-0.2,0-0.3,0.1-0.3,0.3s0.1,0.3,0.3,0.3l1.3,0.1l1.2,2.2c-0.8-0.5-1.5-0.9-2.2-1.1c-1.1-0.5-1.8-0.7-2.2-0.4
				c-0.3,0.1-0.4,0.4-0.5,0.7c-0.6-0.8-1.6-2.3-2.3-3.9C4.4,12.1,4.3,12,4.1,12l-1,0.3c-0.1,0-0.2,0.1-0.2,0.2c0,0.1-0.1,0.2,0,0.3
				c0,0,0.2,0.5,0.5,1.4c0.1,0.2,0.2,0.4,0.3,0.6l-1.6-1.1c-0.1-0.1-0.3-0.1-0.4,0l-0.5,0.6c-0.1,0.1-0.1,0.1-0.1,0.2
				c0,0.1,0,0.2,0.1,0.2l0.1,0.1l-0.5-0.1c-0.1,0-0.2,0-0.2,0c-0.1,0-0.1,0.1-0.2,0.2L0.1,16c0,0.1,0,0.2,0,0.2
				c0,0.1,0.1,0.1,0.2,0.2L3,16.9C2.7,17,2.4,17,2.2,17.1C1.7,17.3,1,17.5,1,17.5c-0.1,0-0.2,0.2-0.2,0.4l0.1,1
				c-0.1,0,0,0.1,0.1,0.1s0.1,0,0.2,0h0.1c1.5-0.5,3-0.7,4.6-0.8c-0.2,0.3-0.4,0.6-0.3,1c0.1,0.5,0.6,0.9,1.8,1.4
				c1.7,0.8,4.5,1.7,7.3,2.5c1.3,0.3,2.5,0.6,3.3,0.7c0.4,0.1,0.8,0.1,1,0.1c0.5,0,0.7-0.1,0.8-0.3c0.2-0.4-0.1-0.8-1-1.6l0,0
				c2.9,0,4.7-2.2,5.2-4.5C24.6,14.2,22,13.1,19.7,12.4"/>
		</g>
	</g>
</g>
<path d="M18.8,20c-0.2,0-0.3,0.2-0.3,0.4c0,0.2,0.2,0.3,0.3,0.3l0,0h0.1c0.6-0.1,1.6-0.2,2.6-1.5c0.5-0.6,0.8-1.2,0.9-1.6
	c0.1-0.2,0-0.4-0.2-0.4c-0.2-0.1-0.4,0-0.4,0.2c-0.1,0.3-0.4,0.9-0.8,1.4C20.1,19.9,19.3,20,18.8,20C18.9,20,18.8,20,18.8,20"/>
<path d="M18.1,13.7c-0.1-0.1-0.3-0.2-0.4-0.1c-0.1,0.1-0.2,0.3-0.1,0.4c0.2,0.2,0.5,0.6,0.9,0.8c0.3,0.2,0.7,0.2,0.9,0.2
	c0.5,0,0.9-0.1,1-0.2c0.2-0.1,0.2-0.3,0.2-0.4c-0.1-0.2-0.3-0.2-0.4-0.2c-0.2,0.1-0.8,0.3-1.4,0C18.4,14.2,18.2,13.9,18.1,13.7"/>
<path d="M18.7,13.8c0.4,0,0.7,0.1,0.9,0.2c0.1,0,0.1,0.1,0.2,0.1s0.2,0,0.3-0.1c0.1-0.1,0.1-0.3-0.1-0.4c-0.3-0.3-0.8-0.4-1.3-0.4
	l0,0c-0.2,0-0.3,0.1-0.3,0.3C18.4,13.7,18.5,13.8,18.7,13.8L18.7,13.8"/>
<path d="M19.7,5.2L19.7,5.2c-0.8,0.8-0.7,2,0,2.8c0.9,0.9,1.2,2.1,0.8,3.2c0,0.1-0.1,0.2-0.1,0.3c-0.1,0.2,0,0.4,0.2,0.4h0.1
	c0.1,0,0.2-0.1,0.3-0.2c0-0.1,0.1-0.2,0.1-0.3c0.5-1.4,0.1-2.8-1-3.9C19.6,7,19.5,6.2,20,5.6l0,0c0.8-1,1.6-1.3,1.6-1.3
	c0.2-0.1,0.2-0.3,0.1-0.4c-0.1-0.2-0.3-0.2-0.4-0.1C21.4,3.7,20.6,4.1,19.7,5.2"/>
<g>
	<g>
		<g>
			<g>
				<path d="M19.1,4.9h0.1c0.1,0,0.3-0.1,0.3-0.2C19.7,4.2,19.9,3.6,20,3c0.1-0.7,0.2-1.4,0.2-2.1c0-0.2-0.1-0.3-0.3-0.3
					c-0.2,0-0.3,0.1-0.3,0.3c0,0.7-0.1,1.3-0.2,2c-0.1,0.6-0.3,1.1-0.5,1.7C18.9,4.7,19,4.9,19.1,4.9"/>
			</g>
		</g>
	</g>
</g>
<path d="M14.1,9.3c-0.2,0-0.3,0.1-0.4,0.3c0,0.3-0.1,0.6,0,0.9c0,0.2,0.2,0.3,0.3,0.3l0,0c0.2,0,0.3-0.2,0.3-0.3c0-0.2,0-0.5,0-0.7
	C14.4,9.5,14.2,9.3,14.1,9.3"/>
<path d="M14.6,8.7c0.2-0.4,0.6-0.8,1-1c0.2-0.1,0.2-0.3,0.1-0.4c-0.1-0.2-0.3-0.2-0.4-0.1c-0.5,0.3-1,0.7-1.3,1.3
	c-0.1,0.2,0,0.4,0.1,0.4h0.1C14.5,8.9,14.6,8.9,14.6,8.7"/>
<path d="M19.4,11.5h0.1c0.1,0,0.2-0.1,0.3-0.2c0.2-0.5,0.3-1.1,0.3-1.6C20.1,9.5,20,9.2,20,9s-0.2-0.3-0.4-0.2
	c-0.2,0-0.3,0.2-0.2,0.4c0.1,0.2,0.1,0.4,0.1,0.6c0,0.5,0,0.9-0.2,1.3C19.2,11.2,19.3,11.4,19.4,11.5"/>
<path d="M17.6,10.8c-0.1,0.2-0.2,0.4-0.3,0.6c-0.1,0.1-0.1,0.3,0.1,0.4c0.1,0,0.1,0.1,0.2,0.1s0.2-0.1,0.3-0.1
	c0.1-0.2,0.3-0.4,0.4-0.7c0.1-0.2,0-0.4-0.2-0.4C17.9,10.6,17.7,10.7,17.6,10.8"/>
<path d="M16.9,8.7c-0.2-0.1-0.4,0-0.4,0.1c-0.3,0.6-0.4,1.1-0.5,1.3l0,0c0,0.2,0.1,0.3,0.2,0.4h0.1c0.1,0,0.3-0.1,0.3-0.2v-0.1
	c0-0.2,0.2-0.6,0.4-1.2C17.2,9,17.1,8.8,16.9,8.7"/>
<path d="M18.2,6.3C18,6.8,17.8,7,17.6,7.1c-0.2,0.2-0.3,0.3-0.5,0.7c-0.1,0.2,0,0.3,0.2,0.4h0.1c0.1,0,0.2-0.1,0.3-0.2
	c0.1-0.3,0.2-0.4,0.4-0.5c0.2-0.2,0.4-0.4,0.7-1c0.1-0.2,0-0.4-0.1-0.4C18.4,6.1,18.2,6.2,18.2,6.3"/>
<path d="M6.5,15c0.1,0.1,0.2,0.1,0.3,0.1c0.1,0,0.1,0,0.2-0.1c0.4-0.3,1-0.4,1-0.4c0.2,0,0.3-0.2,0.3-0.3C8.3,14.1,8.2,14,8,14
	c0,0-0.9,0-1.8-0.3c-0.2-0.1-0.3,0-0.4,0.2s0,0.3,0.2,0.4c0.2,0.1,0.4,0.1,0.7,0.2l-0.1,0.1C6.4,14.6,6.4,14.8,6.5,15"/>
</svg>
