<?xml version="1.0" encoding="utf-8"?>
<!-- Generator: Adobe Illustrator 27.2.0, SVG Export Plug-In . SVG Version: 6.00 Build 0)  -->
<svg version="1.1" id="Слой_1" xmlns="http://www.w3.org/2000/svg" xmlns:xlink="http://www.w3.org/1999/xlink" x="0px" y="0px"
	 viewBox="0 0 36.5 36" enable-background="new 0 0 36.5 36" xml:space="preserve">
<path stroke-width="0.5" stroke-miterlimit="10" d="M29.8,7l-9.7,9.7H24c0.2,0,0.4,0.2,0.4,0.4
	c0,0.2-0.2,0.4-0.4,0.4h-4.8c0,0,0,0-0.1,0c0,0,0,0,0,0c0,0,0,0-0.1,0c0,0,0,0,0,0c0,0-0.1,0-0.1,0c0,0,0,0,0,0c0,0,0,0-0.1-0.1
	c0,0,0,0,0,0c0,0,0,0,0,0c0,0,0,0,0,0c0,0,0,0,0,0c0,0,0,0,0,0c0,0,0,0,0,0c0,0,0,0,0,0c0,0,0,0,0,0c0,0,0,0,0,0c0,0,0,0,0,0
	c0,0,0,0,0,0c0,0,0,0,0,0c0,0,0,0,0-0.1v-4.6c0-0.2,0.2-0.4,0.4-0.4s0.4,0.2,0.4,0.4v3.6l9.7-9.7c0.2-0.2,0.4-0.2,0.6,0
	S30,6.8,29.8,7z"/>
<path stroke-width="0.5" stroke-miterlimit="10" d="M33.6,35.8H17.3c-0.2,0-0.4-0.2-0.4-0.4c0-0.2,0.2-0.4,0.4-0.4
	h16.3c1,0,1.8-0.8,1.8-1.8V2.9c0-1-0.8-1.8-1.8-1.8H2.9c-1,0-1.8,0.8-1.8,1.8v16.3c0,0.2-0.2,0.4-0.4,0.4c-0.2,0-0.4-0.2-0.4-0.4
	V2.9c0-1.5,1.2-2.6,2.6-2.6h30.7c1.5,0,2.6,1.2,2.6,2.6v30.3C36.2,34.6,35.1,35.8,33.6,35.8z"/>
<path stroke-width="0.5" stroke-miterlimit="10" d="M13,35.8H2.7c-1.4,0-2.5-1.1-2.5-2.5V23c0-1.4,1.1-2.5,2.5-2.5
	H13c1.4,0,2.5,1.1,2.5,2.5v10.3C15.4,34.7,14.3,35.8,13,35.8z M2.7,21.4c-0.9,0-1.6,0.7-1.6,1.6v10.3c0,0.9,0.7,1.6,1.6,1.6H13
	c0.9,0,1.6-0.7,1.6-1.6V23c0-0.9-0.7-1.6-1.6-1.6H2.7z"/>
</svg>
