<?xml version="1.0" encoding="utf-8"?>
<!-- Generator: Adobe Illustrator 27.2.0, SVG Export Plug-In . SVG Version: 6.00 Build 0)  -->
<svg version="1.1" id="_Слой_1" xmlns="http://www.w3.org/2000/svg" xmlns:xlink="http://www.w3.org/1999/xlink" x="0px"
	 y="0px" viewBox="0 0 36.5 36.2" enable-background="new 0 0 36.5 36.2" xml:space="preserve">
<g>
	<path stroke-width="0.5" stroke-miterlimit="10" d="M33.6,35.8H17.3c-0.2,0-0.4-0.2-0.4-0.4s0.2-0.4,0.4-0.4h16.3
		c1,0,1.8-0.8,1.8-1.8V2.9c0-1-0.8-1.8-1.8-1.8H2.9c-1,0-1.8,0.8-1.8,1.8v16.3c0,0.2-0.2,0.4-0.4,0.4s-0.4-0.2-0.4-0.4V2.9
		c0-1.5,1.2-2.6,2.6-2.6h30.7c1.5,0,2.6,1.2,2.6,2.6v30.3C36.2,34.6,35.1,35.8,33.6,35.8L33.6,35.8z"/>
	<path stroke-width="0.5" stroke-miterlimit="10" d="M17.7,35.6c0-0.2,0.1-0.6-0.2-0.6L2.7,34.9
		c-0.9,0-1.6-0.7-1.6-1.6V18.7c-0.3,0-0.5,0-0.8,0v14.6c0,1.4,1.1,2.5,2.5,2.5l15,0C17.9,35.8,17.7,35.6,17.7,35.6L17.7,35.6z"/>
</g>
<path display="none" stroke-width="0.5" stroke-miterlimit="10" d="M10.6,24.1L10.6,24.1c-0.1,0-0.2,0-0.2-0.1
	L4,15.5c-2-2.8-2.2-6.6-0.3-9.4c0.7-1.1,1.7-2,2.8-2.6c1.2-0.7,2.5-1,4-1c2.2,0,4.3,0.9,5.9,2.5c1.4,1.4,2.2,3.2,2.3,5.2
	c0.1,1.9-0.5,3.9-1.6,5.5L10.8,24C10.7,24.1,10.7,24.1,10.6,24.1z M10.6,3.1C8,3.1,5.7,4.3,4.3,6.5c-1.7,2.6-1.6,6.1,0.3,8.7l6,8.2
	l6-8.1c2.3-3,2-7.2-0.6-9.9C14.5,3.9,12.6,3.1,10.6,3.1z"/>
<path display="none" stroke-width="0.5" stroke-miterlimit="10" d="M10.5,16c-3,0-5.5-2.5-5.5-5.5S7.5,5,10.5,5
	S16,7.5,16,10.5S13.6,16,10.5,16z M10.5,5.7c-2.7,0-4.9,2.2-4.9,4.9s2.2,4.9,4.9,4.9s4.9-2.2,4.9-4.9S13.2,5.7,10.5,5.7z"/>
<path display="none" stroke-width="0.5" stroke-miterlimit="10" d="M31.9,20.1c0-0.1-0.1-0.2-0.2-0.3
	c-0.1-0.1-0.1-0.2-0.2-0.2c-0.1-0.1-0.2-0.1-0.3-0.2s-0.2-0.1-0.3-0.1c-0.1,0-0.2,0-0.3-0.1c-0.1,0-0.2,0-0.3,0
	c-0.1,0-0.2,0-0.3,0.1c-0.1,0-0.2,0.1-0.3,0.1c-0.2,0.1-0.3,0.2-0.4,0.4c-0.1,0.1-0.2,0.3-0.3,0.5v-0.1c0-0.1-0.1-0.1-0.1-0.2
	s-0.1-0.1-0.2-0.2s-0.1-0.1-0.2-0.1s-0.1-0.1-0.2-0.1s-0.1-0.1-0.2-0.1s-0.1,0-0.2-0.1c-0.1,0-0.1,0-0.2,0s-0.1,0-0.2,0
	s-0.1,0-0.2,0s-0.1,0-0.2,0.1c-0.1,0-0.1,0.1-0.2,0.1s-0.1,0.1-0.2,0.1s-0.1,0.1-0.2,0.1s-0.1,0.1-0.2,0.2S26,20.2,26,20.2
	c0,0.1-0.1,0.1-0.1,0.2c0-0.1-0.1-0.1-0.1-0.2s-0.1-0.1-0.2-0.2s-0.2,0-0.2,0c-0.1,0-0.1-0.1-0.2-0.1s-0.1-0.1-0.2-0.1s-0.1,0-0.2,0
	s-0.1,0-0.2,0s-0.1,0-0.2,0s-0.1,0-0.2,0s-0.1,0-0.2,0.1c-0.1,0-0.1,0.1-0.2,0.1s-0.1,0.1-0.2,0.1s-0.1,0.1-0.2,0.1
	c0,0-0.1,0.1-0.1,0.2s-0.1,0.1-0.1,0.2s-0.1,0.1-0.1,0.2l-2.2-3.9l-0.1-0.1l-0.1-0.1l-0.1-0.1l-0.1-0.1l-0.1-0.1c0,0-0.1,0-0.1-0.1
	c0,0-0.1,0-0.1-0.1c0,0-0.1,0-0.2,0c0,0-0.1,0-0.2,0s-0.1,0-0.2,0c0,0-0.1,0-0.2,0s-0.1,0-0.2,0c0,0-0.1,0-0.2,0s-0.1,0-0.2,0
	c0,0-0.1,0-0.1,0.1c0,0-0.1,0-0.1,0.1l-0.1,0.1l-0.1,0.1l-0.1,0.1l-0.1,0.1l-0.1,0.1L18,17c0,0,0,0.1-0.1,0.1s0,0.1,0,0.2
	c0,0,0,0.1,0,0.2s0,0.1,0,0.2s0,0.1,0,0.2s0,0.1,0,0.2c0,0,0,0.1,0,0.2s0,0.1,0,0.2c0,0,0,0.1,0.1,0.1c0,0,0,0.1,0.1,0.1l5.2,9.1
	L20.9,27c-0.8-0.2-1.6,0-2.1,0.5s-0.7,1.1-0.5,1.7c0.1,0.5,0.6,0.9,1.2,1c0.7,0.2,2.1,1,3.4,1.8c1,0.6,1.9,1.1,2.4,1.3
	c0.7,0.3,1.5,0.4,2.2,0.4c0.5,0,1-0.1,1.5-0.2c0.3-0.1,0.6-0.2,0.9-0.3s0.6-0.3,0.9-0.4c0.3-0.2,0.5-0.3,0.8-0.5s0.5-0.4,0.7-0.7
	c1-1.2,1.6-2.8,1.6-4.6C33.8,24.9,33.2,22.6,31.9,20.1L31.9,20.1z M31.8,31.2c-1.5,1.7-4,2.3-6.2,1.5c-0.4-0.2-1.3-0.7-2.3-1.2
	c-1.4-0.8-2.7-1.6-3.5-1.8c-0.4-0.1-0.6-0.3-0.7-0.6c-0.1-0.4,0-0.8,0.3-1.1c0.1-0.1,0.1-0.1,0.2-0.2s0.2-0.1,0.2-0.1
	c0.1,0,0.2-0.1,0.3-0.1s0.2,0,0.3,0c0.2,0,0.3,0,0.5,0.1l2.8,0.8h0.1h0.1H24c0,0,0,0,0.1-0.1c0,0,0,0,0-0.1v-0.1v-0.1V28l-5.6-9.8
	v-0.1V18v-0.1v-0.1v-0.1v-0.1v-0.1v-0.1v-0.1v-0.1v-0.1c0,0,0-0.1,0.1-0.1c0,0,0,0,0.1-0.1c0,0,0,0,0.1-0.1s0,0,0.1-0.1H19h0.1h0.1
	h0.1h0.1h0.1h0.1h0.1h0.1h0.1H20h0.1c0,0,0.1,0,0.1,0.1c0,0,0,0,0.1,0.1c0,0,0,0,0.1,0.1c0,0,0,0,0.1,0.1v0.1l4.6,7.9l0,0l0,0l0,0
	l0,0c0,0,0,0,0.1,0c0,0,0,0,0.1,0c0,0,0,0,0.1,0c0,0,0,0,0.1,0c0,0,0,0,0.1,0l0,0l0,0l0,0c0,0,0,0,0-0.1c0,0,0,0,0-0.1
	c0,0,0,0,0-0.1s0,0,0-0.1c0,0,0,0,0-0.1l-1.7-2.9c0-0.1-0.1-0.1-0.1-0.2s0-0.1,0-0.2s0-0.1,0-0.2s0-0.1,0-0.2s0-0.1,0.1-0.2
	c0-0.1,0.1-0.1,0.1-0.2l0.1-0.1c0,0,0.1-0.1,0.2-0.1s0.1-0.1,0.2-0.1s0.1,0,0.2,0s0.1,0,0.2,0s0.1,0,0.2,0s0.1,0,0.2,0.1
	c0.1,0,0.1,0.1,0.2,0.1s0.1,0.1,0.1,0.1s0.1,0.1,0.1,0.2l1.6,2.8l0,0l0,0l0,0c0,0,0,0,0.1,0c0,0,0,0,0.1,0c0,0,0,0,0.1,0
	c0,0,0,0,0.1,0c0,0,0,0,0.1,0l0,0l0,0l0,0c0,0,0,0,0-0.1s0,0,0-0.1c0,0,0,0,0-0.1c0,0,0,0,0-0.1c0,0,0,0,0-0.1l-1-1.8v-0.1V21v-0.1
	v-0.1v-0.1v-0.1v-0.1v-0.1v-0.1v-0.1v-0.1c0,0,0-0.1,0.1-0.1c0,0,0,0,0.1-0.1c0,0,0,0,0.1-0.1s0,0,0.1-0.1c0,0,0,0,0.1,0h0.1h0.1
	h0.1h0.1h0.1h0.1H28h0.1h0.1h0.1h0.1c0,0,0.1,0,0.1,0.1c0,0,0,0,0.1,0.1c0,0,0,0,0.1,0.1s0,0,0.1,0.1c0,0,0,0,0,0.1l1.1,1.9l0,0l0,0
	l0,0c0,0,0,0,0.1,0c0,0,0,0,0.1,0c0,0,0,0,0.1,0c0,0,0,0,0.1,0c0,0,0,0,0.1,0l0,0l0,0l0,0c0,0,0,0,0-0.1c0,0,0,0,0-0.1
	c0,0,0,0,0-0.1c0,0,0,0,0-0.1c0,0,0,0,0-0.1L30,21c0-0.1-0.1-0.1-0.1-0.2s0-0.1,0-0.2s0-0.1,0-0.2s0-0.1,0-0.2s0-0.1,0.1-0.2
	c0-0.1,0.1-0.1,0.1-0.2s0.1-0.1,0.1-0.1s0.1-0.1,0.2-0.1c0.1-0.1,0.2-0.1,0.4-0.1c0.1,0,0.3,0,0.4,0s0.2,0.1,0.3,0.2
	s0.2,0.2,0.2,0.3C33.7,24.8,33.8,28.7,31.8,31.2L31.8,31.2z"/>
<g>
	<g>
		<path stroke-width="0.5" stroke-miterlimit="10" d="M18.2,29.7L18.2,29.7c-0.1,0-0.2-0.1-0.3-0.2L10.1,19
			c-2.5-3.4-2.7-8.1-0.4-11.7c0.9-1.4,2.1-2.5,3.5-3.3c1.5-0.8,3.2-1.3,5-1.3c2.8,0,5.4,1.1,7.3,3.1c1.7,1.7,2.7,4,2.8,6.5
			c0.1,2.4-0.6,4.8-2,6.8l-7.8,10.5C18.5,29.7,18.3,29.7,18.2,29.7z M18.2,3.5c-3.2,0-6.1,1.5-7.8,4.2c-2.1,3.3-2,7.6,0.3,10.8
			l7.5,10.2l7.5-10.1c2.8-3.8,2.5-8.9-0.8-12.3C23.2,4.5,20.8,3.5,18.2,3.5z"/>
	</g>
</g>
<path stroke-width="0.5" stroke-miterlimit="10" d="M18.2,19.6c-3.8,0-6.8-3.1-6.8-6.8S14.5,6,18.2,6
	C22,6,25,9.1,25,12.8S22,19.6,18.2,19.6z M18.2,6.7c-3.4,0-6.1,2.7-6.1,6.1s2.7,6.1,6.1,6.1s6.1-2.7,6.1-6.1
	C24.3,9.5,21.6,6.7,18.2,6.7z"/>
<path stroke-width="0.5" stroke-miterlimit="10" d="M18.2,14.6c-1.5,0-2.7-1.2-2.7-2.7s1.2-2.7,2.7-2.7
	s2.7,1.2,2.7,2.7C21,13.4,19.7,14.6,18.2,14.6z M18.2,9.9c-1.1,0-1.9,0.9-1.9,1.9c0,1.1,0.9,1.9,1.9,1.9c1.1,0,1.9-0.9,1.9-1.9
	C20.2,10.8,19.3,9.9,18.2,9.9z"/>
<path stroke-width="0.5" stroke-miterlimit="10" d="M22.7,17.9c-0.2,0-0.3-0.1-0.4-0.3c-0.5-1.8-2.2-3-4.1-3
	s-3.5,1.2-4.1,3c-0.1,0.2-0.3,0.3-0.5,0.3c-0.2-0.1-0.3-0.3-0.3-0.5c0.6-2.1,2.6-3.6,4.8-3.6s4.2,1.5,4.8,3.6
	C23,17.6,22.8,17.8,22.7,17.9C22.8,17.9,22.7,17.9,22.7,17.9z"/>
<path stroke-width="0.5" stroke-miterlimit="10" d="M18.2,33.8c-3.5,0-6.9-0.4-9.4-1.2c-2.7-0.8-4.1-2-4.1-3.2
	c0-2.5,5.3-4,10.5-4.4c0.2,0,0.4,0.1,0.4,0.4c0,0.2-0.1,0.4-0.4,0.4c-6.4,0.5-9.8,2.2-9.8,3.6c0,0.9,1.3,1.8,3.6,2.5
	c2.4,0.8,5.7,1.2,9.2,1.2s6.7-0.4,9.2-1.2c2.2-0.7,3.6-1.6,3.6-2.5c0-1.4-3.4-3.1-9.8-3.6c-0.2,0-0.4-0.2-0.4-0.4
	c0-0.2,0.2-0.4,0.4-0.4c5.2,0.4,10.5,1.9,10.5,4.4c0,1.3-1.4,2.4-4.1,3.2C25.1,33.4,21.8,33.8,18.2,33.8z"/>
</svg>
