<?xml version="1.0" encoding="utf-8"?>
<!-- Generator: Adobe Illustrator 27.2.0, SVG Export Plug-In . SVG Version: 6.00 Build 0)  -->
<svg version="1.1" id="_Слой_1" xmlns="http://www.w3.org/2000/svg" xmlns:xlink="http://www.w3.org/1999/xlink" x="0px"
	 y="0px" viewBox="0 0 36.5 36" enable-background="new 0 0 36.5 36" xml:space="preserve">
<g>
	<path stroke-width="0.5" stroke-miterlimit="10" d="M33.6,35.8H17.4c-0.2,0-0.4-0.2-0.4-0.4s0.2-0.4,0.4-0.4h16.3
		c1,0,1.8-0.8,1.8-1.8V2.9c0-1-0.8-1.8-1.8-1.8H2.9c-1,0-1.8,0.8-1.8,1.8v16.3c0,0.2-0.2,0.4-0.4,0.4s-0.4-0.2-0.4-0.4V2.9
		c0-1.5,1.2-2.6,2.6-2.6h30.7c1.5,0,2.6,1.2,2.6,2.6v30.3C36.2,34.6,35.1,35.8,33.6,35.8L33.6,35.8z"/>
	<path stroke-width="0.5" stroke-miterlimit="10" d="M17.7,35.7c-0.3,0-0.2-0.5-0.2-0.8H2.7
		c-0.9,0-1.6-0.7-1.6-1.6V18.7c-0.3,0-0.5,0-0.8,0v14.6c0,1.4,1.1,2.5,2.5,2.5L17.7,35.7l2.8-0.4L17.7,35.7z"/>
</g>
<path stroke-width="0.58" stroke-miterlimit="10" d="M10.8,24.1L10.8,24.1c-0.1,0-0.2,0-0.2-0.1l-6.3-8.5
	c-2-2.8-2.2-6.6-0.3-9.4c0.7-1.1,1.7-2,2.8-2.6c1.2-0.7,2.5-1,4-1c2.2,0,4.3,0.9,5.9,2.5c1.4,1.4,2.2,3.2,2.3,5.2
	c0.1,1.9-0.5,3.9-1.6,5.5L11.1,24C11,24.1,10.9,24.1,10.8,24.1z M10.8,3.1c-2.6,0-4.9,1.2-6.3,3.4c-1.7,2.6-1.6,6.1,0.3,8.7l6,8.2
	l6-8.1c2.3-3,2-7.2-0.6-9.9C14.8,3.9,12.9,3.1,10.8,3.1z"/>
<path stroke-width="0.58" stroke-miterlimit="10" d="M10.8,16c-3,0-5.5-2.5-5.5-5.5S7.8,5,10.8,5s5.5,2.5,5.5,5.5
	S13.8,16,10.8,16z M10.8,5.7c-2.7,0-4.9,2.2-4.9,4.9s2.2,4.9,4.9,4.9s4.9-2.2,4.9-4.9S13.5,5.7,10.8,5.7z"/>
<path stroke-width="0.5" stroke-miterlimit="10" d="M32.2,20.1c0-0.1-0.1-0.2-0.2-0.3c-0.1-0.1-0.1-0.2-0.2-0.2
	c-0.1-0.1-0.2-0.1-0.3-0.2s-0.2-0.1-0.3-0.1c-0.1,0-0.2,0-0.3-0.1c-0.1,0-0.2,0-0.3,0c-0.1,0-0.2,0-0.3,0.1c-0.1,0-0.2,0.1-0.3,0.1
	c-0.2,0.1-0.3,0.2-0.4,0.4c-0.1,0.1-0.2,0.3-0.3,0.5l0-0.1c0-0.1-0.1-0.1-0.1-0.2c0-0.1-0.1-0.1-0.2-0.2s-0.1-0.1-0.2-0.1
	c-0.1,0-0.1-0.1-0.2-0.1c-0.1,0-0.1-0.1-0.2-0.1c-0.1,0-0.1,0-0.2-0.1c-0.1,0-0.1,0-0.2,0s-0.1,0-0.2,0s-0.1,0-0.2,0
	c-0.1,0-0.1,0-0.2,0.1c-0.1,0-0.1,0.1-0.2,0.1c-0.1,0-0.1,0.1-0.2,0.1c-0.1,0-0.1,0.1-0.2,0.1s-0.1,0.1-0.2,0.2s-0.1,0.1-0.1,0.2
	c0,0.1-0.1,0.1-0.1,0.2c0-0.1-0.1-0.1-0.1-0.2s-0.1-0.1-0.2-0.2S25.7,20,25.7,20c-0.1,0-0.1-0.1-0.2-0.1c-0.1,0-0.1-0.1-0.2-0.1
	s-0.1,0-0.2,0c-0.1,0-0.1,0-0.2,0s-0.1,0-0.2,0s-0.1,0-0.2,0s-0.1,0-0.2,0.1c-0.1,0-0.1,0.1-0.2,0.1c-0.1,0-0.1,0.1-0.2,0.1
	c-0.1,0-0.1,0.1-0.2,0.1c0,0-0.1,0.1-0.1,0.2s-0.1,0.1-0.1,0.2s-0.1,0.1-0.1,0.2L21,16.9c0,0-0.1-0.1-0.1-0.1c0,0-0.1-0.1-0.1-0.1
	c0,0-0.1-0.1-0.1-0.1s-0.1-0.1-0.1-0.1s-0.1-0.1-0.1-0.1s-0.1,0-0.1-0.1c0,0-0.1,0-0.1-0.1c0,0-0.1,0-0.2,0c0,0-0.1,0-0.2,0
	s-0.1,0-0.2,0c0,0-0.1,0-0.2,0s-0.1,0-0.2,0c0,0-0.1,0-0.2,0s-0.1,0-0.2,0c0,0-0.1,0-0.1,0.1c0,0-0.1,0-0.1,0.1c0,0-0.1,0.1-0.1,0.1
	c0,0-0.1,0.1-0.1,0.1c0,0-0.1,0.1-0.1,0.1s-0.1,0.1-0.1,0.1c0,0-0.1,0.1-0.1,0.1c0,0-0.1,0.1-0.1,0.1s0,0.1-0.1,0.1s0,0.1,0,0.2
	c0,0,0,0.1,0,0.2s0,0.1,0,0.2s0,0.1,0,0.2s0,0.1,0,0.2c0,0,0,0.1,0,0.2s0,0.1,0,0.2c0,0,0,0.1,0.1,0.1c0,0,0,0.1,0.1,0.1l5.2,9.1
	L21.2,27c-0.8-0.2-1.6,0-2.1,0.5c-0.5,0.5-0.7,1.1-0.5,1.7c0.1,0.5,0.6,0.9,1.2,1c0.7,0.2,2.1,1,3.4,1.8c1,0.6,1.9,1.1,2.4,1.3
	c0.7,0.3,1.5,0.4,2.2,0.4c0.5,0,1-0.1,1.5-0.2c0.3-0.1,0.6-0.2,0.9-0.3c0.3-0.1,0.6-0.3,0.9-0.4c0.3-0.2,0.5-0.3,0.8-0.5
	s0.5-0.4,0.7-0.7c1-1.2,1.6-2.8,1.6-4.6C34.1,24.9,33.5,22.6,32.2,20.1L32.2,20.1z M32.1,31.2c-1.5,1.7-4,2.3-6.2,1.5
	c-0.4-0.2-1.3-0.7-2.3-1.2c-1.4-0.8-2.7-1.6-3.5-1.8c-0.4-0.1-0.6-0.3-0.7-0.6c-0.1-0.4,0-0.8,0.3-1.1c0.1-0.1,0.1-0.1,0.2-0.2
	s0.2-0.1,0.2-0.1c0.1,0,0.2-0.1,0.3-0.1s0.2,0,0.3,0c0.2,0,0.3,0,0.5,0.1l2.8,0.8c0,0,0.1,0,0.1,0s0.1,0,0.1,0c0,0,0.1,0,0.1,0
	c0,0,0,0,0.1-0.1c0,0,0,0,0-0.1c0,0,0-0.1,0-0.1s0-0.1,0-0.1s0-0.1,0-0.1l-5.6-9.8c0,0,0-0.1,0-0.1c0,0,0-0.1,0-0.1s0-0.1,0-0.1
	c0,0,0-0.1,0-0.1c0,0,0-0.1,0-0.1s0-0.1,0-0.1s0-0.1,0-0.1c0,0,0-0.1,0-0.1c0,0,0-0.1,0-0.1c0,0,0-0.1,0-0.1c0,0,0-0.1,0-0.1
	c0,0,0-0.1,0.1-0.1c0,0,0,0,0.1-0.1c0,0,0,0,0.1-0.1s0,0,0.1-0.1c0,0,0.1,0,0.1,0c0,0,0.1,0,0.1,0c0,0,0.1,0,0.1,0s0.1,0,0.1,0
	c0,0,0.1,0,0.1,0c0,0,0.1,0,0.1,0s0.1,0,0.1,0s0.1,0,0.1,0c0,0,0.1,0,0.1,0c0,0,0.1,0,0.1,0c0,0,0.1,0,0.1,0c0,0,0.1,0,0.1,0
	c0,0,0.1,0,0.1,0.1c0,0,0,0,0.1,0.1c0,0,0,0,0.1,0.1c0,0,0,0,0.1,0.1c0,0,0,0.1,0,0.1l4.6,7.9v0c0,0,0,0,0,0c0,0,0,0,0,0
	c0,0,0,0,0,0c0,0,0,0,0.1,0c0,0,0,0,0.1,0c0,0,0,0,0.1,0c0,0,0,0,0.1,0c0,0,0,0,0.1,0c0,0,0,0,0,0c0,0,0,0,0,0c0,0,0,0,0,0
	c0,0,0,0,0-0.1c0,0,0,0,0-0.1c0,0,0,0,0-0.1s0,0,0-0.1c0,0,0,0,0-0.1l-1.7-2.9c0-0.1-0.1-0.1-0.1-0.2s0-0.1,0-0.2c0-0.1,0-0.1,0-0.2
	c0-0.1,0-0.1,0-0.2c0-0.1,0-0.1,0.1-0.2c0-0.1,0.1-0.1,0.1-0.2c0,0,0.1-0.1,0.1-0.1c0,0,0.1-0.1,0.2-0.1c0.1,0,0.1-0.1,0.2-0.1
	s0.1,0,0.2,0s0.1,0,0.2,0c0.1,0,0.1,0,0.2,0c0.1,0,0.1,0,0.2,0.1c0.1,0,0.1,0.1,0.2,0.1s0.1,0.1,0.1,0.1c0,0,0.1,0.1,0.1,0.2
	l1.6,2.8c0,0,0,0,0,0c0,0,0,0,0,0c0,0,0,0,0,0c0,0,0,0,0.1,0c0,0,0,0,0.1,0c0,0,0,0,0.1,0c0,0,0,0,0.1,0c0,0,0,0,0.1,0c0,0,0,0,0,0
	c0,0,0,0,0,0c0,0,0,0,0,0s0,0,0-0.1s0,0,0-0.1c0,0,0,0,0-0.1c0,0,0,0,0-0.1c0,0,0,0,0-0.1l-1-1.8c0,0,0-0.1,0-0.1c0,0,0-0.1,0-0.1
	s0-0.1,0-0.1c0,0,0-0.1,0-0.1c0,0,0-0.1,0-0.1s0-0.1,0-0.1s0-0.1,0-0.1c0,0,0-0.1,0-0.1c0,0,0-0.1,0-0.1s0-0.1,0-0.1
	c0,0,0-0.1,0-0.1c0,0,0-0.1,0.1-0.1c0,0,0,0,0.1-0.1c0,0,0,0,0.1-0.1s0,0,0.1-0.1c0,0,0,0,0.1,0c0,0,0.1,0,0.1,0c0,0,0.1,0,0.1,0
	s0.1,0,0.1,0c0,0,0.1,0,0.1,0c0,0,0.1,0,0.1,0s0.1,0,0.1,0s0.1,0,0.1,0c0,0,0.1,0,0.1,0c0,0,0.1,0,0.1,0s0.1,0,0.1,0
	c0,0,0.1,0,0.1,0c0,0,0.1,0,0.1,0.1c0,0,0,0,0.1,0.1c0,0,0,0,0.1,0.1s0,0,0.1,0.1c0,0,0,0,0,0.1l1.1,1.9c0,0,0,0,0,0c0,0,0,0,0,0
	c0,0,0,0,0,0c0,0,0,0,0.1,0c0,0,0,0,0.1,0c0,0,0,0,0.1,0c0,0,0,0,0.1,0c0,0,0,0,0.1,0c0,0,0,0,0,0c0,0,0,0,0,0c0,0,0,0,0,0
	c0,0,0,0,0-0.1c0,0,0,0,0-0.1c0,0,0,0,0-0.1c0,0,0,0,0-0.1c0,0,0,0,0-0.1l-0.4-0.6c0-0.1-0.1-0.1-0.1-0.2s0-0.1,0-0.2
	c0-0.1,0-0.1,0-0.2c0-0.1,0-0.1,0-0.2c0-0.1,0-0.1,0.1-0.2c0-0.1,0.1-0.1,0.1-0.2s0.1-0.1,0.1-0.1c0,0,0.1-0.1,0.2-0.1
	c0.1-0.1,0.2-0.1,0.4-0.1c0.1,0,0.3,0,0.4,0c0.1,0,0.2,0.1,0.3,0.2s0.2,0.2,0.2,0.3C33.9,24.8,34.1,28.7,32.1,31.2L32.1,31.2z"/>
</svg>
